<svg width="350pt" height="400pt" >
  <g
   transform="matrix(3,0,0,3,0,-420)"
    >
    <path
       style="[[style]]"
       d="m 78,244 c 0,0 -5,-6 -10,22 -1,7 -4,29 -20,22 -15,-6 10,-36 9,-40 -1,-3 -39,31 -43,12 -10,-42 36,-26 43,-32 6,-6 -48,-4 -42,-27 6,-22 18,-1 23,-1 4,0 -18,-21 -2,-31 16,-9 20,34 27,37 6,3 -11,-13 1,-21 12,-7 6,20 9,21 3,0 -1,-46 11,-45 35,4 -4,53 0,55.94048 4,2 24,-60 46,-23 11,18 -38,22 -35,30 5,15 38,-10 34,13 -4,23 -32,7 -34,9 -1,2 49,26 30,42 -18,15 -47,-43 -47,-43 z"
       />
    <path
       style="[[style]]"
       d="m 39.689266,268.97363 c 0,0 -26.998281,3.92941 -22.5296,16.15422 4.468681,12.22482 22.5296,-16.15422 22.5296,-16.15422 z"
       />
    <path
       style="[[style]]"
       d="m 87.886314,270.90395 c 0,0 -9.27989,24.31658 4.15995,24.58089 13.439836,0.26431 -4.15995,-24.58089 -4.15995,-24.58089 z"
       />
    <path
       style="[[style]]"
       d="m 54.947956,168.88285 c -0.882462,-8.0958 12.219368,-11.59517 14.572604,-4.09907 2.353236,7.49611 -0.862402,13.0944 -6.45134,13.69408 -5.588934,0.59969 -8.121264,-9.59501 -8.121264,-9.59501 z"
       />
  </g>
</svg>
