<?xml version="1.0" encoding="UTF-8" standalone="no"?>
<svg
   xmlns:dc="http://purl.org/dc/elements/1.1/"
   xmlns:cc="http://creativecommons.org/ns#"
   xmlns:rdf="http://www.w3.org/1999/02/22-rdf-syntax-ns#"
   xmlns:svg="http://www.w3.org/2000/svg"
   xmlns="http://www.w3.org/2000/svg"
   xmlns:sodipodi="http://sodipodi.sourceforge.net/DTD/sodipodi-0.dtd"
   xmlns:inkscape="http://www.inkscape.org/namespaces/inkscape"
   width="350pt"
   height="400pt"
   version="1.1"
   id="svg1513"
   sodipodi:docname="splash2.tpl.svg"
   inkscape:version="0.92.3 (2405546, 2018-03-11)">
  <metadata
     id="metadata1519">
    <rdf:RDF>
      <cc:Work
         rdf:about="">
        <dc:format>image/svg+xml</dc:format>
        <dc:type
           rdf:resource="http://purl.org/dc/dcmitype/StillImage" />
        <dc:title></dc:title>
      </cc:Work>
    </rdf:RDF>
  </metadata>
  <defs
     id="defs1517" />
  <sodipodi:namedview
     pagecolor="#ffffff"
     bordercolor="#666666"
     borderopacity="1"
     objecttolerance="10"
     gridtolerance="10"
     guidetolerance="10"
     inkscape:pageopacity="0"
     inkscape:pageshadow="2"
     inkscape:window-width="1366"
     inkscape:window-height="713"
     id="namedview1515"
     showgrid="false"
     inkscape:zoom="0.4425"
     inkscape:cx="-260.83556"
     inkscape:cy="101.74888"
     inkscape:window-x="0"
     inkscape:window-y="27"
     inkscape:window-maximized="1"
     inkscape:current-layer="g1511" />
  <g
     transform="matrix(3,0,0,3,0,-420)"
     id="g1511">
    <path
       style="[[style]]"
       d="m 78,244 c 0,0 -5,-6 -10,22 -1,7 -4,29 -20,22 -15,-6 10,-36 9,-40 -1,-3 -39,31 -43,12 -10,-42 36,-26 43,-32 6,-6 -48,-4 -42,-27 6,-22 18,-1 23,-1 4,0 -18,-21 -2,-31 16,-9 20,34 27,37 6,3 -11,-13 1,-21 12,-7 6,20 9,21 3,0 -1,-46 11,-45 35,4 -4,53 0,55.94048 4,2 24,-60 46,-23 11,18 -38,22 -35,30 5,15 38,-10 34,13 -4,23 -32,7 -34,9 -1,2 49,26 30,42 -18,15 -47,-43 -47,-43 z"
       id="path1503" />
    <path
       d="m 39.689266,268.97363 c 0,0 -26.998281,3.92941 -22.5296,16.15422 4.468681,12.22482 22.5296,-16.15422 22.5296,-16.15422 z"
       id="path1505"
       inkscape:connector-curvature="0"
       style="stroke-width:0.47579864" />
    <path
       style="stroke-width:0.34317192"
       d="m 87.886314,270.90395 c 0,0 -9.27989,24.31658 4.15995,24.58089 13.439836,0.26431 -4.15995,-24.58089 -4.15995,-24.58089 z"
       id="path1507"
       inkscape:connector-curvature="0" />
    <path
       d="m 54.947956,168.88285 c -0.882462,-8.0958 12.219368,-11.59517 14.572604,-4.09907 2.353236,7.49611 -0.862402,13.0944 -6.45134,13.69408 -5.588934,0.59969 -8.121264,-9.59501 -8.121264,-9.59501 z"
       id="path1509"
       inkscape:connector-curvature="0"
       style="stroke-width:0.35044321"
       sodipodi:nodetypes="cscc" />
  </g>
</svg>
