<?xml version="1.0" encoding="UTF-8" standalone="no"?>
<!-- Created with Inkscape (http://www.inkscape.org/) -->

<svg
   xmlns:dc="http://purl.org/dc/elements/1.1/"
   xmlns:cc="http://creativecommons.org/ns#"
   xmlns:rdf="http://www.w3.org/1999/02/22-rdf-syntax-ns#"
   xmlns:svg="http://www.w3.org/2000/svg"
   xmlns="http://www.w3.org/2000/svg"
   xmlns:sodipodi="http://sodipodi.sourceforge.net/DTD/sodipodi-0.dtd"
   xmlns:inkscape="http://www.inkscape.org/namespaces/inkscape"
   width="550"
   height="500"
   viewBox="0 0 145.52083 132.29167"
   version="1.1"
   id="svg8"
   inkscape:version="0.92.3 (2405546, 2018-03-11)"
   sodipodi:docname="Bella.svg">
  <defs
     id="defs2" />
  <sodipodi:namedview
     id="base"
     pagecolor="#ffffff"
     bordercolor="#666666"
     borderopacity="1.0"
     inkscape:pageopacity="0.0"
     inkscape:pageshadow="2"
     inkscape:zoom="0.98994948"
     inkscape:cx="271.13208"
     inkscape:cy="251.62824"
     inkscape:document-units="mm"
     inkscape:current-layer="g2140"
     showgrid="false"
     inkscape:pagecheckerboard="false"
     showguides="false"
     inkscape:snap-global="false"
     inkscape:window-width="1366"
     inkscape:window-height="713"
     inkscape:window-x="0"
     inkscape:window-y="27"
     inkscape:window-maximized="1"
     units="px" />
  <metadata
     id="metadata5">
    <rdf:RDF>
      <cc:Work
         rdf:about="">
        <dc:format>image/svg+xml</dc:format>
        <dc:type
           rdf:resource="http://purl.org/dc/dcmitype/StillImage" />
        <dc:title></dc:title>
      </cc:Work>
    </rdf:RDF>
  </metadata>
  <g
     inkscape:label="Layer 1"
     inkscape:groupmode="layer"
     id="layer1"
     transform="translate(0,-164.70832)">
    <g
       id="g979"
       transform="translate(-13.779441,-3.7607682)">
      <g
         id="g2080"
         transform="matrix(0.8203827,0,0,0.8203827,-1.2447116,35.212194)">
        <g
           id="g2102">
          <g
             id="g2140">
            <path
               style="fill:#f49dcd;stroke-width:0.39683473"
               d="m 50.118859,259.42178 c -1.756254,-4.42686 3.719926,-12.76568 25.725414,-16.0955 3.810325,0.82813 3.814816,0.76681 0.161636,-2.20603 -44.744067,-40.59788 -7.920466,-76.47393 18.431288,-35.91721 3.11081,4.85115 4.5243,0.33211 6.186773,-1.76692 0.69363,-0.87579 2.58367,-2.673 4.20011,-3.99384 l 2.93896,-2.40152 c 2.25468,-2.62904 -1.67706,-0.38917 3.92428,-2.08818 0.35163,-0.12034 2.24651,-0.80227 4.21084,-1.51546 4.71066,-1.71032 13.50909,-1.92547 17.21943,-0.42106 l 2.13971,0.86756 c 2.84479,1.34186 4.87933,3.49148 5.15586,3.76734 1.20315,1.18408 2.78384,3.14982 3.51266,4.36832 l 1.32511,2.21545 h 2.14305 c 1.17868,0 2.83457,-0.2072 3.67978,-0.46042 1.89191,-0.56683 2.15879,-0.34244 1.38117,1.16131 -0.63423,1.22646 -2.00886,1.96579 -4.01633,2.16011 -0.9367,0.0907 -1.1651,0.28446 -1.07136,0.90892 0.21395,1.42523 0.16004,2.73705 -0.21668,5.27389 -0.4605,3.10081 -2.50911,7.84145 1.04675,6.4289 20.64774,-8.20215 34.53826,-8.58245 39.04772,5.6387 6.28078,19.80725 -18.49347,30.72036 -50.4214,33.26738 -4.48272,0.3576 -4.51899,0.43277 -0.9562,1.98158 30.12879,22.54563 11.23466,24.48216 11.23466,24.48216 m -21.19541,-55.88435 c 1.63859,-0.79322 3.68228,-3.13193 3.68228,-4.21383 0,-0.27528 -0.80768,0.11603 -1.79483,0.86951 -2.7817,2.12332 -5.45039,2.31626 -7.6884,0.55584 -1.2053,-0.94809 -1.53137,-0.43889 -0.81948,1.27978 0.96172,2.32181 3.66719,2.93835 6.62043,1.5087 z m 40.98474,-1.94173 c 1.11145,-1.11145 0.98869,-2.1881 -0.35889,-3.14766 -1.48991,-1.06091 -2.61681,-1.04053 -3.38854,0.0613 -1.69275,2.41675 1.65767,5.17615 3.74743,3.08639 z m -60.30679,-9.16889 c 6.01296,1.12015 9.91047,-2.93031 11.94599,-4.74737 -0.69101,-1.6538 -4.01101,-2.5419 -7.73136,-4.06907 -3.18086,-0.35255 -4.66533,0.2028 -7.71098,1.46606 -1.24841,0.51782 -2.9395,1.06164 -3.757973,1.20848 -0.81847,0.14684 -1.47825,0.39282 -1.46616,0.54663 0.0685,0.87327 3.709693,3.56954 6.415523,4.64316 z m 36.63445,-5.30141 c -0.56633,0 -4.43207,-0.61831 -4.43207,-1.81409 0,-0.56734 0.48506,-2.55045 0.81804,-3.19438 0.90856,-1.75696 -2.37603,-0.34705 -4.94158,1.74431 -2.83588,2.31175 -2.83,3.22305 0.0304,4.71737 3.01503,1.07613 6.67455,1.65564 8.52522,-1.45321 z M 76.41875,199.15114 c 1.876449,-1.51946 0.865779,-4.04358 -1.619069,-4.04358 -2.546802,0 -3.511047,2.05463 -1.777705,3.78797 1.157539,1.15754 2.187246,1.23502 3.396774,0.25561 z"
               id="path2158"
               inkscape:connector-curvature="0"
               sodipodi:nodetypes="ccccccccccccccsccccccsscccsccccsccsccccsccccscccccscc" />
            <path
               style="fill:#5fbad4;stroke-width:0.39683473"
               d="m 112.86605,271.46496 c -3.44698,3.81428 -10.95108,10.52015 -13.062063,11.38922 0,0 -3.50062,0.17742 -4.5819,-1.91363 -5.3073,-79.78004 48.604193,-44.46941 17.643963,-9.47559 z"
               id="path2156"
               inkscape:connector-curvature="0"
               sodipodi:nodetypes="cccc" />
            <path
               style="fill:#f051a6;stroke-width:0.39683473"
               d="m 55.741206,276.85551 c -3.967743,0 -13.499474,-4.74511 -18.416317,-9.16804 -4.061523,-3.65355 -8.499125,-6.96388 -11.956641,-8.91936 l -2.726245,-1.54187 2.182595,-0.32594 c 7.760571,-1.15888 14.036809,-4.26653 21.429072,-10.61048 6.993561,-6.0018 14.630672,-7.63785 24.365583,-5.2197 5.277175,1.31085 5.321823,1.40133 -2.491788,-5.05032 -24.061702,-19.86764 -29.498524,-39.15494 -14.781443,-52.43764 13.010719,-11.74266 28.235152,-5.37484 42.261275,17.67633 1.06244,1.74607 2.28757,3.68527 2.72248,4.30933 0.64262,0.92208 0.70979,1.31241 0.35851,2.08339 -0.55027,1.20769 -0.45601,1.20207 4.051403,-0.24179 6.50869,-2.08491 11.14544,-1.28932 15.04342,2.58122 2.08445,2.06977 2.08921,3.41153 0.007,1.99669 -2.0829,-1.41537 -2.45344,-1.31691 -2.19845,0.58417 0.73242,5.46059 -5.02374,8.69282 -8.95772,5.02999 -2.36906,-2.20577 -2.48902,-4.44552 -0.36753,-6.86177 1.57209,-1.7905 1.28881,-1.96274 -1.53258,-0.93182 -3.99733,1.46058 -5.787873,1.96671 -6.957753,1.96671 h -1.13037 l 0.19524,2.94503 c 1.40268,21.15839 37.330843,25.30874 47.341133,5.46876 1.2601,-2.49747 1.7373,-3.08336 2.69538,-3.30934 0.64032,-0.15103 2.82639,-0.91815 4.85794,-1.7047 20.28249,-7.85279 33.20335,-4.08578 37.00779,10.78941 4.83735,18.9139 -10.19942,31.11443 -41.69361,33.82938 -5.25942,0.45338 -6.85732,0.88469 -5.32443,1.43714 7.96121,2.86924 12.2381,5.60744 15.43562,9.88237 1.8187,2.43152 2.5352,4.11934 4.37523,10.30645 2.15394,7.24269 4.97613,12.21884 9.36302,16.50904 l 2.67886,2.61984 -5.62509,-0.17714 c -3.95739,-0.12462 -6.85172,0.0111 -9.76253,0.45564 -16.77747,2.56588 -35.17261,-6.5632 -45.26848,-22.46571 -2.42882,-3.82575 -2.77073,-4.00582 -4.36518,-2.29895 -2.20022,2.35534 -7.06436,1.13447 -11.312313,-2.8393 l -2.52876,-2.36552 -3.29795,1.58873 c -5.485887,2.64273 -12.310745,4.50492 -19.865804,5.42047 5.16043,1.12237 -10.533572,-0.81312 -15.810947,-1.0107 z m 95.248014,4.51007 c 2.1099,-2.68229 -0.27164,-6.61745 -3.56684,-5.8937 -2.27138,0.49887 -3.76475,4.41571 -2.18383,5.72775 1.72845,1.43448 4.68571,1.51983 5.75067,0.16595 z m -41.51172,-8.01699 c 1.48674,-0.37436 3.21702,-2.41258 3.88723,-3.72629 1.00437,-1.96874 3.86046,-8.72251 5.54246,-19.85634 1.95509,-12.94158 -6.23035,-18.24265 -13.91392,-13.48221 -7.620213,11.2667 -8.726343,19.63932 -9.928933,26.86117 -0.95609,5.74153 7.954993,11.82986 14.413163,10.20367 z M 60.756172,256.43655 c 1.554767,-1.55476 1.450276,-3.90234 -0.24366,-5.47452 -2.390386,-2.21855 -6.330696,-0.6284 -6.316072,2.54892 0.01393,3.02537 4.471779,5.01356 6.559732,2.9256 z m 107.753658,-25.3257 c 2.73062,-1.84016 3.55799,-4.10209 2.79075,-7.62962 -2.94866,-6.82032 -11.59147,-4.54689 -12.63763,1.41377 -0.64318,4.79527 5.86169,8.90148 9.84688,6.21585 z M 79.256544,202.39513 c 1.698368,-1.61439 2.315415,-2.99768 2.315415,-5.19068 -0.661196,-10.69936 -17.548942,-6.45741 -12.649206,3.45879 1.917549,3.16985 7.786293,4.15342 10.333791,1.73189 z m 29.023316,24.86637 c -1.93453,-0.81238 -2.65823,-3.96094 -1.30566,-5.68045 2.11535,-2.68924 6.34452,-1.05795 6.34452,2.44721 0,2.3502 -2.82503,4.16291 -5.03886,3.23324 z m 26.72838,-4.82495 c -2.10205,-1.22189 -1.89339,-5.8326 0.28219,-6.23562 1.60091,-0.29657 4.21409,0.37799 4.65486,1.20159 1.77231,3.31158 -1.73973,6.89259 -4.93705,5.03403 z M 118.178,221.63399 c -0.91921,-0.9192 -0.61736,-3.06712 0.46935,-3.33988 2.0786,-0.5217 3.76195,1.31054 2.72569,2.96675 -0.49642,0.79339 -2.53653,1.03166 -3.19504,0.37313 z m 8.89669,-2.02399 c -1.7547,-1.28402 -0.0947,-3.9827 1.99727,-3.24699 1.73288,0.60942 1.6713,3.49191 -0.0782,3.6634 -0.65479,0.0642 -1.51833,-0.1232 -1.91901,-0.41641 z m 12.99671,-4.43111 c -2.75326,-1.19877 -3.83014,-4.54992 -2.14893,-6.68724 2.2321,-2.83766 -1.84364,-0.92592 -5.67697,2.66278 -2.29222,2.14594 -2.66408,1.24524 -0.73909,-1.79014 2.88392,-4.54748 8.05955,-6.72833 12.58765,-5.30408 2.08524,0.6559 5.0428,0.6407 7.22158,-0.037 0.66037,-0.20544 0.89289,-0.11825 0.89289,0.33496 0,0.96685 -1.87688,2.19296 -3.79787,2.48103 -1.89476,0.28414 -1.98941,0.42152 -1.31312,1.90582 1.76739,3.87902 -2.95732,8.20552 -7.02614,6.43397 z"
               id="path2154"
               inkscape:connector-curvature="0"
               sodipodi:nodetypes="cccccsscsscccccccccscscccsscccccscssccsccccscscscsscccccccccccccssccccccccccccccccscccscscc" />
            <path
               id="path2152"
               style="fill:#d4db24;stroke-width:0.39683473"
               d="m 101.30796,174.39353 c -0.0354,-0.002 -0.0674,0.005 -0.0961,0.0225 -0.45903,0.28058 -0.0333,2.97574 0.0132,4.71396 -3.633693,1.49978 -4.783663,1.89616 -1.919843,3.3359 1.626763,0.81784 1.926223,1.1709 2.392633,2.81969 0.63235,2.23537 0.65246,2.24141 2.16631,0.62084 1.01139,-2.72041 2.74112,-1.89855 4.12103,-1.91054 2.06325,0 2.09947,-0.11234 0.70377,-2.16632 l -1.05796,-1.55711 0.69057,-1.94465 c 0.86271,-2.42897 0.55929,-1.67205 0.10004,-2.19654 -0.26693,-0.3048 -1.76808,0.72253 -3.7056,1.32847 -1.60902,-0.87391 -2.8774,-3.03109 -3.40797,-3.06617 z m 43.093,4.44346 c -0.37086,0 -0.525,0.61471 -0.52007,2.08339 0.006,1.96043 -0.0938,2.17104 -1.68656,3.55756 l -1.69274,1.4734 c 0.7289,0.64525 4.8589,0.08 5.18675,3.69319 0.5949,1.75065 1.21573,1.78685 2.195,0.12712 1.03788,-1.7591 1.82548,-2.2043 3.90246,-2.2043 1.93404,0 2.01455,-0.42969 0.42241,-2.24304 -1.26878,-1.44505 -1.4735,-2.65272 -0.72856,-4.28768 0.25365,-0.55684 0.34703,-1.12637 0.20772,-1.26568 -0.56305,-0.46702 -2.47658,0.38612 -4.05019,1.42759 -1.70731,-1.05688 -1.97646,-1.11118 -3.23622,-2.36155 z m -75.535792,2.77784 c -3.355889,0 -3.187658,0.86596 0.379009,1.9493 6.379181,1.93761 14.027881,8.86552 21.61587,19.57898 2.45052,3.45991 3.42194,4.4787 3.40487,3.57152 -0.0138,-0.73259 -4.00047,-7.57909 -6.32455,-10.86103 -6.555531,-9.2573 -13.229146,-14.23877 -19.075199,-14.23877 z m -5.041039,0.29608 c -1.118078,-0.007 -2.913699,0.39543 -4.800771,1.28816 -10.164279,4.8085 -12.87235,16.56638 -6.65318,28.88522 4.393539,8.70266 14.55773,19.41558 23.050513,24.29451 3.60841,2.23319 6.336696,3.57119 10.143314,4.94958 l 3.568412,1.29514 c 2.94043,0.0735 0.60398,-1.79422 -0.61618,-2.54842 -6.109838,-3.77515 -8.769305,-5.59881 -9.772055,-6.81595 -4.620827,-3.22599 -9.324259,-6.53887 -13.209469,-10.93074 -0.07651,-0.0427 -0.148309,-0.094 -0.212366,-0.15966 -2.843642,-3.33491 -5.975637,-6.62664 -8.132787,-10.4704 -5.714233,-10.39578 -2.977176,-22.42673 6.343932,-27.88926 2.04619,-1.19915 1.728175,-1.88836 0.290649,-1.89814 z m 3.185527,3.77535 c -0.210406,-0.002 -0.422975,0.0144 -0.635554,0.0543 -4.502701,0.84471 -7.091275,6.01145 -3.843563,7.67162 2.772212,1.41711 7.833311,-2.20398 7.457703,-5.33557 -0.161333,-1.34509 -1.50573,-2.3691 -2.978586,-2.39031 z m -5.625442,10.61456 c -2.831851,0.0314 -5.421508,4.36304 -3.87069,8.07465 0.786034,1.88124 2.054715,1.93332 3.807912,0.15657 2.747155,-2.78406 3.65726,-6.17467 2.0144,-7.50499 -0.631396,-0.51122 -1.298118,-0.73347 -1.951622,-0.72623 z M 169.90689,214.4839 c -8.03009,-0.0423 -19.15594,2.89792 -24.64329,7.39725 -1.64452,1.34843 -1.35872,1.29242 5.89672,-1.1626 10.96079,-3.70881 19.06079,-4.7135 25.07732,-3.11034 3.01919,0.80451 3.6117,0.46266 1.88032,-1.08432 -1.55073,-1.38558 -4.56103,-2.02074 -8.21107,-2.03999 z m 10.4417,4.1164 c -0.056,-0.007 -0.10618,-0.007 -0.15036,7.8e-4 -0.4546,0.0827 -0.28268,1.00143 0.58285,2.69802 1.19969,2.35162 1.76652,6.97292 1.26802,10.33165 -1.60147,10.78997 -11.56423,17.39912 -29.59132,19.63092 -10.10612,0.93955 -2.8475,0.8585 -19.03025,0.62632 -5.64137,-0.0827 -6.50527,0.097 -5.29681,1.09983 0.82006,0.6806 7.66408,2.37781 11.18035,2.77241 19.29258,2.165 40.36946,-5.64952 45.89875,-17.01738 3.02574,-6.22077 1.75086,-14.63701 -2.84683,-18.79074 -0.94384,-0.85272 -1.62257,-1.29714 -2.01441,-1.35173 z M 62.042246,243.17614 c -4.467149,-0.0518 -8.304854,1.69884 -14.198465,5.67816 -3.163343,2.13586 -7.301714,4.66158 -9.19618,5.61304 -1.89447,0.95147 -3.558347,1.91395 -3.697074,2.13841 -1.345845,2.17763 7.537398,-1.25199 15.118473,-5.83705 5.283918,-3.19572 8.890015,-4.21831 14.835571,-4.20551 5.146783,0.0111 4.771854,-0.0629 13.635769,2.69569 5.266128,1.6389 -1.454872,-2.22202 -7.198054,-4.13498 -3.713076,-1.23679 -6.619747,-1.9167 -9.30004,-1.94776 z m -28.428711,17.07555 c -0.684132,0.10705 -0.09567,0.65587 2.811946,2.62283 2.022413,1.36814 4.926953,3.47017 6.454763,4.67133 5.218944,4.10317 9.167727,6.07002 13.919446,6.93298 4.938883,0.89696 19.501843,-0.24006 19.934742,-1.55633 0.155393,-0.47249 -0.743426,-0.52196 -5.754877,-0.31624 -12.636273,0.51872 -18.130703,-0.89415 -26.3058,-6.76479 -3.654772,-2.62453 -9.885725,-5.77351 -11.06022,-5.58978 z m 100.255805,3.39325 c -1.6972,-0.007 -0.94077,0.5463 2.29574,1.50208 10.77304,3.18138 15.01361,6.93122 20.56953,18.18851 2.05395,4.1617 3.60033,6.72447 5.00848,8.30176 1.72506,1.93226 2.767,2.7387 2.767,2.14073 0,-0.0778 -0.88752,-1.8275 -1.97254,-3.88851 -1.08501,-2.06102 -2.95777,-6.21841 -4.16135,-9.23882 -4.40449,-11.05307 -10.06927,-15.38252 -21.99255,-16.80657 -1.11,-0.13253 -1.94859,-0.19692 -2.51431,-0.19918 z m -11.03232,20.5579 c -0.43289,-0.004 0.14276,0.81769 1.83614,2.4864 6.06849,5.9801 14.13703,10.6488 19.59836,11.33924 0.76391,0.0966 4.24613,0.0635 7.73828,-0.0736 3.49215,-0.13738 7.67639,-0.1967 9.2977,-0.13176 2.58184,0.10335 2.88616,0.0442 2.45388,-0.47667 -0.82919,-0.99912 -4.24054,-1.48375 -12.74367,-1.81056 -11.0938,-0.42636 -13.21631,-1.18132 -22.98076,-8.17154 -2.92327,-2.09273 -4.70933,-3.15716 -5.19993,-3.16149 z"
               inkscape:connector-curvature="0"
               sodipodi:nodetypes="ccccccccccccccccccsscccccsscccscssccccccccccccccsccccccscccssccccccccsccccsccscssccccccssccsccscccccsccccccc" />
            <path
               style="fill:#a72395;stroke-width:0.39683473"
               d="m 147.15138,288.91148 c -1.49371,-0.74786 -4.07004,-3.46373 -4.07004,-4.29049 0,-2.52206 4.85832,-2.41448 7.26561,0.1609 3.07725,3.29213 0.8585,6.15937 -3.19557,4.12959 z m -11.6099,-7.66504 c -6.1881,-1.88916 -8.90207,-6.82063 -5.50173,-9.99702 2.98107,-2.78473 7.56792,-1.99365 10.46523,1.80491 3.33218,4.36871 0.0823,9.73253 -4.9635,8.19211 z M 66.477116,262.47025 c -6.282227,-3.16794 -2.085822,-10.86673 5.499542,-10.08955 5.926762,0.60724 8.424397,8.33197 3.375995,10.44132 -2.11897,0.88536 -6.789301,0.70027 -8.875537,-0.35177 z M 50.15006,261.95993 c -4.210405,-2.28618 1.396617,-6.50233 6.00877,-4.51824 3.025659,1.3016 3.715279,3.60594 1.39547,4.66291 -1.428681,0.65096 -6.107323,0.55953 -7.40424,-0.14467 z m 18.599087,-40.27625 c -9.907332,-9.27088 -5.215872,-21.86529 5.472421,-17.0063 7.921537,3.60121 6.283255,12.30064 4.413264,15.07288 -1.877648,2.78357 -7.43402,4.22759 -9.885685,1.93342 z m 80.248253,19.63549 c 2.70918,-10.75912 15.49614,-13.63158 18.34554,-4.12113 1.94679,6.49785 -12.22194,14.68139 -17.24642,9.96114 m 21.62062,-7.42639 c -1.11358,-2.44404 -0.26808,-7.64854 1.343,-8.26676 1.88914,-0.72494 4.14899,1.18829 4.14899,3.5126 0,3.97841 -4.19203,7.60727 -5.49199,4.75416 z m 3.91656,-11.00512 c -3.40483,-1.72285 -4.09468,-8.07769 -0.96224,-8.86387 3.41631,-0.85745 6.29313,6.07001 3.52102,8.47868 -1.19001,1.03397 -1.25678,1.04402 -2.55878,0.38519 z M 57.513875,204.37571 c -1.9087,-4.56815 2.454513,-10.07576 5.821961,-7.34898 1.64286,1.33032 0.73264,4.72159 -2.014515,7.50566 -1.753195,1.77675 -3.021412,1.72457 -3.807446,-0.15668 z m 5.01661,-10.96384 c -3.247712,-1.66017 -0.65935,-6.82641 3.843351,-7.67111 1.700643,-0.31904 3.430144,0.79865 3.614525,2.33588 0.375609,3.13159 -4.685664,6.75234 -7.457876,5.33523 z"
               id="path2146"
               inkscape:connector-curvature="0"
               sodipodi:nodetypes="ssssccscccccccccsssscccsccscccccscccccc" />
            <path
               style="fill:#40386b;fill-opacity:1;stroke-width:0.39683473"
               d="m 105.5003,184.52676 c -0.22542,-0.071 0.19031,1.13445 1.30986,3.9327 1.0158,2.5389 1.4438,4.24367 1.48194,5.90291 0.0556,2.42062 0.34849,2.74102 1.64004,1.79661 1.20058,-0.87788 -0.67497,-6.29143 -3.73273,-10.77422 -0.36144,-0.52989 -0.59664,-0.82574 -0.69911,-0.858 z m 38.08219,2.86931 c -0.26324,-0.002 -1.20782,0.63175 -2.82125,1.93534 -3.40776,2.75335 -4.97019,4.67708 -4.3241,5.32317 0.69823,0.69823 1.40444,0.53924 1.69661,-0.38135 0.14561,-0.45877 1.52275,-2.15857 3.06075,-3.77767 1.93853,-2.04076 2.72644,-3.09654 2.38799,-3.09949 z m 1.5819,17.45297 c -6.9019,0.0207 -7.9508,0.27398 -10.54479,2.55152 -1.58232,1.38934 -2.02208,2.50281 -0.56658,1.43466 2.63064,-1.93054 5.85332,-3.04365 5.85332,-2.02138 0,0.32739 -0.18079,0.59525 -0.40226,0.59525 -2.52809,0 -2.41339,5.85251 0.13641,6.96166 4.11692,1.79083 8.56833,-2.21594 6.74077,-6.06723 -0.78037,-1.64449 -0.37487,-2.06889 1.98417,-2.07874 1.50513,-0.006 3.04991,-0.56914 3.04911,-1.11144 -2e-4,-0.15598 -2.81278,-0.27414 -6.25015,-0.2643 z m -2.6918,1.83459 c 0.52803,0.0142 1.04279,0.43581 0.93551,0.98899 -0.17822,0.91886 -0.90022,1.07531 -1.51991,0.32862 -0.37466,-0.45141 -0.3992,-0.74559 -0.0867,-1.05796 0.18813,-0.18814 0.43119,-0.26608 0.67121,-0.25965 z m -33.35272,0.5534 c -1.88546,-0.0425 -3.96243,0.42936 -6.5408,1.40907 -1.16905,0.44422 -3.338573,0.90966 -4.820923,1.03393 -2.09514,0.17565 -2.60342,0.33594 -2.28335,0.7216 0.96544,1.16329 3.06753,1.04936 7.246883,-0.39374 5.41538,-1.86986 8.68405,-1.90123 5.24722,-0.0503 -3.55739,1.91571 -3.56186,6.31782 -0.007,7.78788 h 7.8e-4 c 4.33497,1.79307 8.23204,-2.03722 6.7493,-6.63303 -0.2256,-0.69925 -0.10299,-0.88563 0.65338,-0.99674 0.83079,-0.12206 0.73922,-0.25075 -0.8549,-1.20057 -1.8103,-1.07864 -3.50436,-1.63553 -5.38983,-1.67803 z m 2.15392,2.61584 c 0.0514,-0.001 0.10434,0.001 0.15966,0.01 0.58371,0.0829 0.89287,0.39928 0.89287,0.91458 0,0.78717 -0.98109,1.27357 -1.5075,0.74716 -0.63781,-0.6378 -0.3171,-1.65053 0.45497,-1.67104 z m -36.069342,7.67861 c -0.35452,-0.0354 -0.629502,0.40723 -0.775843,1.38272 -0.177858,1.18561 -0.254312,1.25483 -0.742514,0.66346 -1.309142,-1.58584 -2.035428,-0.5952 -1.013013,1.38194 l 0.62548,1.20911 -1.220731,-0.26818 c -1.719239,-0.37761 -1.559446,0.28913 0.565021,2.35388 2.475268,2.40572 2.477642,3.01372 0.0062,1.98108 -2.439217,-1.01917 -2.052132,-0.31812 0.54952,0.99518 1.331642,0.67223 2.423133,1.26464 2.425965,1.31607 0.0028,0.0514 0.338842,1.70925 0.746391,3.68389 2.56166,12.41166 9.739193,15.78275 21.825133,10.25182 2.326883,-1.06485 3.480983,-1.48538 3.831163,-1.28505 -0.21883,0.37389 -0.44569,0.76596 -0.70841,1.23003 -0.66131,1.00929 -0.65023,1.0323 1.75321,3.65522 3.77414,4.11882 7.60878,5.66018 12.8824,5.17822 l 2.83365,-0.25965 0.2736,-2.54919 c 0.27995,-1.78232 0.38777,-3.19621 0.43248,-4.45587 2.83788,5.9259 8.93917,7.8931 17.34137,5.54484 4.12037,-1.15157 4.00318,-1.18247 3.68079,0.96729 -0.18988,1.26623 -0.14263,1.74708 0.15347,1.56408 0.23513,-0.14532 0.71129,-0.8761 0.71129,-1.19061 0,-0.77265 0.733,-1.99858 1.77048,0.44189 1.14727,1.03828 1.34755,0.27713 0.42629,-1.61911 -1.08328,-2.22969 -0.89521,-2.35348 1.74158,-1.14633 2.77097,1.2686 3.19754,0.84938 1.03626,-1.01999 -2.18805,-1.89253 -2.14025,-2.033 0.69446,-2.033 3.24233,0 3.29905,-0.93723 0.0984,-1.61911 -3.12364,-0.6655 -3.62841,-1.17763 -2.53369,-2.56935 0.46596,-0.59238 0.84715,-1.49973 0.84715,-2.01595 0,-0.88725 -0.13049,-1.00063 -1.25949,-1.09673 -0.29135,-0.0248 -0.51413,0.7781 -0.59448,2.14229 -0.33347,5.66464 -3.43624,8.13511 -10.21771,8.13511 -7.66848,0 -12.15738,-3.43658 -13.77839,-10.55255 0.0241,-0.30693 0.0523,-0.61947 0.0907,-0.9479 -0.62834,-3.4158 -1.95822,-3.37178 -5.81999,-4.05826 -2.47073,-0.65763 -2.96867,-0.1577 -7.08566,2.39574 -0.29865,0.30121 -0.48103,0.48192 -0.72701,0.72623 -17.392693,10.34807 -24.468362,9.92312 -28.073747,-1.59354 -1.406065,-4.49138 -1.173512,-5.73954 1.371869,-7.36779 3.30134,-2.11185 4.779616,-4.93044 1.60284,-3.05609 -2.136765,1.26071 -2.474745,1.10869 -3.208005,-1.43931 -0.914561,-3.178 -1.88169,-4.98887 -2.5585,-5.05653 z m 32.849712,19.60999 c 0.0343,0.002 0.0685,0.005 0.10311,0.007 l 2.0485,1.37962 c 1.94481,1.30971 4.07575,2.18455 6.76867,2.77862 1.34817,0.29741 2.46795,3.1991 1.47651,3.8265 -2.24467,1.42046 -7.69774,-0.26865 -11.07959,-3.43199 -2.35538,-2.20317 -2.39986,-2.46099 -0.6278,-3.66763 z m -8.480803,8.43583 -1.21221,3.33745 c -0.66681,1.83545 -1.07116,3.33666 -0.89908,3.33666 0.17209,0 0.86132,0.48336 1.65454,1.56394 1.772293,2.41435 4.945243,5.12124 7.623803,6.04722 v 8e-4 c 2.5307,0.8748 3.82135,0.88847 6.79269,0.0729 1.30084,-0.35707 2.65552,-0.66341 3.01037,-0.68052 0.46742,-0.0225 0.80236,-0.76235 1.2153,-2.6856 l 0.56967,-2.65462 -0.98356,0.37359 c -5.11708,1.94551 -13.12553,-1.43672 -16.71743,-7.06087 z m -2.95269,9.3196 c -0.21448,-0.0442 -0.46519,1.23895 -0.73687,2.9643 l -0.44644,2.8352 2.75173,3.06787 c 2.816143,2.83294 5.042143,4.20305 7.725873,4.75349 1.74048,0.35698 3.15172,0.25045 6.43617,-0.48519 l 2.00819,-0.44954 0.99133,-2.87318 0.99208,-2.87317 -1.61137,0.85567 c -11.05055,3.71881 -16.789863,-5.10258 -18.110693,-7.79545 z m -1.5055,9.64244 -0.23562,1.89194 c -0.56388,4.52184 -0.70988,4.07177 2.15391,6.65396 1.52104,1.37146 3.556123,2.75497 4.800003,3.26226 4.38549,1.78847 5.75656,1.28967 9.47287,-3.44441 1.29514,-1.64982 1.31421,-1.71882 0.39683,-1.44394 -5.73768,1.71916 -10.92329,-0.0655 -15.188223,-5.22628 z m -0.19299,11.23925 c -0.22694,0.0181 -0.28432,0.34584 -0.42784,0.91768 -0.1424,0.56736 -2.5061,3.37994 -5.25341,6.25016 -10.137658,10.5912 -10.803323,10.6768 -15.71915,2.01673 -1.371377,-2.41593 -2.870591,-4.87165 -3.33124,-5.45727 -2.51777,-3.20083 -9.554682,-3.58026 -14.078335,-0.75879 -5.309379,3.31157 -2.383691,7.96969 3.665297,5.83549 2.21902,-0.78292 2.800097,-0.55615 2.494169,0.97348 -0.586018,2.93008 0.678872,4.07947 3.100271,2.81738 0.847837,-0.44193 1.870977,-0.80375 2.27405,-0.80375 2.11422,0 1.625593,-2.72537 -1.094399,-6.09901 -1.275384,-1.58189 -1.311361,-2.23452 -0.123233,-2.23452 1.044168,0 4.505658,3.9228 6.770992,7.67318 4.781183,7.91549 6.086798,7.82803 14.989038,-1.00759 5.7746,-5.7314 7.27246,-6.75347 7.27246,-4.96121 0,0.62188 1.46262,2.03194 2.48021,2.39108 1.25151,0.4417 -0.12563,4.14418 -5.16349,13.87836 -3.77094,7.28619 -4.07201,7.4062 -8.353688,3.32892 -6.183781,-5.88856 -14.815197,-4.19604 -17.746726,3.48005 -1.752725,4.58946 2.905631,5.79683 6.911281,1.79119 1.367016,-1.36701 1.815452,-1.30445 2.212044,0.30848 0.148091,0.60226 0.529504,1.4962 0.847147,1.98727 0.759652,1.17446 1.613426,1.12886 2.672436,-0.14338 0.474566,-0.57013 1.356908,-1.58109 1.960145,-2.24693 1.357845,-1.49875 1.043099,-2.1445 -2.129114,-4.37293 -2.447947,-1.71965 -2.933056,-2.66158 -1.37187,-2.66158 1.662615,0 5.122367,2.2103 6.530721,4.17141 2.170076,3.02176 3.993584,3.60078 6.006004,1.90744 1.35214,-1.13776 7.78909,-13.85256 9.50621,-18.77757 0.535473,-1.53589 1.360513,-2.99225 2.039203,-3.60018 1.52537,-1.3663 1.45076,-1.62753 -0.71461,-2.5182 -1.01803,-0.41875 -2.799933,-1.53484 -3.960603,-2.48022 -1.39924,-1.1397 -1.97219,-1.62845 -2.26397,-1.60517 z m -28.892206,6.62838 c 0.733052,-0.11886 2.634367,2.91166 2.289549,3.81024 -0.265625,0.69217 -0.816618,0.71825 -1.309864,0.0627 -0.48311,-0.642 -1.338285,-3.57641 -1.109121,-3.80558 0.03747,-0.0374 0.08057,-0.0596 0.129436,-0.0674 z m -2.371707,1.37343 c 0.265046,0.0231 0.594617,0.42646 0.971162,1.21608 0.840646,1.76285 0.856028,2.81538 0.04495,3.12662 -1.509916,0.5794 -1.868933,0.0326 -1.679576,-2.56005 0.08864,-1.21363 0.322687,-1.81248 0.663461,-1.78265 z m 14.895254,18.07535 c 0.795135,0 3.126383,2.28204 2.82667,2.76699 -0.418744,0.67754 -0.858976,0.47426 -2.148487,-0.99441 -1.387833,-1.58066 -1.460918,-1.77258 -0.678183,-1.77258 z m -2.086485,2.40658 c 0.343473,-0.0255 0.96161,0.3443 1.881866,1.10758 1.180555,0.97919 1.28526,1.21408 0.878925,1.97332 -0.960347,1.79443 -2.411401,0.91526 -2.997959,-1.81676 -0.175707,-0.81838 -0.106311,-1.23871 0.237168,-1.26414 z"
               id="path2144"
               inkscape:connector-curvature="0"
               sodipodi:nodetypes="cccccccccccccccssscccccscsccccccccccccsccsscscccccccccsccccccccsccsccccsscsccscccccsccsscccsccccccsccccccccccccccsccccccsccssccccsscsccscscssssccssscccccscscccccccccccscccscccscccscsc" />
          </g>
        </g>
      </g>
    </g>
    <g
       id="g961"
       transform="translate(81.264881,-14.174107)" />
    <rect
       style="opacity:1;fill:#ffffff;fill-opacity:1;stroke:none;stroke-width:1;stroke-miterlimit:4;stroke-dasharray:none;stroke-opacity:1"
       id="rect995"
       width="95.682487"
       height="137.37653"
       x="294.51065"
       y="60.008327"
       ry="3.9196432" />
  </g>
</svg>
