<?xml version="1.0" encoding="UTF-8" standalone="no"?>
<!-- Created with Inkscape (http://www.inkscape.org/) -->

<svg
   xmlns:dc="http://purl.org/dc/elements/1.1/"
   xmlns:cc="http://creativecommons.org/ns#"
   xmlns:rdf="http://www.w3.org/1999/02/22-rdf-syntax-ns#"
   xmlns:svg="http://www.w3.org/2000/svg"
   xmlns="http://www.w3.org/2000/svg"
   xmlns:sodipodi="http://sodipodi.sourceforge.net/DTD/sodipodi-0.dtd"
   xmlns:inkscape="http://www.inkscape.org/namespaces/inkscape"
   width="300"
   height="500"
   viewBox="0 0 79.374999 132.29167"
   version="1.1"
   id="svg8"
   inkscape:version="0.92.3 (2405546, 2018-03-11)"
   sodipodi:docname="dad.svg">
  <defs
     id="defs2" />
  <sodipodi:namedview
     id="base"
     pagecolor="#ffffff"
     bordercolor="#666666"
     borderopacity="1.0"
     inkscape:pageopacity="0.0"
     inkscape:pageshadow="2"
     inkscape:zoom="0.98994948"
     inkscape:cx="90.22296"
     inkscape:cy="247.84818"
     inkscape:document-units="mm"
     inkscape:current-layer="g2140"
     showgrid="false"
     inkscape:pagecheckerboard="false"
     showguides="false"
     inkscape:snap-global="false"
     inkscape:window-width="1366"
     inkscape:window-height="713"
     inkscape:window-x="0"
     inkscape:window-y="27"
     inkscape:window-maximized="1"
     units="px" />
  <metadata
     id="metadata5">
    <rdf:RDF>
      <cc:Work
         rdf:about="">
        <dc:format>image/svg+xml</dc:format>
        <dc:type
           rdf:resource="http://purl.org/dc/dcmitype/StillImage" />
        <dc:title></dc:title>
      </cc:Work>
    </rdf:RDF>
  </metadata>
  <g
     inkscape:label="Layer 1"
     inkscape:groupmode="layer"
     id="layer1"
     transform="translate(0,-164.70832)">
    <g
       id="g979"
       transform="translate(-13.779441,-3.7607682)">
      <g
         id="g2080"
         transform="matrix(0.8203827,0,0,0.8203827,-1.2447116,35.212194)">
        <g
           id="g2102">
          <g
             id="g2140">
            <path
               style="opacity:1;fill:#ffffff;fill-opacity:1;stroke:none;stroke-width:0.35246798"
               d="m 56.830238,183.7223 c -1.552428,-0.0315 -4.864192,1.02886 -5.704941,3.04075 -1.033021,2.47232 -0.498427,5.06526 1.194241,5.79244 l 3.527479,-4.1669 -3.524182,4.16833 c 1.694094,0.72462 5.559447,-0.38225 6.591885,-2.85534 1.032253,-2.47306 0.496142,-5.06556 -1.197539,-5.79099 -0.276782,-0.11859 -0.575138,-0.18193 -0.886943,-0.18829 z m 14.472525,4.94593 c -1.55243,-0.0315 -4.398631,1.18406 -5.239377,3.19595 -1.033407,2.47259 -0.498771,5.06606 1.194241,5.79314 l 3.061915,-4.32281 -3.058619,4.32425 c 1.694241,0.72444 5.094073,-0.53796 6.126322,-3.01124 1.032254,-2.47281 0.496463,-5.06518 -1.196881,-5.791 -0.276979,-0.11867 -0.57556,-0.182 -0.887601,-0.18829 z"
               id="path2519"
               inkscape:connector-curvature="0"
               sodipodi:nodetypes="cccccccccccccccc" />
            <path
               style="fill:#cf9f73;fill-opacity:1;fill-rule:evenodd;stroke:none;stroke-width:0.28968388px;stroke-linecap:butt;stroke-linejoin:miter;stroke-opacity:1"
               d="m 59.043473,206.12831 0.438938,12.36339 c 0,0 2.267842,3.43835 4.755154,3.3652 2.487311,-0.0731 4.608842,-3.21889 4.608842,-3.21889 l 0.365781,-16.75277 c 0,0 -2.560466,-1.02419 -5.486717,-0.21947 -2.92625,0.80473 -4.681998,4.46254 -4.681998,4.46254 z"
               id="path2480"
               inkscape:connector-curvature="0" />
            <path
               style="fill:#4e2a1b;fill-opacity:1;fill-rule:evenodd;stroke:none;stroke-width:0.28968385px;stroke-linecap:butt;stroke-linejoin:miter;stroke-opacity:1"
               d="m 84.282243,309.57123 -11.119448,1.24361 0.512039,7.16911 c 0,0 2.194599,1.90252 6.876597,2.48777 4.681998,0.58526 12.290064,-0.21953 12.290064,-0.21953 0,0 -0.65802,-3.73103 -2.852709,-6.07204 -2.194685,-2.341 -5.706543,-4.60892 -5.706543,-4.60892 z m -31.603265,0.29252 c 0,0 -3.95046,2.12171 -6.584084,3.58483 -2.633624,1.46313 -5.193942,5.48646 -5.193942,5.48646 l 0.219527,1.53668 c 0,0 1.975075,0.51187 7.388635,-0.14654 5.413561,-0.65841 12.070538,-2.85327 12.070538,-2.85327 l 0.07299,-6.36456 z"
               id="path2494"
               inkscape:connector-curvature="0" />
            <path
               style="fill:#256dbb;fill-opacity:1;fill-rule:evenodd;stroke:none;stroke-width:0.28968388px;stroke-linecap:butt;stroke-linejoin:miter;stroke-opacity:1"
               d="m 49.898945,259.89813 -5.41356,50.18517 18.874305,2.63362 4.096747,-41.11379 3.657812,40.96748 17.99643,-1.90206 -8.339807,-51.20936 z"
               id="path2492"
               inkscape:connector-curvature="0" />
            <g
               id="g2565">
              <path
                 inkscape:connector-curvature="0"
                 id="path2486"
                 d="m 58.531379,210.37137 -6.949841,2.77993 -5.486717,48.28311 c 0,0 12.656028,0.14631 19.459555,0.14631 6.80353,0 16.972244,-0.5121 16.972244,-0.5121 L 81.502434,211.83449 69.577969,207.2988 c 0,0 0.146313,2.63363 -1.024186,4.0236 -1.1705,1.38996 -3.218874,1.90206 -3.218874,1.90206 l -1.1705,6.21828 -0.877876,-6.07197 c 0,0 -2.048374,0.73157 -3.438341,-0.65841 -1.38997,-1.38996 -1.316813,-2.34099 -1.316813,-2.34099 z"
                 style="fill:#ffffff;fill-opacity:1;fill-rule:evenodd;stroke:#000000;stroke-width:0.28968388px;stroke-linecap:butt;stroke-linejoin:miter;stroke-opacity:1" />
              <path
                 inkscape:connector-curvature="0"
                 id="path2482"
                 d="m 58.824003,209.85927 -6.730372,1.75575 5.779342,9.51031 5.486717,-7.97403 c 0,0 -1.682593,-0.14631 -2.853093,-1.31681 -1.170499,-1.17051 -1.682594,-1.97522 -1.682594,-1.97522 z"
                 style="fill:#ffffff;fill-opacity:1;fill-rule:evenodd;stroke:#000000;stroke-width:0.28968388px;stroke-linecap:butt;stroke-linejoin:miter;stroke-opacity:1" />
              <path
                 inkscape:connector-curvature="0"
                 id="path2484"
                 d="m 65.188595,213.1513 5.340406,5.70619 6.657216,-8.55928 -7.974029,-3.87728 c 0,0 -0.146313,2.9994 -1.170499,4.24305 -1.024187,1.24367 -2.853094,2.48732 -2.853094,2.48732 z"
                 style="fill:#ffffff;fill-opacity:1;fill-rule:evenodd;stroke:#000000;stroke-width:0.28968388px;stroke-linecap:butt;stroke-linejoin:miter;stroke-opacity:1" />
              <path
                 sodipodi:nodetypes="ccccsccc"
                 inkscape:connector-curvature="0"
                 id="path2488"
                 d="m 78.941965,230.34301 6.803529,5.55987 -6.435594,8.29265 2.11418,8.53329 c 0,0 3.736164,-2.12153 7.467132,-7.24247 3.730966,-5.12093 5.267249,-8.77875 5.267249,-8.77875 L 81.429276,211.76134 Z"
                 style="fill:#ffffff;fill-opacity:1;fill-rule:evenodd;stroke:#000000;stroke-width:0.28968388px;stroke-linecap:butt;stroke-linejoin:miter;stroke-opacity:1" />
              <path
                 sodipodi:nodetypes="cccccccc"
                 inkscape:connector-curvature="0"
                 id="path2490"
                 d="m 51.793438,213.10538 -14.794569,24.72658 12.104647,14.4842 2.586463,-6.93173 c 0,0 -2.276087,-4.75909 -3.414131,-5.58676 -1.138044,-0.82767 -2.172628,-1.7588 -2.172628,-1.7588 l 5.897135,-5.48329 z"
                 style="fill:#ffffff;fill-opacity:1;fill-rule:evenodd;stroke:#000000;stroke-width:0.28968388px;stroke-linecap:butt;stroke-linejoin:miter;stroke-opacity:1" />
            </g>
            <path
               inkscape:connector-curvature="0"
               style="opacity:1;fill:#000000;fill-opacity:1;stroke:none;stroke-width:0.28968388"
               d="m 55.443206,186.15332 a 2.8192449,3.8796945 27.864344 0 0 -3.474509,2.63827 2.8192449,3.8796945 27.864344 0 0 1.024643,4.56026 l 1.606274,-3.52487 -1.603444,3.526 a 2.8192449,3.8796945 27.864344 0 0 4.235495,-2.4923 2.8192449,3.8796945 27.864344 0 0 -1.027473,-4.55912 2.8192449,3.8796945 27.864344 0 0 -0.760986,-0.14824 z m 13.837497,4.13818 a 2.8192449,3.8796945 27.864343 0 0 -3.474508,2.63827 2.8192449,3.8796945 27.864343 0 0 1.024643,4.56082 l 1.606274,-3.52542 -1.603447,3.52655 a 2.8192449,3.8796945 27.864343 0 0 4.235497,-2.49286 2.8192449,3.8796945 27.864343 0 0 -1.026909,-4.55913 2.8192449,3.8796945 27.864343 0 0 -0.76155,-0.14823 z"
               id="path2519-5" />
            <path
               style="fill:#dfab7c;fill-opacity:1;fill-rule:evenodd;stroke:none;stroke-width:0.28968385px;stroke-linecap:butt;stroke-linejoin:miter;stroke-opacity:1"
               d="m 63.622466,171.22399 c -6.321157,0.0386 -11.327457,4.14231 -14.162261,11.27504 -4.535685,11.41237 -5.61366,20.80683 0,25.01918 10.095635,7.57551 24.512233,-4.99252 24.512233,-4.99252 0,0 4.364169,0.11112 7.436729,-2.66882 4.314065,-4.74565 -3.418495,-3.89716 -3.418495,-3.89716 0,0 10.388289,-11.85149 -1.755644,-20.1913 -4.553975,-3.12743 -8.819871,-4.56756 -12.612562,-4.54442 z m -6.52298,13.48671 c 0.670404,-0.023 1.065947,0.20255 1.065947,0.20255 0,0 2.108281,1.6793 -0.3655,4.97442 -2.639175,3.51542 -5.120955,2.19469 -5.120955,2.19469 0,0 -1.68259,-2.08514 0.731565,-5.04796 1.511208,-1.85467 2.826995,-2.29419 3.688943,-2.3237 z m 13.912745,4.25982 c 0.670404,-0.0229 1.066512,0.20199 1.066512,0.20199 0,0 2.107717,1.67987 -0.366065,4.97498 -2.639173,3.51542 -5.120953,2.1947 -5.120953,2.1947 0,0 -1.682591,-2.08514 0.731565,-5.04797 1.511208,-1.85466 2.826996,-2.29419 3.688941,-2.3237 z"
               id="path2476"
               inkscape:connector-curvature="0" />
            <path
               style="fill:#bc6f3e;fill-opacity:1;fill-rule:evenodd;stroke:none;stroke-width:0.28968385px;stroke-linecap:butt;stroke-linejoin:miter;stroke-opacity:1"
               d="m 63.176622,189.00956 c 0,0 -0.69454,3.98737 -2.63318,4.97498 -1.93864,0.98761 -6.291571,1.27982 -6.291571,1.27982 0,0 -0.365891,1.93901 1.024077,2.89005 1.389968,0.95102 3.4383,0.65801 3.4383,0.65801 0,0 -2.194474,-0.62141 -2.779723,-1.27981 -0.585251,-0.65841 -0.6218,-1.42692 -0.6218,-1.42692 0,0 3.328545,0.0732 5.523231,-1.24361 2.194688,-1.31681 2.340666,-5.85252 2.340666,-5.85252 z m -10.570631,12.07111 c 0,0 -0.768419,3.40141 1.097064,3.69403 1.865484,0.29263 4.279628,-2.4872 4.279628,-2.4872 0,0 -2.779868,1.64638 -4.060102,1.42691 -1.280237,-0.21946 -1.31659,-2.63374 -1.31659,-2.63374 z"
               id="path2554"
               inkscape:connector-curvature="0" />
            <path
               style="fill:#5b1c07;fill-opacity:1;fill-rule:evenodd;stroke:none;stroke-width:0.28968388px;stroke-linecap:butt;stroke-linejoin:miter;stroke-opacity:1"
               d="m 77.968444,195.51743 0.56902,-0.82767 c 0,0 -0.672478,-0.41384 -0.206915,-1.44842 0.465563,-1.03458 1.241502,-2.1209 1.241502,-2.1209 0,0 -1.44842,-0.51729 -1.189773,-2.1209 0.258648,-1.60361 1.344962,-2.84511 1.344962,-2.84511 0,0 -1.603609,0 -2.069172,-1.13804 -0.465562,-1.13805 0.879396,-2.1209 0.879396,-2.1209 0,0 -2.896837,0.77594 -5.224653,-1.18978 -2.327816,-1.96571 0.310375,-4.44871 0.310375,-4.44871 0,0 -2.896838,0.67248 -5.4833,-1.24151 -2.586463,-1.91398 -3.000299,-2.84511 -3.000299,-2.84511 0,0 -1.44842,0.8794 -2.276088,0.82768 -0.827667,-0.0517 -2.172628,-0.87941 -2.172628,-0.87941 0,0 -0.569024,1.39669 -1.965711,1.86226 -1.39669,0.46556 -2.483005,-0.0517 -2.483005,-0.0517 0,0 -0.310376,1.29323 -1.707066,2.43127 -1.39669,1.13805 -2.586463,0.93113 -2.586463,0.93113 0,0 -0.362105,1.34497 -0.775939,1.86226 -0.413834,0.51728 -1.344961,1.34496 -1.344961,1.34496 0,0 -1.344961,-1.18978 -0.775939,-2.32782 0.569022,-1.13804 1.707066,-1.2415 1.707066,-1.2415 0,0 -2.172629,-1.50015 -1.44842,-2.89684 0.72421,-1.39669 2.431276,-1.96572 2.431276,-1.96572 0,0 -1.862254,-1.50014 -0.362105,-2.89683 1.500149,-1.39669 3.103756,-0.36211 3.103756,-0.36211 0,0 -0.155188,-2.06917 2.120899,-2.68991 2.276088,-0.62076 4.086612,0.87939 4.086612,0.87939 0,0 -1.44842,-1.81053 1.189772,-1.96571 2.638194,-0.15519 4.293529,1.08632 4.293529,1.08632 0,0 0.362105,-1.18978 2.224358,-1.24151 1.862255,-0.0517 2.431275,0.98286 2.431275,0.98286 0,0 -0.206915,-2.27609 3.621049,-1.65534 3.827966,0.62075 4.345258,5.27638 4.345258,5.27638 0,0 2.017442,-0.82766 3.052027,0.62076 1.034584,1.44842 0.310374,4.29353 0.310374,4.29353 0,0 2.379547,-0.36211 2.896838,1.18977 0.517294,1.55187 -0.465562,3.00029 -0.465562,3.00029 0,0 2.84511,0.3621 2.638192,2.22437 -0.206916,1.86225 -1.500149,3.20721 -1.500149,3.20721 0,0 1.810525,1.39668 1.241504,2.63819 -0.569023,1.2415 -2.327818,1.81052 -2.327818,1.81052 0,0 0.724209,0.82767 -0.155187,2.01745 -0.879399,1.18977 -1.862252,1.6036 -1.862252,1.6036 0,0 0.413833,1.60361 -0.155191,2.22436 -0.56902,0.62075 -0.775938,0.77593 -0.775938,0.77593 0,0 -1.758795,-0.20691 -2.431275,-0.20691 -0.672478,0 -1.293231,-0.3621 -1.293231,-0.3621 z"
               id="path2478"
               inkscape:connector-curvature="0" />
          </g>
        </g>
      </g>
    </g>
    <g
       id="g961"
       transform="translate(81.264881,-14.174107)" />
    <rect
       style="opacity:1;fill:#ffffff;fill-opacity:1;stroke:none;stroke-width:1;stroke-miterlimit:4;stroke-dasharray:none;stroke-opacity:1"
       id="rect995"
       width="95.682487"
       height="137.37653"
       x="294.51065"
       y="60.008327"
       ry="3.9196432" />
  </g>
</svg>
