<svg class="art fish"
  height="380pt" width="600pt" viewBox="50 50 200 250"
  style="fill:silver;stroke:#000;stroke-opacity:1;">
  <path
    d="m 271.81311,188.62219 c 0,0 -2.00452,0.26727 -2.13816,0.93544 -0.13364,0.66818 0.53454,2.80633 1.60362,3.87541 1.06908,1.06908 -1.06908,2.13816 -2.00453,2.13816 -0.93544,0 -3.20723,0.66817 -4.27631,1.20271 -1.06908,0.53454 -2.13815,1.73725 -2.13815,1.73725 0,0 -10.95805,14.96709 -18.97614,20.17885 -8.01809,5.21176 -20.84702,12.96257 -20.84702,12.96257 0,0 -26.86059,7.48355 -33.40869,6.28084 -6.54811,-1.20272 -36.8832,-2.80634 -64.01105,-18.57524 -27.127858,-15.7689 -20.44612,-22.58427 -35.279578,-20.44612 -14.833461,2.13816 -12.828939,-21.91609 -6.815376,-21.64883 6.013566,0.26727 9.087166,0.26727 9.087166,0.26727 0,0 2.27179,0.93545 9.220798,-2.00452 6.94901,-2.93996 21.3144,-26.1102 51.24859,-38.13733 29.93419,-12.02713 74.60293,-7.46454 74.60293,-7.46454 0,0 18.47402,7.51596 24.08668,13.66316 5.61266,6.1472 12.2944,21.64883 12.82894,24.05426 0.53454,2.40543 0.80181,5.21176 1.46998,6.28083 0.66817,1.06908 6.28084,10.02261 7.08264,10.15625 0.80181,0.13363 2.93997,2.00452 2.40543,3.0736 -0.74267,0.80189 -2.73479,2.47696 -3.74177,1.46998 z"
    id="body" paintable
    inkscape:connector-curvature="0"
    sodipodi:nodetypes="ccssscsccsscccscsscccc"
    inkscape:label="#path1257" />
  <path
    d="m 83.388093,177.39687 c 0,0 -1.336349,-0.80181 -4.543584,-2.53906 -3.207233,-1.73726 -22.450638,-16.30344 -29.266011,-16.70435 -6.815373,-0.4009 -9.087164,2.6727 -9.087164,2.6727 0,0 13.146512,16.12744 14.833458,31.67144 1.870887,17.23888 -2.80633,35.27957 -2.80633,35.27957 0,0 9.755338,-4.54358 11.759859,-6.5481 2.004522,-2.00452 11.225321,-12.42803 14.432556,-15.368 3.340866,-3.34086 6.414466,-5.21175 6.414466,-5.21175 0,0 -2.405426,-9.75534 -2.672695,-13.36348 -0.267269,-3.60814 0.935445,-9.88897 0.935445,-9.88897 z"
    id="tail" paintable
    inkscape:connector-curvature="0"
    sodipodi:nodetypes="ccccscsccsc"
    inkscape:label="#path1259" />
  <path
    d="m 102.02941,201.23674 c 0,0 15.875,16.25298 33.07291,23.24554 17.19792,6.99256 46.68006,12.47321 46.68006,12.47321 0,0 -42.90029,14.3631 -63.68899,2.26786 -20.788688,-12.09524 -32.127969,-33.82887 -29.482138,-36.4747 2.64584,-2.64584 13.418158,-1.51191 13.418158,-1.51191 z"
    id="thins_bottom" paintable
    inkscape:connector-curvature="0"
    inkscape:label="#path1261" />
  <path
    d="m 199.35828,235.44359 c 0,0 -16.63096,14.93006 -9.82739,18.89881 6.80358,3.96875 16.25298,-5.29167 21.92262,-10.77233 5.66965,-5.48065 10.58334,-13.60714 10.58334,-13.60714 0,0 -3.59078,-0.56696 -5.85863,0.18899 -2.26786,0.75595 -8.31548,3.59077 -12.28423,4.53571 -3.96875,0.94494 -12.47321,3.02381 -12.47321,3.02381 0,0 -4.9137,3.59078 -4.9137,4.53572 0,0.94494 -1.70089,6.61458 -0.75595,7.37053 0.94494,0.75596 2.64584,0.75596 2.64584,0.75596 0,0 1.88988,-6.80358 5.29166,-9.6384 3.40179,-2.83482 5.66965,-5.29166 5.66965,-5.29166 z"
    id="thins_front_bottom" paintable
    inkscape:connector-curvature="0"
    inkscape:label="#path1263" />
  <path
    d="m 228.84042,185.73972 c 0,0 -22.86756,-29.10417 -35.15179,-28.15923 -12.28422,0.94494 3.40179,42.14435 10.20536,41.95536 6.80357,-0.18899 14.74107,-2.45685 14.74107,-2.45685 0,0 1.51191,-2.83482 4.7247,-6.42559 3.2128,-3.59078 5.48066,-4.91369 5.48066,-4.91369 z"
    id="thins_side" paintable
    inkscape:connector-curvature="0"
    inkscape:label="#path1265" />
  <path
    d="m 227.5175,129.98823 c 0,0 -37.25704,-21.40377 -97.89583,0 -22.91634,8.08881 -20.5997,24.19048 -27.0253,32.31697 -6.425588,8.12649 -9.449398,12.09523 -9.827378,13.41815 -0.37798,1.32292 5.85863,1.5119 9.449398,0 3.59078,-1.5119 23.05655,-27.21428 47.81399,-37.41964 31.66005,-13.0507 77.48512,-8.31548 77.48512,-8.31548 z"
    id="thins_top" paintable
    inkscape:connector-curvature="0"
    sodipodi:nodetypes="csscssc"
    inkscape:label="#path1267" />
  <path
    d="m 240.54257,136.10373 c 0,0 -7.75081,3.4745 -10.69078,9.6217 -2.93997,6.1472 -2.27179,15.7689 -2.53906,19.77795 -0.26727,4.00904 -1.46998,15.50163 -1.46998,15.50163 l 4.40994,5.74629 c 0,0 4.00905,-1.87088 6.54811,-0.66817 2.53906,1.20271 10.15624,7.21627 13.89801,6.68174 3.74178,-0.53454 6.81538,0 8.95353,1.46998 2.13816,1.46998 3.74178,3.4745 3.74178,3.4745 0,0 1.73725,-7.88445 3.4745,-10.15624 1.73725,-2.27179 2.67269,-1.20271 2.13816,2.40542 -0.53454,3.60814 0.26726,-0.13363 2.27179,-2.93996 2.00452,-2.80633 1.87088,-3.0736 1.87088,-3.0736 l -6.01357,-9.35443 c 0,0 -2.83517,-8.69564 -8.01808,-20.31249 -5.81311,-13.02938 -18.57523,-18.17432 -18.57523,-18.17432 z"
    id="face" paintable
    inkscape:connector-curvature="0"
    sodipodi:nodetypes="cssccscccsccccsc"
    inkscape:label="#path1269" />
  <path
    style="opacity:1;fill:#cccccc;fill-opacity:1;stroke:none;stroke-width:0.5;stroke-miterlimit:4;stroke-dasharray:none;stroke-opacity:1"
    id="eye"
    sodipodi:type="arc"
    sodipodi:cx="243.3925"
    sodipodi:cy="156.44655"
    sodipodi:rx="5.2916665"
    sodipodi:ry="5.2916665"
    sodipodi:start="1.4900557"
    sodipodi:end="1.4889002"
    d="m 243.81929,161.72098 a 5.2916665,5.2916665 0 0 1 -5.70109,-4.84612 5.2916665,5.2916665 0 0 1 4.84447,-5.70249 5.2916665,5.2916665 0 0 1 5.70389,4.84282 5.2916665,5.2916665 0 0 1 -4.84118,5.70529 l -0.43288,-5.27393 z"
    inkscape:label="#path1271" />
  <path
    style="opacity:1;fill:#1a1a1a;fill-opacity:1;stroke:none;stroke-width:0.5;stroke-miterlimit:4;stroke-dasharray:none;stroke-opacity:1"
    id="iris"
    sodipodi:type="arc"
    sodipodi:cx="244.98593"
    sodipodi:cy="156.68347"
    sodipodi:rx="2.9733734"
    sodipodi:ry="2.4054255"
    sodipodi:start="1.4900557"
    sodipodi:end="1.4889002"
    d="m 245.22574,159.08106 a 2.9733734,2.4054255 0 0 1 -3.20343,-2.20289 2.9733734,2.4054255 0 0 1 2.7221,-2.59218 2.9733734,2.4054255 0 0 1 3.205,2.2014 2.9733734,2.4054255 0 0 1 -2.72024,2.59345 l -0.24324,-2.39737 z"
    inkscape:label="#path1273" />
</svg>
