<svg class="art fox"
  width="900px" height="740px" viewBox="0 0 200 240"
  style="fill:#fff;stroke:#000; stroke-opacity: 1;">
      <path id="inner_ears" paintable expect="white" title="fox inner ears"
         d="m 145.33184,78.435268 c 0,0 0.66146,2.078868 0.28348,3.874254 -0.37797,1.795388 -5.48065,8.976934 -5.29166,14.741072 0.18899,5.764136 -0.18899,12.095236 15.7805,16.819936 15.9695,4.72471 14.93006,10.77232 19.27679,10.86682 4.34673,0.0945 8.12649,-0.47247 12.00075,-5.48066 3.87425,-5.00818 3.87425,-12.5677 5.38616,-15.68601 1.5119,-3.1183 3.96875,-6.898062 3.96875,-6.898062 0,0 -10.01637,0.09449 -15.02456,3.118303 -5.00818,3.023809 -5.85863,5.669639 -9.82738,4.535719 -3.96875,-1.13393 -16.81994,-5.291671 -17.57589,-6.992563 -0.75596,-1.700893 -0.18899,-6.803573 -1.70089,-9.921875 -1.51191,-3.118305 -7.27605,-8.976934 -7.27605,-8.976934 z"
         style="fill:#e6e6e6;">
      </path>
      <path
         id="head" paintable title="fox head"
         d="m 129.74032,115.85491 c 0,0 0.94495,-2.45685 2.55134,-3.68527 1.6064,-1.22842 2.92932,-1.84263 2.92932,-1.84263 0,0 -3.07105,1.74814 -3.59077,2.22061 -0.51972,0.47247 -1.6064,2.03162 -1.6064,2.03162 0,0 -1.18118,-0.75595 -0.94494,-1.55915 0.23623,-0.8032 4.11049,-4.34673 5.81138,-4.8192 1.70089,-0.47247 5.43341,-0.37798 7.65402,-1.84263 2.22061,-1.46466 4.86644,-5.05543 6.18936,-6.00037 1.32292,-0.944945 3.2128,-1.748146 3.2128,-1.748146 0,0 -1.6064,-0.28348 -3.68527,0.330729 -2.07887,0.614212 -4.15774,1.133927 -4.15774,1.133927 0,0 4.25223,-3.779759 7.60677,-4.346724 3.35454,-0.566962 6.00037,-0.141741 6.00037,-0.141741 0,0 -1.65364,-0.377976 -3.1183,-0.33073 -1.46466,0.04725 -3.96875,0.519715 -3.96875,0.519715 0,0 2.6126,-3.23364 9.46694,-1.903212 0.6024,0.116925 -2.04623,-0.912617 -7.14234,0.168389 -0.15558,-8.282348 -8.4189,-16.147965 -7.42779,-15.54406 10.11404,6.162699 13.98563,15.188203 15.11956,15.530744 4.53571,1.370163 7.98475,3.165549 7.98475,3.165549 0,0 0.0472,-0.850445 -1.18118,-2.078868 -1.22842,-1.228423 -1.93713,-2.362351 -1.93713,-2.362351 0,0 3.11831,1.370163 4.39398,2.976563 1.27567,1.606399 2.22061,3.212795 2.22061,3.212795 0,0 0.28348,-1.370163 0.0945,-2.409597 -0.18899,-1.039434 -0.28348,-2.645833 -0.28348,-2.645833 0,0 1.27567,3.921503 2.45684,5.291666 1.18118,1.370165 1.7009,2.315105 1.7009,2.315105 l -1.32292,1.13393 2.83482,-2.22061 c 0,0 3.40179,-2.031623 6.80357,-3.023811 3.40179,-0.992187 12.33148,-0.708705 12.33148,-0.708705 0,0 -8.26823,0.04725 -13.13468,4.110496 -4.86644,4.06324 -6.70907,7.70126 -6.70907,7.70126 0,0 2.17336,3.2128 2.22061,5.95313 0.0472,2.74033 -0.14175,7.32329 -0.14175,7.32329 0,0 1.84264,1.08668 2.69308,4.91369 0.85045,3.82701 0.61422,4.6302 0.61422,4.6302 0,0 -0.56697,-1.22842 -1.22843,-2.17336 -0.66145,-0.94494 -1.03943,-1.27567 -1.03943,-1.27567 0,0 2.17336,3.07106 2.17336,4.86645 0,1.79538 -0.0945,4.11049 -0.0945,4.11049 0,0 -2.31511,0 -4.06325,0.42522 -1.74814,0.42522 -7.27604,2.45685 -12.99293,3.02381 -5.71689,0.56696 -13.65439,-0.18899 -18.1901,-2.69308 -4.53572,-2.50409 -9.02418,-6.09487 -11.24479,-10.44159 -2.22061,-4.34673 -2.26786,-6.99256 -3.35454,-8.55171 -1.08668,-1.55916 -2.5041,-2.74033 -2.5041,-2.74033 z"
         style="fill:#e6e6e6;" />
      <path
         id="chest" title="fox chest"
         paintable expect="white"
         d="m 125.15737,167.25967 c 0,0 10.58333,0.94494 13.74888,-0.66146 3.16555,-1.6064 5.10268,-4.15773 5.10268,-4.15773 0,0 -1.6064,1.93712 -2.55134,2.55133 -0.94494,0.61421 -1.90372,1.72382 -1.90372,1.72382 0,0 3.73014,-0.62805 5.24204,-1.90372 2.94848,-2.21111 3.93772,-6.76541 3.93772,-6.76541 l -1.27567,5.10268 c 0,0 2.55134,-2.59859 3.1183,-3.73252 1.72452,-4.25222 1.88989,-7.22879 1.88989,-7.22879 0,0 0.94493,0.75595 0.99218,1.84263 0.0473,1.08668 0.28348,2.4096 0.28348,2.4096 0,0 1.03944,-2.17336 0.94494,-4.11049 -0.0945,-1.93713 -0.85044,-6.00037 -0.85044,-6.00037 0,0 0.18899,1.55915 0.75595,2.4096 0.56696,0.85044 1.13393,1.5119 1.13393,1.5119 0,0 -0.94494,-3.96875 -0.18899,-6.18936 0.75595,-2.22061 1.27567,-3.35454 1.79539,-3.77976 0.51971,-0.42522 3.07105,-2.07887 3.44903,-3.30729 0.37798,-1.22842 0.0945,-4.44122 0.0945,-4.44122 0,0 0.56696,1.18117 0.56696,1.98437 0,0.8032 -0.28348,1.55916 -0.28348,1.55916 0,0 1.60639,-2.78758 1.32291,-4.96094 -0.28348,-2.17337 -2.12611,-4.29948 -2.12611,-4.29948 0,0 -2.31511,-1.6064 -2.45685,-3.30729 -0.14174,-1.7009 0.0472,-4.67746 -1.41741,-5.95313 -1.46466,-1.27567 -3.35454,-2.88207 -4.86644,-2.26786 -1.51191,0.61422 -2.55134,1.37017 -4.20499,1.51191 -1.65364,0.14174 -3.63802,0.0945 -4.29948,0.75595 -0.66145,0.66146 -0.89769,2.92932 -0.8032,3.59078 0.0945,0.66145 -0.14174,1.6064 -0.33073,2.12611 -0.18898,0.51972 -1.41741,3.11831 -1.22842,4.8192 0.18899,1.70089 2.07887,6.18936 2.07887,6.18936 0,0 -1.6064,-0.37798 -2.22061,-0.8032 -0.61421,-0.42522 -18.66257,28.5372 -18.66257,28.5372 z"
         style="fill:#e6e6e6;">
        <title
           id="title1159">chest</title>
      </path>
      <path id="tail_tip" paintable expect="white" title="fox tail tip"
         d="m 43.278274,123.60342 c 0,0 -8.315476,6.61458 -14.930059,6.14211 -6.614584,-0.47247 -10.583334,-3.30729 -10.583334,-3.30729 0,0 1.700893,16.91444 16.630952,18.89881 14.930059,1.98438 19.276785,-0.66146 19.276785,-0.66146 l -5.669643,-20.41071 z"
         style="fill:#e6e6e6;"
         >
      </path>
      <path
         id="paw_br"
         paintable expect="white" title="fox paw"
         d="m 54.523065,149.02232 c 0,0 -3.307291,6.89807 -3.023809,11.1503 0.283483,4.25223 1.795386,8.31547 6.331101,7.55952 4.535715,-0.75595 3.307291,-1.5119 3.307291,-1.5119 0,0 2.362351,1.70089 4.157737,0.66145 1.795388,-1.03943 2.267857,-2.92931 2.267857,-2.92931 0,0 2.456847,-2.26786 1.700893,-3.96875 -0.755952,-1.70089 -5.197171,-2.07887 -5.197171,-2.07887 v -1.6064 c 0,0 -1.984375,0.28348 -3.685267,-2.07887 -1.700895,-2.36235 -3.118305,-4.34672 -3.118305,-4.34672 l 0.755951,3.68526 c 0,0 -1.984375,-1.22842 -2.173361,-2.17336 -0.188989,-0.94494 -1.322917,-2.36235 -1.322917,-2.36235 z"
         style="fill:#e6e6e6;">
      </path>
      <path
         id="paw_fr"
         paintable expect="white" title="fox paw"
         d="m 112.35342,167.63765 c 0,0 2.17336,9.63839 2.74033,10.29985 0.56696,0.66145 8.50446,9.82738 12.37872,8.59895 1.5119,-0.33073 1.79539,-1.22842 1.79539,-1.22842 0,0 0.47246,0.94494 1.6064,0.75596 1.13392,-0.18899 1.98437,-1.13393 1.98437,-1.13393 0,0 1.5119,0.75595 2.26786,0.18898 0.75595,-0.56696 4.53571,-5.38616 3.40178,-7.37053 -1.13392,-1.98438 -3.77976,-1.70089 -3.77976,-1.70089 0,0 -0.28348,-1.32292 -3.2128,-1.41742 -2.92931,-0.0945 -3.49628,0.75596 -3.49628,0.75596 0,0 -0.85044,-0.94494 -1.6064,-2.26786 -0.75595,-1.32292 -1.03943,-1.88988 -1.03943,-1.88988 0,0 -1.32292,0.47247 -3.2128,-0.47247 -1.88988,-0.94494 -3.49628,-1.88988 -3.49628,-1.88988 l 1.03944,2.64583 c 0,0 -2.26786,-0.66146 -4.06325,-1.79538 -1.79538,-1.13393 -3.30729,-2.07887 -3.30729,-2.07887 z"
         style="fill:#e6e6e6;">
      </path>
      <path
         id="paw_fl"
         paintable expect="white" title="fox paw"
         d="m 152.27681,175.05828 c 0,0 2.53906,1.06907 3.00678,1.73725 0.46773,0.66817 5.27858,4.07586 7.684,4.14267 2.40543,0.0668 4.00904,-1.67043 4.00904,-1.67043 0,0 0.40091,1.1359 1.33635,0.93544 0.93545,-0.20045 1.73726,-1.13589 1.73726,-1.13589 0,0 1.06907,0.86862 1.87088,0.4009 0.80181,-0.46772 1.87089,-2.3386 1.87089,-2.3386 0,0 2.87314,-4.6104 0.66817,-6.41447 -2.20497,-1.80407 -3.0736,-0.46773 -3.0736,-0.46773 0,0 -1.46998,-1.80407 -3.27405,-1.46998 -1.80407,0.33409 -4.34313,1.73725 -4.34313,1.73725 0,0 -3.00678,-1.80407 -4.20949,-3.14041 -1.20272,-1.33635 -3.0736,-3.34087 -3.0736,-3.34087 0,0 -1.73726,1.40316 -2.20498,3.94222 -0.46772,2.53906 -0.66817,4.81085 -0.66817,4.81085 l -0.93544,-2.60587 c 0,0 -0.40091,1.40316 -0.46772,2.20497 -0.0668,0.80181 0.0668,2.6727 0.0668,2.6727 z"
         style="fill:#e6e6e6;">
      </path>
      <path
         id="paw_bl"
         paintable expect="white" title="fox paw"
         d="m 114.79226,177.73097 c 0,0 -4.81085,-0.26727 -6.01356,-1.00226 -1.20272,-0.73499 -5.67948,-4.00904 -5.67948,-4.00904 0,0 0.13363,-1.87089 0.93544,-2.53906 0.80181,-0.66818 1.1359,0.0668 1.1359,0.0668 0,0 2.13815,-0.86862 2.20497,-1.13589 0.0668,-0.26727 -0.73499,-0.66818 -0.73499,-0.66818 0,0 1.40317,-1.20271 2.00452,-1.20271 1.38049,-0.30974 2.3569,-0.0565 3.67496,0.33409 z"
         style="fill:#e6e6e6;">
      </path>
      <path
         id="leg_bl" title="fox leg"
         paintable expect="orange"
         d="m 102.96558,172.71967 c 0,0 -3.274047,-3.47451 -5.813108,-4.67722 -2.539061,-1.20271 -6.34765,-3.20723 -6.280833,-4.14268 0.06682,-0.93544 -0.400904,-1.73725 0.46772,-2.47224 0.868627,-0.73499 2.80633,-1.80407 3.474506,-2.87315 0.668173,-1.06907 0.868624,-3.27405 0.868624,-3.27405 l 12.895751,8.55263 -2.67269,1.33634 c 0,0 1.06908,0.0668 1.73725,0.53454 0.66817,0.46772 1.73725,1.40317 1.73725,1.40317 0,0 -1.13589,0 -1.46998,0.33408 -0.33409,0.33409 -1.33635,0.80181 -1.33635,0.80181 l 0.80181,0.80181 -2.00452,1.20271 c 0,0 -1.00226,-0.86862 -1.73725,0.33409 -0.73499,1.20271 -0.66818,2.13816 -0.66818,2.13816 z"
         style="fill:#e6e6e6;">
      </path>
      <path
         id="eye_ball_l"
         d="m 158.93899,118.87872 c 0,0 1.41741,3.02381 4.06324,3.40178 2.64583,0.37798 4.53572,-0.18898 4.8192,-0.85044 0.28348,-0.66146 2.83482,-3.87426 1.13393,-7.65402 -1.7009,-3.77976 -4.63021,-3.49628 -7.46504,-0.56696 -2.83482,2.92931 -2.55133,5.66964 -2.55133,5.66964 z"
         style="fill:white;" />
      <path
         id="eye_ball_r"
         d="m 141.36309,111.79166 c 0,0 2.17337,0.75596 3.11831,1.51191 0.94494,0.75595 2.07887,2.64583 4.06324,1.88988 1.98438,-0.75595 3.49628,-4.7247 2.64583,-7.27604 -0.85044,-2.55134 -2.64583,-3.30729 -3.87425,-2.83482 -1.22842,0.47247 -3.59077,3.40178 -3.59077,4.91369 0,1.5119 0.66145,3.40178 0.66145,3.40178 0,0 -0.28348,-0.56696 -1.13393,-1.13392 -0.85044,-0.56697 -1.88988,-0.47248 -1.88988,-0.47248 z"
         style="fill:white;" />
      <path
         id="path959"
         d="m 165.83705,107.82291 c 0,0 2.92932,-3.96875 5.10268,-2.26785 2.17336,1.70089 1.70089,6.52009 1.70089,6.52009 0,0 0.0945,-3.11831 -2.45684,-4.25224 -2.55134,-1.13392 -4.34673,0 -4.34673,0 z"
         style="fill:#1a1a1a;" />
      <path
         id="path961"
         d="m 148.63914,102.05878 c 0,0 2.83482,-3.401787 4.25223,-2.267859 1.41741,1.133929 2.07887,6.898069 1.88988,7.843009 -0.18899,0.94494 -0.0945,1.6064 -1.03943,4.15773 -0.66147,1.79539 -1.79539,3.49628 -1.79539,3.49628 0,0 1.70089,-2.64583 1.70089,-5.10267 0,-2.45685 0.0945,-6.80358 -1.22842,-7.74852 -1.32292,-0.94494 -3.77976,-0.37797 -3.77976,-0.37797 z"
         style="fill:#1a1a1a;" />
      <path
         id="leg_fl"
         paintable expect="orange" title="fox leg"
         d="m 141.92012,166.17156 c 0,0 2.40542,-0.66817 4.14268,-2.67269 1.73725,-2.00452 2.67269,-5.61266 2.67269,-5.61266 l -1.20271,5.34539 c 0,0 2.53906,-2.73951 3.34087,-4.74403 0.80181,-2.00453 1.00226,-3.07361 1.00226,-3.07361 0,0 1.20271,3.40769 2.00452,4.67722 0.80181,1.26953 2.53906,3.94223 2.53906,3.94223 0,0 -1.60362,1.73725 -2.13816,3.27405 -0.53454,1.5368 -0.60135,5.34539 -0.60135,5.34539 l -1.00226,-2.73951 -0.60136,2.20497 0.26727,2.93997 c 0,0 -1.67044,-0.93545 -2.40543,-1.06908 -0.73499,-0.13364 -1.40316,0.26727 -1.67043,0.26727 -0.26727,0 -2.60588,-3.80859 -4.27631,-5.67948 -1.67044,-1.87089 -2.07134,-2.40543 -2.07134,-2.40543 z"
         style="fill:#e6e6e6;">
        <title
           id="title1163">leg</title>
      </path>
      <path
         id="body_fur" title="fox body fur"
         paintable expect="orange"
         d="m 117.83408,148.78608 c 0,0 -1.37017,1.79539 -2.88207,2.78758 -1.51191,0.99219 -3.59078,2.17336 -3.73252,2.64583 -0.14174,0.47247 -0.56696,3.59078 -0.14174,6.04762 0.42522,2.45684 1.27567,7.37054 1.27567,7.37054 0,0 2.69308,1.98437 3.96875,2.45684 1.27567,0.47247 3.44903,1.46466 3.44903,1.46466 l -1.32291,-2.88207 c 0,0 3.77976,2.4096 5.19717,2.69308 1.41741,0.28348 1.65365,-0.18899 1.65365,-0.18899 0,0 -0.47247,-2.07887 -0.28349,-4.34672 0.18899,-2.26786 0.47248,-4.20499 0.47248,-4.20499 l -1.7009,0.70871 c 0,0 5.5279,-2.22061 9.44941,-4.67746 3.9215,-2.45684 5.48065,-5.76413 5.48065,-5.76413 l -0.94494,2.74032 c 0,0 2.4096,-2.12611 2.88207,-3.82701 0.47247,-1.70089 0.42522,-4.77195 0.42522,-4.77195 0,0 0.99219,1.7009 0.99219,2.5041 0,0.8032 -0.14174,2.78757 -0.14174,2.78757 0,0 1.93713,-3.16555 0.8032,-7.41778 -1.13393,-4.25223 -2.83482,-7.65402 -2.74033,-9.11868 0.0945,-1.46465 0.36986,-2.39338 0.36986,-2.39338 l -2.39002,-2.54323 c 0,0 -4.68892,2.33803 -6.81503,2.05454 -2.12612,-0.28348 -7.9375,-2.64583 -14.55209,-6.47284 -6.61458,-3.82701 -12.52046,-7.27604 -17.85937,-7.1343 -5.338914,0.14174 -10.819569,2.64583 -15.449778,7.03981 -4.630208,4.39397 -12.095239,16.5837 -12.095239,16.5837 l 2.882069,-4.53571 c 0,0 -1.748139,1.88988 -3.307291,1.79539 -1.559153,-0.0945 -4.724702,-2.78758 -6.756323,-2.26786 -2.031625,0.51972 -3.165552,0.94494 -6.047621,4.86644 -2.882067,3.92151 -3.496278,6.18936 -3.496278,6.18936 0,0 1.27567,1.6064 1.370163,1.93713 0.09449,0.33073 0.236236,0.99219 0.236236,0.99219 l 1.889879,1.74814 -0.566963,-3.77976 c 0,0 3.212796,4.96093 4.204984,5.62239 0.992187,0.66146 2.4096,0.8032 2.4096,0.8032 0,0 1.133927,-2.97656 2.126115,-3.82701 0.992187,-0.85044 2.882069,-1.88988 2.882069,-1.88988 l -1.511906,-1.18117 2.55134,1.93712 c 0,0 5.716889,4.25224 11.339285,4.44122 5.622395,0.18899 13.323662,-4.34672 15.166294,-5.4334 1.842635,-1.08668 7.181545,-5.05543 7.181545,-5.05543 l -1.18117,1.22842 c 0,0 1.88988,0.61421 2.78757,1.79538 0.89769,1.18118 3.11831,3.40179 3.11831,3.40179 l -1.08669,-3.30729 5.14993,4.8192 c 0,0 2.12612,-1.27567 3.35454,-2.4096 1.22842,-1.13393 1.93713,-2.03163 1.93713,-2.03163 z"
         style="fill:#e6e6e6;">
      </path>
      <path
         id="belly"
         paintable expect="white" title="fox belly"
         d="m 90.761533,153.46354 c 0,0 3.543525,0.70871 4.913688,1.55915 1.370166,0.85045 12.992929,8.78795 12.992929,8.78795 0,0 1.55915,0.61421 2.5041,1.41741 0.94494,0.8032 0.89769,0.99219 0.89769,0.99219 0,0 -1.08668,-6.3311 -1.13393,-6.75633 -0.0472,-0.42522 0.14174,-5.29166 0.14174,-5.29166 l 1.51191,-1.03944 -5.14993,-4.7247 1.08668,3.07105 -2.69308,-2.55133 -0.75595,-1.03944 c 0,0 -1.18118,-0.70871 -1.65365,-0.89769 -0.47247,-0.18899 -1.22842,-0.51972 -1.22842,-0.51972 0,0 -3.77976,2.88207 -5.338912,3.77976 -1.559153,0.89769 -6.094865,3.2128 -6.094865,3.2128 z"
         style="fill:#e6e6e6;">
      </path>
      <path
         id="tail" title="fox tail"
         paintable expect="orange" paintable
         d="m 88.332579,122.33936 c 0,0 -14.566191,-10.15624 -20.312486,-9.75534 -5.746295,0.40091 -24.588795,11.09169 -24.588795,11.09169 0,0 -1.145212,1.39237 -1.523188,2.33731 -0.377975,0.94494 -0.897694,2.50409 -0.897694,2.50409 0,0 1.700893,-1.70089 2.598587,-2.17336 0.897694,-0.47247 2.929316,-1.13393 2.929316,-1.13393 0,0 -3.449035,3.96875 -3.685268,5.81138 -0.236236,1.84264 0.377976,7.18155 0.377976,7.18155 0,0 0.236233,-2.26786 0.944941,-2.83482 0.708705,-0.56696 1.41741,-1.03943 1.41741,-1.03943 0,0 0.330729,5.29166 2.598586,6.94531 2.267858,1.65364 5.338914,3.44903 5.338914,3.44903 l 4.677455,-2.22061 c 0,0 2.173364,-3.44903 4.015996,-4.016 1.842635,-0.56696 2.456847,-0.8032 3.165552,-0.7087 0.708705,0.0945 1.842632,0.37797 1.842632,0.37797 0,0 2.645834,-1.41741 4.157739,-1.98437 1.511904,-0.56697 5.008185,-1.46466 5.008185,-1.46466 0,0 5.575149,-7.32329 7.087052,-8.55171 1.511906,-1.22842 4.84709,-3.8154 4.84709,-3.8154 z"
         style="fill:#e6e6e6;">
      </path>
      <path
         id="path1051"
         d="m 145.47358,128.56436 c 0,0 -0.42522,1.79539 -0.99218,2.36235 -0.56697,0.56696 -1.08668,2.64583 1.46465,4.11049 2.55134,1.46466 3.82701,1.13393 4.48847,0.85045 0.66146,-0.28349 1.6064,-0.94494 1.6064,-0.94494"
         style="fill:none;" />
      <path
         id="path1053"
         d="m 142.35528,121.85528 c 0,0 0.66146,2.5041 1.18118,2.97657 0.51971,0.47247 1.45368,1.30858 2.02064,1.21408 0.56697,-0.0945 1.94811,-0.88336 2.32608,-0.83611 0.37798,0.0473 2.36235,3.1183 3.02381,3.40178 0.66146,0.28349 1.93713,1.32292 3.11831,1.18118 1.18117,-0.14174 3.30729,-0.7087 3.96875,-1.13393 0.66145,-0.42522 1.88988,-1.98437 1.88988,-1.98437 0,0 -0.8977,1.6064 -1.46466,2.12611 -0.56697,0.51972 -3.40179,1.18118 -3.9215,1.55916 -0.51972,0.37797 -3.26005,2.83482 -4.34673,2.83482 -1.08668,0 -3.68527,-0.85045 -3.82701,-1.46466 -0.14174,-0.61421 0.56696,-1.32292 0.94494,-2.4096 0.37798,-1.08668 -0.28348,-3.30729 -0.28348,-3.30729 0,0 -1.46466,0.37798 -1.84263,0.42522 -0.37798,0.0473 -1.88989,-1.08668 -2.26786,-1.79539 -0.37798,-0.7087 -0.51972,-2.78757 -0.51972,-2.78757 z"
         style="fill:#1a1a1a;" />
      <path
         id="path1055"
         d="m 150.57626,129.98177 c 0,0 -0.23623,-0.56696 -1.13393,-0.56696 -0.89769,0 -2.50409,1.08668 -2.55134,1.60639 -0.0472,0.51972 0.56697,1.18118 1.55916,1.32292 0.99218,0.14174 2.07887,0.33073 2.74032,0.0472 0.66146,-0.28348 2.03163,-1.13393 2.07887,-1.41741 0.0472,-0.28348 -0.14174,-0.85045 -0.89769,-0.99219 -0.75595,-0.14174 -1.79539,0 -1.79539,0 z"
         style="fill:#d40000;" />
      <path
         transform="rotate(14.176272)"
         d="m 185.80726,77.619421 a 2.5277157,3.1183035 0 0 1 -2.72329,-2.855747 2.5277157,3.1183035 0 0 1 2.3141,-3.360397 2.5277157,3.1183035 0 0 1 2.72463,2.853805 2.5277157,3.1183035 0 0 1 -2.31253,3.362046 l -0.20678,-3.107852 z"
         sodipodi:end="1.4889002"
         sodipodi:start="1.4900557"
         sodipodi:ry="3.1183035"
         sodipodi:rx="2.5277157"
         sodipodi:cy="74.511276"
         sodipodi:cx="185.60339"
         sodipodi:type="arc"
         id="path1057"
         style="opacity:1;fill:#000;fill-opacity:1;stroke:none;stroke-width:0.29510174;stroke-miterlimit:4;stroke-dasharray:none;stroke-opacity:1" />
      <path
         inkscape:transform-center-y="5.1450271"
         inkscape:transform-center-x="-11.516645"
         transform="matrix(0.96991654,0.24343769,-0.24638181,0.96917285,0,0)"
         d="m 169.1806,75.039864 a 2.3872321,2.9284711 0 0 1 -2.57193,-2.681897 2.3872321,2.9284711 0 0 1 2.18549,-3.155827 2.3872321,2.9284711 0 0 1 2.57319,2.680074 2.3872321,2.9284711 0 0 1 -2.184,3.157376 l -0.19528,-2.918656 z"
         sodipodi:end="1.4889002"
         sodipodi:start="1.4900557"
         sodipodi:ry="2.9284711"
         sodipodi:rx="2.3872321"
         sodipodi:cy="72.120934"
         sodipodi:cx="168.98807"
         sodipodi:type="arc"
         id="path1057-3"
         style="display:inline;opacity:1;fill:#000000;fill-opacity:1;stroke:none;stroke-width:0.29510242;stroke-miterlimit:4;stroke-dasharray:none;stroke-opacity:1" />
      <path
         id="path1076"
         d="m 151.34137,122.8739 c 0,0 1.75594,-1.06627 1.9377,-2.33861 0.4009,-2.80633 -6.01356,-3.94222 -7.28309,-2.20497 -1.26953,1.73725 0.53454,5.14494 1.87089,5.34539 1.33634,0.20045 3.4745,-0.80181 3.4745,-0.80181 z"
         style="fill:#1a1a1a;" />
</svg>
