<?xml version="1.0" encoding="UTF-8" standalone="no"?>
<svg
   xmlns:dc="http://purl.org/dc/elements/1.1/"
   xmlns:cc="http://creativecommons.org/ns#"
   xmlns:rdf="http://www.w3.org/1999/02/22-rdf-syntax-ns#"
   xmlns:svg="http://www.w3.org/2000/svg"
   xmlns="http://www.w3.org/2000/svg"
   xmlns:sodipodi="http://sodipodi.sourceforge.net/DTD/sodipodi-0.dtd"
   xmlns:inkscape="http://www.inkscape.org/namespaces/inkscape"
   width="350"
   height="500"
   viewBox="0 0 92.604165 132.29167"
   version="1.1"
   id="svgLilly"
   inkscape:version="0.92.3 (2405546, 2018-03-11)"
   sodipodi:docname="grandpa.svg">
  <defs
     id="defs2" />
  <sodipodi:namedview
     id="base"
     pagecolor="#ffffff"
     bordercolor="#666666"
     borderopacity="1.0"
     inkscape:pageopacity="0.0"
     inkscape:pageshadow="2"
     inkscape:zoom="0.69999999"
     inkscape:cx="-200.84329"
     inkscape:cy="275.03899"
     inkscape:document-units="mm"
     inkscape:current-layer="g2034"
     showgrid="false"
     inkscape:pagecheckerboard="false"
     showguides="true"
     inkscape:snap-global="false"
     inkscape:window-width="1366"
     inkscape:window-height="713"
     inkscape:window-x="0"
     inkscape:window-y="27"
     inkscape:window-maximized="1"
     units="px" />
  <metadata
     id="metadata5">
    <rdf:RDF>
      <cc:Work
         rdf:about="">
        <dc:format>image/svg+xml</dc:format>
        <dc:type
           rdf:resource="http://purl.org/dc/dcmitype/StillImage" />
        <dc:title></dc:title>
      </cc:Work>
    </rdf:RDF>
  </metadata>
  <g
     inkscape:label="Layer 1"
     inkscape:groupmode="layer"
     id="layer1"
     transform="translate(0,-164.70832)">
    <g
       id="g979"
       transform="translate(-13.779441,-3.7607682)">
      <g
         id="g2034"
         transform="matrix(0.81990925,0,0,0.81990925,2.6452279,46.554022)">
        <path
           style="fill:#e4c2b0;fill-opacity:1;fill-rule:evenodd;stroke:none;stroke-width:0.27665532px;stroke-linecap:butt;stroke-linejoin:miter;stroke-opacity:1"
           d="m 62.655998,188.99822 2.375447,12.22655 c 0,0 1.746649,1.95625 4.401558,2.16585 2.654909,0.2096 5.239952,-2.30558 5.239952,-2.30558 l 1.606919,-11.59776 c 0,0 -1.117856,-1.53705 -6.357808,-1.32745 -5.239951,0.20959 -7.266068,0.83839 -7.266068,0.83839 z"
           id="path3959"
           inkscape:connector-curvature="0" />
        <path
           style="fill:#60cac5;fill-opacity:1;fill-rule:evenodd;stroke:none;stroke-width:0.27665532px;stroke-linecap:butt;stroke-linejoin:miter;stroke-opacity:1"
           d="m 47.045002,236.63052 c 0,0 8.991298,6.32354 19.267066,5.13788 10.27577,-1.18567 15.51246,-3.85342 15.51246,-3.85342 l 4.545051,16.30291 c 0,0 3.557,4.34744 1.086863,9.38652 -2.470139,5.03908 -5.335497,8.29966 -5.335497,8.29966 0,0 -3.754609,2.56894 -9.090104,1.8773 -5.335494,-0.69164 -6.916382,-2.37132 -6.916382,-2.37132 l -0.790443,-4.14984 c 0,0 -2.964166,8.59608 -14.524408,7.70683 -11.56024,-0.88925 -11.362628,-10.57219 -11.263823,-16.2041 0.0988,-5.63191 7.509217,-22.13242 7.509217,-22.13242 z"
           id="path4042"
           inkscape:connector-curvature="0"
           sodipodi:nodetypes="csccsccccssc" />
        <path
           style="fill:#e4c2b0;fill-opacity:1;fill-rule:evenodd;stroke:none;stroke-width:0.27665532px;stroke-linecap:butt;stroke-linejoin:miter;stroke-opacity:1"
           d="m 70.485599,156.17468 c -21.897112,-0.26882 -16.820863,19.59174 -16.820863,19.59174 0,0 -5.671644,-2.39 -4.643701,2.1738 1.318479,5.85369 6.422509,4.69287 6.422509,4.69287 0,0 4.199233,11.56039 15.561863,11.26397 11.36263,-0.2964 14.474693,-10.12763 14.474693,-10.12763 0,0 3.872748,1.07988 5.434767,-2.32185 2.223122,-4.84147 -3.507905,-3.80401 -3.507905,-3.80401 0,0 5.189366,-20.59199 -15.857969,-21.44079 -0.361295,-0.0146 -0.715821,-0.0238 -1.063394,-0.0281 z m -6.711594,17.06888 c 0,0 2.550144,0.0346 2.200814,3.14371 -0.523993,3.66797 -4.226964,2.93474 -4.40163,0.0702 -0.174664,-2.86451 2.200816,-3.21396 2.200816,-3.21396 z m 15.49864,0.32636 c 0,0 2.445294,0.10483 1.991163,3.49332 -0.523993,3.66797 -4.226961,2.93474 -4.40163,0.0702 -0.244527,-3.42344 2.410467,-3.56356 2.410467,-3.56356 z m 35.235195,8.05002 c -0.79464,-0.10514 -5.51852,5.48394 -5.51852,5.48394 0,0 -0.0917,-1.22711 0.2934,-2.7028 0.51687,-1.98069 -0.663,-2.07544 -0.663,-2.07544 0,0 -0.40749,1.2746 -1.37841,2.6882 -0.97091,1.41361 -1.393,4.55887 -1.393,4.55887 l 3.4436,3.9245 c 0.44244,-0.28038 2.02782,-0.2635 4.47836,-2.73359 1.52157,-0.98359 5.14859,-4.45346 4.84039,-4.77392 -0.30822,-0.32046 -4.88786,3.39849 -5.12624,3.07941 -0.23835,-0.3191 4.30967,-4.2137 3.83157,-4.78203 -0.47808,-0.56834 -4.79431,3.99496 -4.99979,3.78131 -0.20547,-0.21363 4.17799,-4.63536 3.80401,-5.16675 -0.37398,-0.53138 -4.83005,4.02826 -5.07111,3.84886 -0.24108,-0.1794 4.07231,-4.60204 3.52304,-5.10192 -0.0172,-0.0156 -0.0387,-0.0252 -0.0643,-0.0286 z m -71.414904,65.53328 c 0,0 0.09858,1.43283 0.04918,2.27268 -0.0494,0.83983 -0.345818,2.22327 -0.691638,4.00178 -0.345819,1.77849 -0.09881,6.22474 0.34582,6.22474 0.444626,0 0.938882,-5.87914 1.334104,-5.82976 0.395221,0.0494 0.04948,6.02732 0.790523,6.0767 0.741041,0.0494 0.444391,-6.22475 0.740808,-6.22475 0.296414,0 0.444394,6.22482 1.086627,6.32363 0.642239,0.0988 0.444934,-6.27424 0.741351,-6.32363 0.296416,-0.0494 0.494183,6.12554 1.235224,6.07615 0.741047,-0.0494 -0.04972,-7.16331 -0.04972,-7.16331 0,0 0.346048,1.18605 0.988285,2.56932 0.642239,1.38328 1.82798,0.74081 1.82798,0.74081 0,0 -0.197766,-1.48185 -0.543585,-3.16154 -0.34582,-1.6797 -1.827979,-5.53311 -1.827979,-5.53311 z"
           id="path3938"
           inkscape:connector-curvature="0" />
        <path
           style="fill:#785d4a;fill-opacity:1;fill-rule:evenodd;stroke:none;stroke-width:0.27665532px;stroke-linecap:butt;stroke-linejoin:miter;stroke-opacity:1"
           d="m 68.491193,152.33717 c -0.172137,-0.0154 -0.326596,-1.6e-4 -0.450104,0.0616 -0.494026,0.24701 -1.037535,0.24716 -0.79052,0.54358 0.247011,0.29642 1.03738,0.59298 1.63021,0.8894 0.592834,0.29642 2.272758,0.88925 2.717384,1.38328 0.444623,0.49403 0.741196,0.9879 0.889403,1.18551 0.148209,0.19761 -0.444702,-1.18551 -0.444702,-1.18551 0,0 -1.877302,-1.33418 -2.074915,-1.43299 -0.197612,-0.0988 -0.889402,-0.39499 -0.889402,-0.39499 0,0 0.494103,-0.0496 0.79052,0.14805 0.296417,0.19761 2.2232,1.48209 2.865436,2.07492 0.642236,0.59283 1.235147,1.53172 1.482158,2.02574 0.247015,0.49403 0.493874,1.67938 0.493874,1.67938 l 1.284395,-0.39498 c 0,0 -2.420812,-4.24903 -3.211255,-4.64425 -0.790442,-0.39522 -1.975729,-1.13626 -2.617959,-1.38328 -0.481679,-0.18525 -1.158109,-0.50915 -1.674523,-0.55546 z m -4.257357,0.35716 c -0.601615,-4.7e-4 -1.311794,0.0691 -2.02196,0.1 -1.136263,0.0494 0.296259,0.98799 0.493871,1.2844 0.197609,0.29641 1.87707,0.54343 2.815726,0.69164 0.938653,0.14821 1.92686,1.33357 1.92686,1.33357 0,0 -0.69187,-0.98799 -0.988288,-1.2844 -0.296417,-0.29641 -3.260424,-0.8891 -3.260424,-1.18551 0,-0.29641 1.630291,0.19744 2.420734,0.14806 0.790446,-0.0494 2.173797,1.77865 3.211255,2.6185 1.037457,0.83984 1.482158,2.42073 1.482158,2.42073 l 0.197767,0.19777 1.481617,0.2961 c 0,0 0.09927,-0.44463 -0.09834,-0.69164 -0.197615,-0.24702 -0.840155,-1.33387 -1.432988,-2.07491 -0.592831,-0.74104 -1.630137,-1.53148 -2.56879,-2.42074 -0.938652,-0.88924 -2.025742,-1.13595 -2.717381,-1.33357 -0.259364,-0.0741 -0.580849,-0.0997 -0.941817,-0.1 z m -3.184779,1.5805 c -0.69866,0 -2.026284,0.90848 -2.026284,1.53728 0,0.62879 1.677223,1.04773 1.677223,1.04773 0,0 -2.166237,0.13962 -2.864897,0.27935 -0.698659,0.13973 -1.117967,1.46757 -1.117967,1.46757 0,0 -1.187675,-0.48933 -1.886335,-0.3496 -0.69866,0.13973 0.349432,2.09572 -0.978021,2.44505 -0.170029,0.0447 -0.305709,0.12388 -0.414983,0.22586 1.005064,0.39879 1.952257,1.31142 1.952257,1.31142 0,0 -1.395037,-0.96054 -2.148943,-1.04719 -0.434824,0.80343 -0.01729,2.23486 -0.01729,2.23486 0,0 -0.838121,-1.7465 -0.349059,-2.16569 0.08291,-0.0711 0.212458,-0.0869 0.36635,-0.0692 0.05306,-0.098 0.115788,-0.18873 0.196685,-0.26423 -0.515087,-0.20437 -1.045231,-0.27661 -1.471352,-0.0162 -1.25759,0.76853 0.838611,4.47188 0.838611,4.47188 0,0 -1.606875,-0.90826 -3.28366,0 -1.676784,0.90825 1.257376,3.28366 1.257376,3.28366 0,0 -2.23594,-1.25764 -2.9346,-0.20966 -0.523,0.78451 0.245966,1.21665 0.665702,1.38437 -0.578571,-0.18473 -2.074821,-0.53906 -2.412088,0.64138 -0.217006,0.75952 0.857864,1.47995 1.945232,1.99981 0.696596,-0.072 2.037091,0.79484 2.037091,0.79484 0,0 -1.023951,-0.31047 -2.037091,-0.79484 -0.230656,0.0238 -0.390576,0.15033 -0.407959,0.44578 -0.06986,1.18772 1.606718,2.09582 3.353368,2.16569 1.746652,0.0699 2.934059,0.90832 2.934059,0.90832 -2e-6,0 -0.838223,-5.65887 2.026282,-12.01668 2.864506,-6.35781 7.33623,-6.77697 7.33623,-6.77697 0,0 -2.026451,-0.69889 -2.655241,-0.83862 -0.628796,-0.13973 -0.558932,-1.39749 0,-1.32761 0.558924,0.0699 1.607304,0.76858 2.16623,0.90831 0.55893,0.13973 3.632723,-0.20965 3.632723,-0.20965 0,0 -1.956371,-0.20971 -3.213955,-0.41931 -1.257591,-0.20959 -1.467031,-1.04773 -2.165694,-1.04773 z m 15.908221,0.77594 c 0.0026,-0.005 -0.0115,0.0157 -0.122657,0.0157 -0.296415,0 -1.234682,0.5435 -1.234682,0.79052 0,0.24701 0.642005,1.18583 0.74081,1.58105 0.09881,0.39522 1.926708,0.44439 2.420734,0.74081 l -0.394991,0.0989 c 0,0 0.987825,-0.0987 1.778268,-0.14806 0.790446,-0.0494 0.09888,-0.24685 0.09888,-0.49387 0,-0.24701 -0.148132,-0.59321 -0.246937,-0.84023 -0.0988,-0.24701 -0.148436,-0.34551 -0.642465,-0.64193 -0.494027,-0.29641 -1.037458,0.0989 -1.037458,0.0989 0,0 -0.691716,-0.14851 -1.136343,-0.74135 -0.277889,-0.37051 -0.227501,-0.45168 -0.223161,-0.46037 z m 4.501594,1.70423 c -0.602593,0.035 -0.917336,0.20975 -0.288542,0.52414 1.257589,0.6288 2.445588,0.41931 2.445588,0.41931 0,0 0.839016,1.31036 1.335729,1.9328 -0.09023,-0.70322 -0.682647,-2.19168 -1.475677,-2.56176 -0.523994,-0.24453 -1.414503,-0.34941 -2.017098,-0.31449 z m 3.492775,2.87625 c 0.029,0.22608 0.0066,0.37284 -0.07835,0.37284 -0.349332,0 -0.908317,0.41876 -0.908317,0.41876 0,0 -0.55904,-1.32725 -1.117967,-1.95604 -0.55893,-0.6288 -0.97802,0.62896 -0.97802,0.62896 0,0 4.401581,3.91231 5.589301,8.24401 1.187722,4.33169 -0.349059,10.54964 -0.349059,10.54964 0,0 1.257653,-0.34949 3.004302,0.0697 1.74665,0.4192 1.397325,2.23594 1.397325,2.23594 0,0 0.419042,0.0696 1.467032,-0.13995 1.047987,-0.2096 0.0697,-1.88633 0.0697,-1.88633 0,0 1.118183,-0.62842 1.257916,-2.72441 0.139733,-2.09598 -2.724945,-1.74693 -2.724945,-1.74693 0,0 0.209546,-0.41908 0.489008,-1.67667 0.279464,-1.2576 -2.30564,-1.04773 -2.30564,-1.04773 0,0 1.886718,-1.11787 1.956582,-2.09599 0.06986,-0.97813 -1.816633,-1.95658 -1.816633,-1.95658 0,0 0.139515,-1.39707 -0.139949,-2.44505 -0.279463,-1.048 -1.956038,-1.39733 -1.956038,-1.39733 0,0 0.419248,-0.14005 0.209652,-1.25791 -0.2096,-1.11786 -1.816632,-1.32709 -1.816632,-1.32709 0,0 0.768476,0.9777 1.187673,1.8161 0.419196,0.83839 -0.978187,0.48928 -0.908315,0.13995 0.06986,-0.34934 -0.838454,-1.04821 -0.908315,-1.53728 -0.06987,-0.48906 -1.11e-4,-0.62853 -0.419308,-1.04772 -0.05575,-0.0557 -0.124807,-0.1374 -0.201006,-0.23289 z m -36.439074,10.21193 c 0.138834,0.0444 0.239912,0.0816 0.239912,0.0816 0,0 -0.100182,-0.0259 -0.239912,-0.0816 z m 19.115694,13.5037 c -0.392868,0.025 -0.636847,0.34396 -0.735948,0.74405 0.247001,0.0163 0.44751,0.0628 0.481987,0.1232 0.01864,0.0326 0.07812,0.12549 0.135627,0.21614 0.05144,-0.14657 0.224943,-0.23149 0.432274,-0.21614 0.333467,0.0247 0.506299,0.56814 0.506299,0.95101 0,0.11581 -0.08628,0.23757 -0.210731,0.35121 0.110781,0.1034 0.22108,0.19262 0.325825,0.26586 0.207611,-0.20358 0.357389,-0.39502 0.391749,-0.48091 0.0988,-0.24702 0.09873,-1.55618 -0.963433,-1.90201 -0.132769,-0.0432 -0.253989,-0.0594 -0.363649,-0.0524 z m 0.935333,2.43533 c -0.133854,0.13124 -0.292026,0.26271 -0.465235,0.3804 0.759853,0.35339 1.681101,0.49322 2.067351,0.0772 0.64223,-0.69164 -0.543586,-2.12462 -0.543586,-2.12462 l -0.03728,0.0124 c 0,0 -0.284064,0.84 -0.08646,1.14876 0.197612,0.30878 -0.234278,0.55555 -0.543045,0.65436 -0.09152,0.0293 -0.234091,-0.0384 -0.391749,-0.14859 z m -0.465235,0.3804 c -0.0897,-0.0418 -0.176966,-0.0858 -0.260985,-0.13293 -0.177248,0.13734 -0.448741,0.30311 -0.785118,0.43174 3.82e-4,9e-5 7e-4,4.4e-4 0.0011,5.4e-4 0.338361,0.0846 0.714314,-0.0747 1.045022,-0.29935 z m -1.046103,0.29881 c -0.198475,-0.0499 -0.389124,-0.1696 -0.561416,-0.32907 -0.163526,0.0178 -0.322558,0.0342 -0.450644,0.0578 -0.263775,0.0486 -0.673921,-0.14097 -1.041242,-0.43336 -0.119391,0.17669 -0.259865,0.3412 -0.392829,0.48199 0.06328,0.0424 0.127508,0.0846 0.199389,0.12428 0.802505,0.44275 1.627823,0.33502 2.246742,0.0983 z m -2.446131,-0.22263 c -0.02405,-0.0161 -0.04901,-0.0316 -0.07186,-0.0481 -0.197339,0.26769 -0.371217,0.46902 -0.371217,0.46902 0,0 0.207434,-0.17141 0.443081,-0.42093 z m -0.07186,-0.0481 c 0.118632,-0.16092 0.244925,-0.34476 0.347979,-0.52629 -0.23945,-0.21115 -0.449639,-0.46433 -0.571141,-0.72135 -0.321119,-0.67928 0.469634,-0.40766 0.741348,-0.0124 0.103405,0.1504 -0.0015,0.43674 -0.170207,0.73378 0.03771,0.0333 0.07777,0.0614 0.116713,0.0924 0.206438,-0.3055 0.345604,-0.64041 0.250719,-0.92507 -0.247015,-0.74106 -1.061695,-0.93873 -1.308708,-0.79051 -0.229911,0.13794 -0.522305,1.34551 0.593297,2.14947 z m 1.956578,-0.0584 c 0.279901,-0.0305 0.570867,-0.0681 0.73919,-0.1675 -0.02152,4.8e-4 -0.0466,0.005 -0.06592,0.003 -0.395222,-0.037 -1.123912,-1.25977 -0.605184,-1.38328 0.10565,-0.0251 0.200683,-0.008 0.285841,0.0378 -0.0097,-0.18157 0.0059,-0.36351 0.04755,-0.5317 -0.460869,-0.0305 -1.092673,0.0485 -1.173082,0.37013 -0.09243,0.36973 0.258163,1.19605 0.771608,1.67128 z m 0.353925,-1.50971 c 0.0123,0.23043 0.06444,0.45905 0.158861,0.65381 0.07172,0.14791 0.201577,0.29635 0.367974,0.43659 -0.0252,-0.31991 -0.200276,-0.91661 -0.526835,-1.0904 z m 0.526835,1.0904 c 4.93e-4,0.006 0.0023,0.0145 0.0027,0.0206 0.0064,0.10274 -0.05061,0.17595 -0.14427,0.23127 0.106562,-0.003 0.234302,-0.0304 0.371213,-0.0794 -0.08232,-0.0556 -0.159347,-0.11312 -0.229643,-0.17237 z m 0.229643,0.17238 c 0.07461,0.0503 0.153904,0.0981 0.236131,0.14427 0.07885,-0.0611 0.142057,-0.117 0.178852,-0.16048 0.04468,-0.0528 0.05795,-0.12983 0.05188,-0.21992 -0.143352,0.097 -0.306833,0.17888 -0.466857,0.23613 z m 0.466856,-0.23613 c 0.06264,-0.0424 0.118806,-0.0865 0.16967,-0.13293 -0.103247,-0.0964 -0.20205,-0.19892 -0.295028,-0.30043 0.06862,0.15835 0.116978,0.30914 0.125358,0.43336 z m -0.125358,-0.43336 c -0.127187,-0.29352 -0.304694,-0.58369 -0.432814,-0.78566 -0.0313,0.0892 -0.01728,0.20131 0.06214,0.32745 0.06785,0.10776 0.20696,0.27949 0.370673,0.45821 z m 7.543179,-1.11851 c -0.04464,-1.3e-4 -0.09239,0.006 -0.143731,0.0178 -0.821422,0.19328 -1.0803,1.49267 -1.059069,1.75179 0.0074,0.0901 0.07515,0.30145 0.182094,0.53278 0.08878,-0.0579 0.184624,-0.13126 0.28368,-0.21829 -0.06575,-0.13035 -0.102855,-0.26332 -0.07997,-0.37824 0.07567,-0.38001 0.305517,-0.89468 0.546827,-0.87212 0.149878,0.014 0.255983,0.12255 0.263689,0.27504 0.05862,-0.0818 0.11976,-0.16535 0.139406,-0.19507 0.03636,-0.055 0.187533,-0.0721 0.365812,-0.0535 0.01027,-0.4689 -0.133958,-0.85912 -0.498737,-0.86022 z m 0.498737,0.86022 c -0.0038,0.17308 -0.03002,0.35591 -0.07295,0.53495 0.06982,-0.0336 0.14136,-0.0386 0.211813,0.002 0.34337,0.19582 -0.414908,1.30666 -0.702444,1.28764 -0.0138,-8.6e-4 -0.03052,-0.009 -0.04539,-0.0124 0.09981,0.12221 0.297869,0.20097 0.490089,0.27071 0.458045,-0.39914 0.869979,-1.17017 0.877518,-1.55024 0.0066,-0.33065 -0.42584,-0.49746 -0.758642,-0.53224 z m -0.118875,2.08248 c -0.153561,0.13381 -0.312062,0.22596 -0.462532,0.24749 0.392023,0.32214 0.955537,0.54543 1.611841,0.21937 0.0589,-0.0292 0.113099,-0.0619 0.166425,-0.0951 -0.06647,-0.15854 -0.133956,-0.34155 -0.183716,-0.53386 -0.318173,0.23828 -0.646637,0.3686 -0.824023,0.28314 -0.08614,-0.0415 -0.19559,-0.0803 -0.307995,-0.12104 z m 1.132018,-0.1621 c 0.03374,-0.0253 0.06774,-0.048 0.101043,-0.0756 -0.06085,-0.31864 -0.07873,-0.61747 0.02431,-0.75216 0.27076,-0.35391 0.884982,-0.51218 0.523053,0.11671 -0.136977,0.23801 -0.335807,0.45966 -0.547368,0.63545 0.03854,0.20174 0.09235,0.3881 0.146434,0.56897 0.946083,-0.64121 0.977412,-1.87767 0.841854,-2.04681 -0.145842,-0.18198 -0.762872,-0.10087 -1.084467,0.59978 -0.123552,0.26916 -0.09088,0.62129 -0.0049,0.9537 z m 0.247477,0.49334 c -0.02061,0.014 -0.04227,0.0272 -0.06376,0.0405 0.117709,0.28074 0.230725,0.47982 0.230725,0.47982 0,0 -0.08202,-0.23626 -0.166963,-0.52035 z m -1.842027,-0.0838 c -0.213202,-0.1752 -0.373139,-0.3784 -0.47172,-0.53981 -0.06892,0.035 -0.139403,0.0664 -0.211273,0.0951 0.190046,0.26962 0.425341,0.48088 0.681911,0.4447 3.35e-4,-5e-5 7.45e-4,4e-5 0.0011,0 z m -0.682993,-0.4447 c -0.09961,-0.14132 -0.18605,-0.29384 -0.255043,-0.44309 -0.133406,0.087 -0.247866,0.13435 -0.306913,0.0924 -0.199391,-0.14165 -0.456716,-0.44819 -0.255582,-0.72676 0.201131,-0.27856 0.165342,-1.15201 0.165342,-1.15201 l -0.02377,-0.0173 c 0,0 -1.12376,1.25455 -0.805112,2.03169 0.191629,0.46734 0.87253,0.45848 1.48108,0.21506 z m 0.211273,-0.0951 c 0.06736,-0.0342 0.132812,-0.0703 0.195605,-0.10969 -0.101072,-0.0786 -0.199535,-0.18209 -0.28152,-0.29719 -0.02081,0.086 -0.02995,0.16471 -0.0092,0.22209 0.0175,0.0483 0.05125,0.11299 0.0951,0.18479 z m -0.08591,-0.40688 c 0.03058,-0.12646 0.09477,-0.27302 0.178855,-0.42687 -0.08889,0.091 -0.179593,0.18314 -0.275576,0.26748 0.0275,0.0545 0.05968,0.10739 0.09672,0.15939 z m 0.178855,-0.42687 c 0.147009,-0.15058 0.279071,-0.29604 0.346898,-0.3912 0.08138,-0.11419 0.112768,-0.22361 0.108071,-0.31664 -0.128961,0.17985 -0.307382,0.43782 -0.454969,0.70784 z m 0.102665,0.72406 c 0.08777,0.0682 0.17324,0.11403 0.248558,0.13131 -0.05571,-0.0683 -0.08218,-0.14893 -0.05728,-0.25019 0.0015,-0.006 0.0055,-0.0151 0.007,-0.0211 -0.06199,0.0493 -0.128393,0.0961 -0.198306,0.13995 z m 0.198306,-0.13995 c 0.145097,-0.11543 0.265979,-0.24413 0.345819,-0.3804 0.105179,-0.17952 0.186175,-0.3988 0.240452,-0.62517 -0.26539,0.12791 -0.505438,0.6923 -0.586271,1.00557 z"
           id="path3961"
           inkscape:connector-curvature="0" />
        <path
           style="fill:#cc9479;fill-opacity:1;fill-rule:evenodd;stroke:none;stroke-width:0.27665532px;stroke-linecap:butt;stroke-linejoin:miter;stroke-opacity:1"
           d="m 70.250008,162.6026 c -1.840251,-0.0192 -3.437119,1.20874 -3.437119,1.20874 0,0 2.131114,-0.62879 3.528437,-0.69867 1.39732,-0.0699 5.100293,1.50216 5.100293,1.50216 0,0 -2.829752,-1.78156 -4.820935,-1.99116 -0.12445,-0.0131 -0.247991,-0.0198 -0.370676,-0.0211 z m -1.599414,3.49546 c -2.063982,0.0634 -2.570949,1.03206 -2.570949,1.03206 0,0 0.453764,-0.0352 3.42307,-0.13995 2.969305,-0.1048 6.21826,1.88688 6.21826,1.88688 0,0 -1.886349,-2.09631 -5.379649,-2.65524 -0.654993,-0.1048 -1.214428,-0.13838 -1.690732,-0.12375 z m 4.310852,5.853 c 0,0 -2.166203,2.09568 -2.061406,5.03005 0.1048,2.93437 2.095988,5.03058 2.095988,5.03058 0,0 0.279571,0.17475 -0.978018,0.31449 -1.257587,0.13973 -2.899478,-1.1531 -2.899478,-1.1531 0,0 1.292777,1.99119 3.039427,2.09599 1.746649,0.1048 1.991159,-1.25738 1.991159,-1.25738 0,0 -1.816794,-0.41936 -2.445588,-4.12227 -0.628794,-3.7029 1.257916,-5.93836 1.257916,-5.93836 z m -4.401628,15.02098 c 0,0 -0.244497,3.70302 2.200816,3.91262 2.445309,0.2096 3.527894,-3.07401 3.527894,-3.07401 0,0 -2.096021,1.9562 -3.598141,1.88633 -1.502119,-0.0699 -2.130569,-2.72494 -2.130569,-2.72494 z"
           id="path3989"
           inkscape:connector-curvature="0" />
        <path
           style="fill:#bdbcbc;fill-opacity:1;fill-rule:evenodd;stroke:none;stroke-width:0.27665532px;stroke-linecap:butt;stroke-linejoin:miter;stroke-opacity:1"
           d="m 62.771129,171.2351 c -3.76599,-0.07 -4.551846,3.161 -4.551846,3.161 0,0 -0.244484,-0.52373 -1.886333,-0.55871 -1.641856,-0.0349 -2.514755,1.18768 -2.514755,1.18768 l 0.03458,0.34906 c 0,0 1.22272,-0.80335 2.305642,-0.97803 1.082927,-0.17466 1.921457,1.01315 1.921457,1.01315 0,0 -0.244558,1.50235 0.593836,2.9346 1.390121,2.37479 4.995556,3.49291 7.405933,1.22226 2.585045,-2.34051 1.257379,-5.03006 1.257379,-5.03006 0,0 1.432048,-0.62879 3.353364,-0.69866 1.921316,-0.0699 3.773211,1.22225 3.773211,1.22225 0,0 -0.759582,1.04913 -0.209652,2.93461 0.48906,1.67677 2.210974,3.66379 5.484476,3.38849 3.678852,-0.3094 4.121733,-4.26168 4.121733,-4.26168 0,0 0.279494,-0.0697 1.50215,0.0351 1.222653,0.1048 1.746929,0.76837 1.746929,0.76837 l 0.0697,-0.55925 c 0,0 -0.838426,-0.76843 -1.502153,-0.97802 -0.663727,-0.2096 -1.816629,-0.10483 -1.816629,-0.10483 0,0 -0.523905,-3.84267 -4.471335,-4.2968 -3.248771,-0.38426 -4.54104,2.20081 -4.54104,2.20081 0,0 -1.432371,-0.87328 -3.912617,-1.18768 -2.480243,-0.31439 -3.877499,0.97802 -3.877499,0.97802 0,0 -1.048114,-2.5148 -3.91262,-2.7244 -0.127759,-0.009 -0.252432,-0.015 -0.373916,-0.0173 z m 0.149134,0.60735 c 0.0992,-2.7e-4 0.155078,0.003 0.155078,0.003 0,0 2.585085,0.24448 3.598141,2.585 1.013059,2.34051 -9.1e-5,4.68104 -2.410467,5.5893 -2.410379,0.90826 -6.567267,-1.29288 -5.659007,-4.85605 0.794728,-3.11777 3.621825,-3.32013 4.316255,-3.32203 z m 16.1276,0.66462 c 0.09683,-2.7e-4 0.151297,0.003 0.151297,0.003 0,0 2.52339,0.24277 3.512225,2.565 0.988841,2.32224 1.01e-4,4.64437 -2.352649,5.54555 -2.352751,0.90115 -6.410466,-1.28236 -5.523921,-4.8177 0.775728,-3.09341 3.535224,-3.29474 4.213048,-3.29663 z"
           id="path3998"
           inkscape:connector-curvature="0" />
        <path
           style="fill:#db1744;fill-opacity:1;fill-rule:evenodd;stroke:none;stroke-width:0.27665532px;stroke-linecap:butt;stroke-linejoin:miter;stroke-opacity:1"
           d="m 50.708909,247.26648 h -9.50178 c 0,0 -0.419196,-15.78972 1.117856,-27.94641 1.537053,-12.15668 7.266068,-20.12141 11.318297,-22.91605 4.052229,-2.79465 8.383923,-1.39733 8.383923,-1.39733 0,0 3.772766,1.53705 7.964727,1.11786 4.191962,-0.41919 7.545531,-2.51518 7.545531,-2.51518 0,0 5.729012,4.47143 14.671865,2.93437 8.942852,-1.53705 13.274542,-7.54552 13.274542,-7.54552 l 6.00848,6.9866 c 0,0 -12.226554,10.54977 -19.352888,12.43615 -4.471425,1.25759 -8.593522,0.69866 -8.593522,0.69866 0,0 1.956248,5.58929 0.978124,15.51026 -0.978123,9.92098 -2.794641,13.9732 -2.794641,13.9732 0,0 -5.030352,3.77276 -14.532131,3.63304 -9.501781,-0.13974 -15.64999,-2.79465 -15.64999,-2.79465 z"
           id="path4019"
           inkscape:connector-curvature="0"
           sodipodi:nodetypes="ccsccscsccccscscc" />
        <path
           style="fill:#ef2550;fill-opacity:1;fill-rule:evenodd;stroke:none;stroke-width:0.27665532px;stroke-linecap:butt;stroke-linejoin:miter;stroke-opacity:1"
           d="m 61.964628,193.0573 -0.691638,7.90444 9.485325,-4.44625 7.805634,5.03908 -0.790443,-8.20086 c 0,0 -4.148541,1.86259 -7.921306,1.72285 -3.772766,-0.13973 -7.887572,-2.01926 -7.887572,-2.01926 z"
           id="path4021"
           inkscape:connector-curvature="0" />
        <path
           style="fill:#ad1038;fill-opacity:1;fill-rule:evenodd;stroke:none;stroke-width:0.27665532px;stroke-linecap:butt;stroke-linejoin:miter;stroke-opacity:1"
           d="m 70.362941,197.50331 c 0,0 -0.296264,22.52781 -1.185512,31.32149 -0.889251,8.79369 -1.284395,13.14113 -1.284395,13.14113 0,0 2.074993,-3.45826 2.865436,-12.54837 0.790449,-9.0901 -0.395529,-31.91425 -0.395529,-31.91425 z m 2.647678,1.90525 a 0.76852625,0.9082583 0 0 0 -0.07673,0.003 0.76852625,0.9082583 0 0 0 -0.703524,0.97856 0.76852625,0.9082583 0 0 0 0.827803,0.83213 l -0.06214,-0.90562 0.06322,0.90562 a 0.76852625,0.9082583 0 0 0 0.702986,-0.97964 0.76852625,0.9082583 0 0 0 -0.751617,-0.83375 z m 5.784364,0.69812 4.680987,8.94321 1.816632,0.20965 z m -6.026978,4.26223 a 0.8733253,0.94319121 0 0 0 -0.08754,0.003 0.8733253,0.94319121 0 0 0 -0.799166,1.01692 0.8733253,0.94319121 0 0 0 0.940737,0.86347 l -0.07025,-0.9402 0.07133,0.9402 a 0.8733253,0.94319121 0 0 0 0.799168,-1.01693 0.8733253,0.94319121 0 0 0 -0.854281,-0.86616 z m 0.943976,8.45365 a 0.9082583,1.0130573 0 0 0 -0.09078,0.003 0.9082583,1.0130573 0 0 0 -0.831587,1.09202 0.9082583,1.0130573 0 0 0 0.97856,0.92777 l -0.07349,-1.0099 0.07457,1.00937 a 0.9082583,1.0130573 0 0 0 0.831044,-1.09204 0.9082583,1.0130573 0 0 0 -0.888324,-0.93047 z m -19.404776,4.54104 -2.766553,22.03354 1.679925,0.59276 z m 18.845523,4.19252 a 0.9082583,1.0130573 0 0 0 -0.09078,0.003 0.9082583,1.0130573 0 0 0 -0.831588,1.0915 0.9082583,1.0130573 0 0 0 0.978561,0.92777 l -0.07295,-1.0099 0.07403,1.0099 a 0.9082583,1.0130573 0 0 0 0.831048,-1.09257 0.9082583,1.0130573 0 0 0 -0.888323,-0.92994 z m -0.665702,9.36197 a 0.80345926,0.83839226 0 0 0 -0.07997,0.003 0.80345926,0.83839226 0 0 0 -0.735947,0.90346 0.80345926,0.83839226 0 0 0 0.86563,0.76782 l -0.0643,-0.83591 0.06538,0.83591 a 0.80345926,0.83839226 0 0 0 0.735408,-0.90399 0.80345926,0.83839226 0 0 0 -0.786199,-0.76999 z m -1.958742,8.59361 a 0.66372718,0.83839226 0 0 0 -0.06646,0.003 0.66372718,0.83839226 0 0 0 -0.607345,0.90399 0.66372718,0.83839226 0 0 0 0.714872,0.76728 l -0.0535,-0.83536 0.05458,0.83536 a 0.66372718,0.83839226 0 0 0 0.606805,-0.90399 0.66372718,0.83839226 0 0 0 -0.648954,-0.76944 z"
           id="path4023"
           inkscape:connector-curvature="0" />
        <path
           style="fill:#488452;fill-opacity:1;fill-rule:evenodd;stroke:none;stroke-width:0.27665532px;stroke-linecap:butt;stroke-linejoin:miter;stroke-opacity:1"
           d="m 82.546582,271.33787 c 0,0 -3.952453,2.12423 -8.596309,2.32185 -4.643856,0.1976 -7.904129,-2.22297 -7.904129,-2.22297 0,0 1.630059,11.46143 1.08663,16.2535 -0.543431,4.79206 -1.123912,7.514 -1.123912,7.514 -3e-6,0 6.873618,10.79907 18.878484,10.84845 4.199233,-0.0988 5.33534,-2.86543 5.33534,-2.86543 0,0 1.087247,-0.64216 -2.617959,-4.39677 -2.282094,-2.31252 -8.467167,-5.91296 -8.467167,-5.91296 z m -21.026345,0.96127 c 0,0 -4.496036,3.06303 -9.139892,2.86543 -4.643857,-0.19762 -8.59577,-2.32185 -8.59577,-2.32185 l 4.841468,21.39162 c 0,0 -5.276755,4.15915 -7.558849,6.47168 -3.705206,3.75461 -2.618501,4.39677 -2.618501,4.39677 0,0 1.136649,2.76662 5.335882,2.86543 12.004866,-0.0494 18.661807,-12.49434 18.661807,-12.49434 0,0 -1.469883,-2.12918 -2.013314,-6.92124 -0.543429,-4.79208 1.087169,-16.2535 1.087169,-16.2535 z"
           id="path4044"
           inkscape:connector-curvature="0" />
        <path
           style="opacity:1;fill:#000000;fill-opacity:1;stroke:none;stroke-width:0.27665532;stroke-opacity:1"
           d="m 64.363905,174.67971 a 1.4820821,1.8773042 0 0 0 -0.148594,0.006 1.4820821,1.8773042 0 0 0 -1.3568,2.02304 1.4820821,1.8773042 0 0 0 1.596713,1.71937 l -0.119416,-1.8712 0.121577,1.87066 a 1.4820821,1.8773042 0 0 0 1.355719,-2.02358 1.4820821,1.8773042 0 0 0 -1.449199,-1.72424 z m 15.314387,0.49387 a 1.4820822,1.8773042 0 0 0 -0.148055,0.006 1.4820822,1.8773042 0 0 0 -1.356801,2.02304 1.4820822,1.8773042 0 0 0 1.596714,1.71937 l -0.119416,-1.87121 0.121576,1.87121 a 1.4820822,1.8773042 0 0 0 1.355719,-2.02412 1.4820822,1.8773042 0 0 0 -1.449737,-1.72424 z"
           id="path4080"
           inkscape:connector-curvature="0" />
      </g>
    </g>
    <g
       id="g961"
       transform="translate(81.264881,-14.174107)" />
    <rect
       style="opacity:1;fill:#ffffff;fill-opacity:1;stroke:none;stroke-width:1;stroke-miterlimit:4;stroke-dasharray:none;stroke-opacity:1"
       id="rect995"
       width="95.682487"
       height="137.37653"
       x="294.51065"
       y="60.008327"
       ry="3.9196432" />
  </g>
</svg>
