<?xml version="1.0" encoding="UTF-8" standalone="no"?>
<svg
   xmlns:dc="http://purl.org/dc/elements/1.1/"
   xmlns:cc="http://creativecommons.org/ns#"
   xmlns:rdf="http://www.w3.org/1999/02/22-rdf-syntax-ns#"
   xmlns:svg="http://www.w3.org/2000/svg"
   xmlns="http://www.w3.org/2000/svg"
   xmlns:sodipodi="http://sodipodi.sourceforge.net/DTD/sodipodi-0.dtd"
   xmlns:inkscape="http://www.inkscape.org/namespaces/inkscape"
   width="350"
   height="500"
   viewBox="0 0 92.604165 132.29167"
   version="1.1"
   id="svgLilly"
   inkscape:version="0.92.3 (2405546, 2018-03-11)"
   sodipodi:docname="grandmom.svg">
  <defs
     id="defs2" />
  <sodipodi:namedview
     id="base"
     pagecolor="#ffffff"
     bordercolor="#666666"
     borderopacity="1.0"
     inkscape:pageopacity="0.0"
     inkscape:pageshadow="2"
     inkscape:zoom="0.98994948"
     inkscape:cx="38.208373"
     inkscape:cy="271.03212"
     inkscape:document-units="mm"
     inkscape:current-layer="g2034"
     showgrid="false"
     inkscape:pagecheckerboard="false"
     showguides="false"
     inkscape:snap-global="false"
     inkscape:window-width="1366"
     inkscape:window-height="713"
     inkscape:window-x="0"
     inkscape:window-y="27"
     inkscape:window-maximized="1"
     units="px" />
  <metadata
     id="metadata5">
    <rdf:RDF>
      <cc:Work
         rdf:about="">
        <dc:format>image/svg+xml</dc:format>
        <dc:type
           rdf:resource="http://purl.org/dc/dcmitype/StillImage" />
        <dc:title></dc:title>
      </cc:Work>
    </rdf:RDF>
  </metadata>
  <g
     inkscape:label="Layer 1"
     inkscape:groupmode="layer"
     id="layer1"
     transform="translate(0,-164.70832)">
    <g
       id="g979"
       transform="translate(-13.779441,-3.7607682)">
      <g
         id="g2034"
         transform="matrix(0.81990925,0,0,0.81990925,2.6452279,46.554022)">
        <path
           style="fill:#231f20;fill-opacity:1;fill-rule:evenodd;stroke:none;stroke-width:0.27948144px;stroke-linecap:butt;stroke-linejoin:miter;stroke-opacity:1"
           d="m 76.909034,280.06997 0.499464,16.96867 c 0,0 8.683729,10.08123 10.979471,8.98326 2.295739,-1.09796 -6.288333,-9.68196 -6.288333,-9.68196 l 1.197623,-15.67115 z m -16.569103,0.19979 0.698704,17.2678 c 0,0 -9.282854,3.39386 -7.086929,5.09071 2.195926,1.69686 11.77807,-3.79319 11.77807,-3.79319 l 0.499464,-17.76727 z"
           id="path3770"
           inkscape:connector-curvature="0" />
        <path
           style="opacity:1;fill:#ffffff;fill-opacity:1;stroke:none;stroke-width:0.27948144;stroke-opacity:1"
           id="path3794"
           sodipodi:type="arc"
           sodipodi:cx="71.818634"
           sodipodi:cy="176.9612"
           sodipodi:rx="13.474999"
           sodipodi:ry="9.9814796"
           sodipodi:start="1.4900557"
           sodipodi:end="1.4889002"
           d="m 72.905432,186.91016 a 13.474999,9.9814796 0 0 1 -14.517585,-9.14105 13.474999,9.9814796 0 0 1 12.336229,-10.75641 13.474999,9.9814796 0 0 1 14.524712,9.13484 13.474999,9.9814796 0 0 1 -12.327837,10.76168 l -1.102317,-9.94802 z" />
        <path
           style="opacity:1;fill:#000000;fill-opacity:1;stroke:none;stroke-width:0.27948144;stroke-opacity:1"
           d="m 63.51303,174.36648 a 1.5471294,2.1959256 0 0 0 -0.154482,0.007 1.5471294,2.1959256 0 0 0 -1.416511,2.36686 1.5471294,2.1959256 0 0 0 1.667064,2.01096 l -0.125003,-2.18891 0.126639,2.18837 a 1.5471294,2.1959256 0 0 0 1.415422,-2.36741 1.5471294,2.1959256 0 0 0 -1.513129,-2.01641 z m 12.327205,0.99347 a 1.5471294,2.1959256 0 0 0 -0.15448,0.007 1.5471294,2.1959256 0 0 0 -1.416513,2.36632 1.5471294,2.1959256 0 0 0 1.666517,2.01095 l -0.124456,-2.1889 0.126642,2.1889 a 1.5471294,2.1959256 0 0 0 1.415419,-2.3674 1.5471294,2.1959256 0 0 0 -1.513129,-2.01697 z"
           id="path3796"
           inkscape:connector-curvature="0" />
        <path
           style="fill:#eec7ba;fill-opacity:1;fill-rule:evenodd;stroke:none;stroke-width:0.27948144px;stroke-linecap:butt;stroke-linejoin:miter;stroke-opacity:1"
           d="m 64.379302,185.51915 v 9.38711 c 0,0 1.199856,2.82318 4.305364,2.61144 3.105509,-0.21174 4.446522,-2.47029 4.446522,-2.47029 l 0.07057,-9.03421 c 0,0 0,-2.18797 -3.811306,-2.25854 -3.811305,-0.0706 -5.011161,1.76449 -5.011161,1.76449 z"
           id="path3728"
           inkscape:connector-curvature="0" />
        <path
           style="fill:#eec7ba;fill-opacity:1;fill-rule:evenodd;stroke:none;stroke-width:0.27948144px;stroke-linecap:butt;stroke-linejoin:miter;stroke-opacity:1"
           d="m 74.330927,155.94636 c 0,0 -16.720376,1.25287 -18.562591,15.73939 -1.552755,12.2103 10.446066,17.99735 13.551575,18.35025 3.105509,0.3529 11.222013,-0.1409 15.386217,-3.88162 5.718064,-5.13656 8.610957,-14.46865 2.96458,-21.52662 -5.646378,-7.05798 -13.339781,-8.6814 -13.339781,-8.6814 z m -10.250748,17.43429 c 1.212384,0.009 2.374815,1.0759 2.348301,2.93183 0.09981,2.14603 -1.211981,3.31318 -2.59503,3.24406 -1.405622,-0.0702 -2.688752,-1.57591 -2.295896,-3.54374 0.364159,-1.82409 1.472873,-2.63996 2.542625,-2.63215 z m 12.204387,0.80733 c 1.358249,-0.0572 2.78195,1.14959 2.753876,3.1147 0.09981,2.14602 -1.084729,3.52746 -2.520246,3.49352 -1.568389,-0.0371 -2.859249,-1.957 -2.570466,-3.94277 0.263462,-1.81166 1.280421,-2.6209 2.336836,-2.66545 z"
           id="path3730"
           inkscape:connector-curvature="0" />
        <path
           style="fill:#7f248e;fill-opacity:1;fill-rule:evenodd;stroke:none;stroke-width:0.27948144px;stroke-linecap:butt;stroke-linejoin:miter;stroke-opacity:1"
           d="m 53.752154,227.86674 -16.768887,52.5026 c 0,0 13.175555,6.18851 33.937035,4.99074 20.761478,-1.19778 33.937038,-5.58964 33.937038,-5.58964 0,0 -6.18852,-26.55073 -10.58037,-38.12925 -4.391855,-11.57852 -10.580374,-19.16444 -10.580374,-19.16444 z"
           id="path3774"
           inkscape:connector-curvature="0" />
        <path
           style="fill:#ddd6ef;fill-opacity:1;fill-rule:evenodd;stroke:none;stroke-width:0.27948144px;stroke-linecap:butt;stroke-linejoin:miter;stroke-opacity:1"
           d="m 65.22626,220.8443 c 0,0 13.859239,3.31347 17.715512,4.53474 3.856272,1.22129 3.528986,8.41664 3.528986,8.41664 0,0 7.175422,-4.90267 8.320453,-11.75049 0,0 3.549743,-14.80151 -7.896976,-25.02155 -3.913391,-3.49401 -9.740001,-3.67014 -9.740001,-3.67014 0,0 0.352899,-1.62334 -0.635219,-2.39972 -0.988115,-0.77636 -2.752611,-0.84696 -2.752611,-0.84696 0,0 -0.705796,3.59958 -4.375941,3.45841 -3.670146,-0.14115 -5.434639,-4.16419 -5.434639,-4.16419 0,0 -1.199857,0.42347 -2.258552,1.48217 -1.058695,1.05869 -0.705795,1.48218 -0.705795,1.48218 0,0 -1.199856,-1.27044 -8.116671,6.84622 -3.61912,4.24692 -3.71149,7.42801 -3.71149,7.42801 0.795826,8.53106 2.852382,12.17612 16.062944,14.20468 z"
           id="path3753"
           inkscape:connector-curvature="0"
           sodipodi:nodetypes="ccccscccscccscc" />
        <path
           style="fill:#ffffff;fill-opacity:1;fill-rule:evenodd;stroke:none;stroke-width:0.27948144px;stroke-linecap:butt;stroke-linejoin:miter;stroke-opacity:1"
           d="m 59.940672,192.33268 1.497222,13.72453 c 0,0 2.89463,2.74491 6.338242,3.84287 4.741202,1.64695 7.63583,1.54714 7.63583,1.54714 0,0 1.846576,-8.78371 2.046204,-10.38075 0.199631,-1.59703 1.547132,-7.53602 1.547132,-7.53602 l -1.696853,-0.14971 -0.548982,4.49166 -2.49537,-1.3475 -0.499072,3.69315 -9.632131,0.44916 -0.249537,-3.39371 -0.848425,0.49908 c 0,0 -1.497222,-1.54712 -1.94639,-2.99443 -0.449165,-1.44733 -0.199628,-2.54529 -0.199628,-2.54529 z"
           id="path3755"
           inkscape:connector-curvature="0"
           sodipodi:nodetypes="cccccccccccccccc" />
        <path
           style="fill:#85c536;fill-opacity:1;fill-rule:evenodd;stroke:none;stroke-width:0.27948144px;stroke-linecap:butt;stroke-linejoin:miter;stroke-opacity:1"
           d="m 76.959251,202.51387 c -4.854925,-0.0471 -7.197466,4.5162 -5.341058,8.30263 0.267413,0.54544 3.937676,0.55945 3.937676,0.55945 0,0 0.361643,6.55431 5.295928,7.05854 2.638869,0.26965 6.425311,-1.64243 6.18844,-5.68953 -0.225008,-3.84439 -4.491357,-4.69169 -4.491357,-4.69169 0,0 -0.535361,-5.49048 -5.589629,-5.5394 z m -24.502661,3.50334 c -4.218242,-0.0695 -6.639868,3.78119 -6.639868,3.78119 0,0 -2.682164,-2.82286 -6.775788,-0.14083 -5.490783,3.59741 -1.340615,10.30451 5.01156,9.95161 1.547158,-0.0859 3.529,-2.68182 3.529,-2.68182 0,0 3.246261,4.44636 8.186842,1.48202 4.94058,-2.96435 4.37633,-7.90519 1.482562,-10.72838 -1.782138,-1.18221 -3.388229,-1.64063 -4.794308,-1.66379 z"
           id="path3759"
           inkscape:connector-curvature="0"
           sodipodi:nodetypes="csccsccsccccscs" />
        <path
           style="fill:#ffffff;fill-opacity:1;fill-rule:evenodd;stroke:none;stroke-width:0.27948144px;stroke-linecap:butt;stroke-linejoin:miter;stroke-opacity:1"
           d="m 54.750303,228.86489 -12.975925,39.32704 c 0,0 8.983333,5.78926 27.948145,5.19037 18.964815,-0.59889 27.149631,-5.58963 27.149631,-5.58963 0,0 -4.591483,-15.57111 -7.186669,-23.95555 -2.595184,-8.38445 -7.985186,-19.76333 -7.985186,-19.76333 z"
           id="path3776"
           inkscape:connector-curvature="0"
           sodipodi:nodetypes="ccscscc" />
        <path
           style="fill:#f1984d;fill-opacity:1;fill-rule:evenodd;stroke:none;stroke-width:0.27948144px;stroke-linecap:butt;stroke-linejoin:miter;stroke-opacity:1"
           d="m 56.050894,215.58611 -19.762323,0.49406 c 0,0 1.463176,20.51753 25.551582,20.58506 22.795156,0.064 25.265821,-21.8555 25.265821,-21.8555 l -12.280871,0.28232 c 0,0 0,1.55276 0.141157,2.54088 0.141162,0.98811 0.56464,1.90565 0.56464,1.90565 0,0 -5.575798,-0.49406 -9.104785,-1.76449 -3.528987,-1.27044 -4.940581,-2.25856 -4.940581,-2.25856 0,0 1.270433,-11.85739 4.72884,-11.71623 3.458408,0.14115 4.658263,3.45841 4.658263,3.45841 0,0 0.370544,-1.51747 1.146922,-2.41736 0.776376,-0.8999 1.199853,-1.19986 1.199853,-1.19986 0,0 -4.229435,-4.95552 -9.969386,-2.77026 -6.952104,2.64676 -7.199132,14.71588 -7.199132,14.71588 z"
           id="path3764"
           inkscape:connector-curvature="0"
           sodipodi:nodetypes="ccsccccccccccsc" />
        <path
           style="fill:#eec7ba;fill-opacity:1;fill-rule:evenodd;stroke:none;stroke-width:0.27948144px;stroke-linecap:butt;stroke-linejoin:miter;stroke-opacity:1"
           d="m 75.411966,211.49711 c 0,0 -0.948239,1.59705 -0.948239,3.79297 0,2.19593 0.998148,3.94269 0.998148,3.94269 0,0 6.562824,1.7218 6.837314,1.37245 0.274493,-0.34935 -1.42236,-1.7218 -1.42236,-1.7218 0,0 3.817916,0.94824 4.017546,0.52403 0.199628,-0.42422 -3.543424,-2.24583 -3.543424,-2.24583 0,0 5.190367,0.84842 5.340091,0.29943 0.14972,-0.54898 -4.416805,-2.0462 -4.416805,-2.0462 0,0 5.090553,0.42421 5.040646,-0.57393 -0.04991,-0.99816 -8.010137,-2.17098 -8.010137,-2.17098 0,0 3.368749,-1.82162 2.76986,-2.47041 -0.59889,-0.6488 -6.66264,1.29758 -6.66264,1.29758 z"
           id="path3766"
           inkscape:connector-curvature="0"
           sodipodi:nodetypes="cscccccccccsc" />
        <path
           style="fill:#eec7ba;fill-opacity:1;fill-rule:evenodd;stroke:none;stroke-width:0.27948144px;stroke-linecap:butt;stroke-linejoin:miter;stroke-opacity:1"
           d="m 83.294668,225.46727 c 0,0 -7.022681,-0.63522 -7.37558,0.45877 -0.352898,1.09398 3.846595,1.76449 3.846595,1.76449 0,0 -8.575437,4.48182 -8.328407,5.04645 0.247028,0.56464 6.563913,-0.98812 6.563913,-0.98812 0,0 -5.152319,3.38784 -4.799421,3.91719 0.352899,0.52933 6.281595,-2.18797 6.281595,-2.18797 0,0 -3.917173,3.03491 -3.352537,3.70543 0.56464,0.67051 4.587684,-2.22326 4.587684,-2.22326 0,0 -1.976234,2.01152 -1.658623,2.47028 0.317608,0.45878 7.234419,-3.8113 7.234419,-3.8113 0,0 0.599929,-2.29384 -0.388189,-4.90529 -0.988114,-2.61146 -2.611449,-3.24667 -2.611449,-3.24667 z"
           id="path3768"
           inkscape:connector-curvature="0" />
        <path
           style="fill:#da702a;fill-opacity:1;fill-rule:evenodd;stroke:none;stroke-width:0.27948144px;stroke-linecap:butt;stroke-linejoin:miter;stroke-opacity:1"
           d="m 75.087492,199.07003 -1.222733,0.34935 3.543739,5.78941 1.19762,-0.19978 z m -23.506465,3.99297 0.274568,7.0116 0.848268,0.3248 0.324788,-6.81237 z m 35.030706,1.30079 -3.458035,5.8582 0.917593,0.84717 3.669832,-5.57597 z m -45.386259,1.29424 0.374462,2.79482 c 0,0 0.224582,-0.0498 0.524028,-0.0748 0.299444,-0.025 0.498917,0 0.498917,0 l -0.07479,-2.27078 z"
           id="path3778"
           inkscape:connector-curvature="0" />
        <path
           style="fill:#3ba23d;fill-opacity:1;fill-rule:evenodd;stroke:none;stroke-width:0.27948144px;stroke-linecap:butt;stroke-linejoin:miter;stroke-opacity:1"
           d="m 80.902017,199.04546 c 0,0 -1.834098,0.1746 -2.969491,0.86082 -1.135394,0.68623 -1.822091,2.10867 -1.822091,2.10867 0,0 2.084024,-0.48659 2.857589,-0.78604 0.773565,-0.29945 1.933993,-2.18345 1.933993,-2.18345 z m 0.557325,3.51863 c 0,0 -0.07006,2.43482 1.306245,3.49352 1.376306,1.0587 2.822654,1.51749 2.822654,1.51749 0,0 -0.176453,-2.39953 -1.4116,-3.49352 -1.235145,-1.09398 -2.717299,-1.51749 -2.717299,-1.51749 z m -23.538127,0.0884 c 0,0 -1.588193,-0.0705 -3.352685,0.86465 -1.764492,0.93517 -2.276245,2.94656 -2.276245,2.94656 0,0 2.241053,-0.58219 3.352684,-1.04097 1.11163,-0.45876 2.276246,-2.77024 2.276246,-2.77024 z m -19.989473,2.55627 c 0,0 0.548903,1.97127 1.122838,2.69493 0.573935,0.72365 1.048056,1.12283 1.048056,1.12283 0,0 0.374227,-0.22443 0.948162,-0.32425 0.573935,-0.0998 0.948163,-0.27456 0.948163,-0.27456 l -0.573702,-1.34719 -0.09989,-0.0999 c 0,0 -0.299601,-0.59896 -1.247841,-1.14794 -0.94824,-0.54898 -2.145784,-0.62392 -2.145784,-0.62392 z"
           id="path3786"
           inkscape:connector-curvature="0" />
        <path
           style="fill:#894a21;fill-opacity:1;fill-rule:evenodd;stroke:none;stroke-width:0.27948144px;stroke-linecap:butt;stroke-linejoin:miter;stroke-opacity:1"
           d="m 74.014559,157.29768 c 0,0 -1.024528,6.20059 -7.376705,10.7177 -6.352176,4.5171 -11.716236,5.50522 -11.716236,5.50522 0,0 0.282318,-8.82248 5.716959,-13.41016 5.43464,-4.58768 14.821742,-8.96362 24.279426,-0.49405 9.457681,8.46957 6.705073,14.61 6.705073,14.61 0,0 8.983044,5.61112 1.835079,14.82175 -5.641978,7.27005 -14.11595,-0.14116 -14.11595,-0.14116 0,0 2.75261,-0.63522 4.305361,-1.83507 1.552755,-1.19987 2.540873,-2.54088 2.540873,-2.54088 0,0 2.329131,1.0587 4.446522,-1.19986 2.117394,-2.25854 -0.635217,-4.94058 -0.635217,-4.94058 l -0.635219,1.4116 c 0,0 -3.670145,-0.98811 -7.552032,-4.30536 -3.881885,-3.31725 -6.98739,-8.39899 -7.410869,-10.09291 -0.423478,-1.69391 -0.387065,-8.10624 -0.387065,-8.10624 z"
           id="path3726"
           inkscape:connector-curvature="0"
           sodipodi:nodetypes="csccscsccccccssc" />
        <g
           id="g3860"
           transform="matrix(0.8660766,0,0,0.8660766,120.44544,33.608393)"
           style="fill:#e28e80;fill-opacity:1;stroke:none;stroke-opacity:1">
          <path
             inkscape:connector-curvature="0"
             id="path3817"
             d="m -58.335814,155.03208 c 0,0 1.210119,-0.77793 2.7948,-0.34574 1.584678,0.43218 2.132113,1.58468 2.132113,1.58468 0,0 -1.008432,-1.06606 -2.535486,-1.03725 -1.527057,0.0288 -2.391427,-0.20169 -2.391427,-0.20169 z"
             style="fill:#e28e80;fill-opacity:1;fill-rule:evenodd;stroke:none;stroke-width:0.3226983px;stroke-linecap:butt;stroke-linejoin:miter;stroke-opacity:1" />
          <path
             sodipodi:nodetypes="ccccc"
             inkscape:connector-curvature="0"
             id="path3817-9"
             d="m -61.481639,156.83663 c 0,0 2.852423,-0.74912 4.437104,-0.31693 1.584679,0.43218 3.918479,2.16093 3.918479,2.16093 0,0 -2.708361,-1.44062 -4.552351,-1.64231 -1.469432,-0.17289 -3.803232,-0.20169 -3.803232,-0.20169 z"
             style="fill:#e28e80;fill-opacity:1;fill-rule:evenodd;stroke:none;stroke-width:0.3226983px;stroke-linecap:butt;stroke-linejoin:miter;stroke-opacity:1" />
          <path
             sodipodi:nodetypes="cccsc"
             inkscape:connector-curvature="0"
             id="path3834"
             d="m -63.896596,173.29911 c 0,0 1.382991,2.65074 4.120167,2.70836 2.737172,0.0576 5.013347,-2.04567 5.013347,-2.04567 0,0 -1.959239,3.31342 -4.955725,3.11173 -2.996483,-0.20169 -4.177789,-3.77442 -4.177789,-3.77442 z"
             style="fill:#e28e80;fill-opacity:1;fill-rule:evenodd;stroke:none;stroke-width:0.3226983px;stroke-linecap:butt;stroke-linejoin:miter;stroke-opacity:1" />
          <path
             sodipodi:nodetypes="cccscscccc"
             inkscape:connector-curvature="0"
             id="path3836"
             d="m -58.998497,162.98429 c 0,0 0.432184,2.99648 -0.259304,4.03373 -0.691498,1.03724 -3.025297,1.72874 -3.025297,1.72874 0,0 -0.08644,1.55587 1.008432,2.67955 1.09487,1.12368 2.420237,1.00843 2.420237,1.00843 0,0 -2.074488,-0.72031 -2.477861,-1.75755 -0.403373,-1.03724 -0.345749,-1.49824 -0.345749,-1.49824 0,0 2.391424,-0.63387 3.082921,-1.90162 0.691497,-1.26774 -0.403373,-4.29304 -0.403373,-4.29304 z"
             style="fill:#e28e80;fill-opacity:1;fill-rule:evenodd;stroke:none;stroke-width:0.3226983px;stroke-linecap:butt;stroke-linejoin:miter;stroke-opacity:1" />
          <path
             inkscape:connector-curvature="0"
             id="path3838"
             d="m -59.488308,159.00819 0.201686,2.5643 0.345749,-2.44905 z"
             style="fill:#e28e80;fill-opacity:1;fill-rule:evenodd;stroke:none;stroke-width:0.3226983px;stroke-linecap:butt;stroke-linejoin:miter;stroke-opacity:1" />
          <path
             inkscape:connector-curvature="0"
             id="path3840"
             d="m -57.240943,159.2675 -0.403373,2.59311 0.432186,0.17288 0.345746,-2.88124 z"
             style="fill:#e28e80;fill-opacity:1;fill-rule:evenodd;stroke:none;stroke-width:0.3226983px;stroke-linecap:butt;stroke-linejoin:miter;stroke-opacity:1" />
          <path
             inkscape:connector-curvature="0"
             id="path3842"
             d="m -48.971799,169.2942 -0.374559,0.43218 c 0,0 0.605059,0.66269 1.152494,0.80675 0.547432,0.14406 0.576246,0.14406 0.576246,0.14406 l 0.691497,0.11525 c 0,0 -1.066057,-0.63387 -1.440619,-0.922 -0.374559,-0.28812 -0.605059,-0.57624 -0.605059,-0.57624 z"
             style="fill:#e28e80;fill-opacity:1;fill-rule:evenodd;stroke:none;stroke-width:0.3226983px;stroke-linecap:butt;stroke-linejoin:miter;stroke-opacity:1" />
          <path
             inkscape:connector-curvature="0"
             id="path3844"
             d="m -48.626051,168.80439 0.518622,-0.60506 c 0,0 0.08644,0.69149 0.374562,0.80674 0.288121,0.11525 1.008432,0.60506 1.008432,0.60506 0,0 -1.267743,-0.17287 -1.498243,-0.31693 -0.2305,-0.14406 -0.403373,-0.48981 -0.403373,-0.48981 z"
             style="fill:#e28e80;fill-opacity:1;fill-rule:evenodd;stroke:none;stroke-width:0.3226983px;stroke-linecap:butt;stroke-linejoin:miter;stroke-opacity:1" />
          <path
             inkscape:connector-curvature="0"
             id="path3846"
             d="m -67.368485,167.23411 -1.973645,0.76353 2.218551,-0.25931 z"
             style="fill:#e28e80;fill-opacity:1;fill-rule:evenodd;stroke:none;stroke-width:0.3226983px;stroke-linecap:butt;stroke-linejoin:miter;stroke-opacity:1" />
          <path
             inkscape:connector-curvature="0"
             id="path3848"
             d="m -69.759908,166.2689 1.843988,-0.14406 0.144062,0.53303 z"
             style="fill:#e28e80;fill-opacity:1;fill-rule:evenodd;stroke:none;stroke-width:0.3226983px;stroke-linecap:butt;stroke-linejoin:miter;stroke-opacity:1" />
        </g>
        <path
           style="fill:#db6524;fill-opacity:1;fill-rule:evenodd;stroke:none;stroke-width:0.27948144px;stroke-linecap:butt;stroke-linejoin:miter;stroke-opacity:1"
           d="m 42.487507,218.91484 c -0.45184,0.0115 -0.702449,0.13422 -0.764207,0.41212 -0.282319,1.27043 0.705627,3.5289 13.268818,3.81122 12.563191,0.28232 18.492176,-0.98801 18.492176,-0.98801 0,0 -8.610681,-0.14127 -17.927207,-1.12939 -7.278533,-0.77197 -11.455861,-2.14708 -13.06958,-2.10594 z m 4.812323,6.94174 c -0.461377,0.0246 -0.704509,0.16516 -0.74019,0.48963 -0.142728,1.29788 0.780102,3.48595 10.72237,2.76042 9.942271,-0.72549 14.545593,-2.47711 14.545593,-2.47711 0,0 -6.811223,0.54988 -14.233359,0.30623 -5.5666,-0.18276 -8.910293,-1.15305 -10.294414,-1.07917 z"
           id="path3862"
           inkscape:connector-curvature="0" />
        <path
           style="fill:#ddd6ef;fill-opacity:1;fill-rule:evenodd;stroke:none;stroke-width:0.27948144px;stroke-linecap:butt;stroke-linejoin:miter;stroke-opacity:1"
           d="m 68.924159,160.99067 c 0,0 -3.693537,3.89294 -5.390389,5.44007 -1.69685,1.54713 -6.288333,4.14255 -6.288333,4.14255 0,0 3.244062,-1.39756 6.388228,-3.34396 3.144166,-1.94638 5.290494,-6.23866 5.290494,-6.23866 z m -4.541574,2.49569 c 0,0 -2.395476,1.84618 -3.393622,2.29534 -0.998151,0.44918 -2.545359,1.44763 -2.545359,1.44763 0,0 1.94631,-0.59872 3.044275,-1.19762 1.097963,-0.59888 2.894706,-2.54535 2.894706,-2.54535 z m 27.875548,16.4572 c 0,0 1.129706,2.75229 -1.128843,4.37563 -2.258553,1.62334 -5.081978,2.3292 -5.081978,2.3292 0,0 2.920893,0.92674 6.191171,-2.11468 1.323892,-1.79371 0.01965,-4.59015 0.01965,-4.59015 z m 1.341184,4.30521 c 0,0 -1.34076,2.89373 -3.881629,4.023 -2.540869,1.12928 -4.799764,0.4236 -4.799764,0.4236 0,0 1.554443,1.70715 5.505564,0.14083 2.329131,-0.91754 3.175829,-4.58743 3.175829,-4.58743 z"
           id="path3880"
           inkscape:connector-curvature="0" />
      </g>
    </g>
    <g
       id="g961"
       transform="translate(81.264881,-14.174107)" />
    <rect
       style="opacity:1;fill:#ffffff;fill-opacity:1;stroke:none;stroke-width:1;stroke-miterlimit:4;stroke-dasharray:none;stroke-opacity:1"
       id="rect995"
       width="95.682487"
       height="137.37653"
       x="294.51065"
       y="60.008327"
       ry="3.9196432" />
  </g>
</svg>
