    <svg class="art horse"
      height="380pt" width="600pt" viewBox="50 0 200 250"
      style="fill:silver;stroke:#000;stroke-opacity:1;">
      <path
d="m 234.72321,85.7061 -11.43378,7.654017 c 0,0 3.11831,1.228423 1.13393,4.346726 -1.98437,3.118307 -4.7247,5.008187 -4.7247,5.008187 0,0 3.40178,-0.85045 4.34673,-1.7009 0.94493,-0.85044 1.03943,0.47248 -0.47248,1.7009 -1.5119,1.22842 -3.87425,3.40178 -3.87425,3.40178 0,0 3.30729,-0.47247 4.63021,-1.79538 1.32291,-1.32292 2.74032,-2.45685 2.74032,-2.45685 0,0 0.47247,2.74033 -1.98437,4.25223 -2.45685,1.51191 -5.85863,2.55134 -5.85863,2.55134 0,0 2.26786,0.37798 3.40178,0 1.13393,-0.37797 0.94494,0 0.94494,0 0,0 -2.64583,3.87426 -8.69345,4.34673 -6.04762,0.47247 -14.83556,1.88988 -16.53646,0.18899 -1.70089,-1.7009 -6.04761,-4.7247 -6.04761,-4.7247 0,0 4.44122,4.44121 4.81919,4.7247 0.37798,0.28348 -3.30729,-0.75595 -5.57515,-2.07887 -2.26786,-1.32292 -7.55952,-3.77976 -7.55952,-3.77976 0,0 5.29166,4.44122 7.37054,5.29166 2.07886,0.85045 5.29166,5.10268 1.41741,3.2128 -3.87426,-1.88988 -11.52828,-7.46503 -11.52828,-7.46503 0,0 7.9375,7.46503 11.81176,9.07143 3.87425,1.6064 -2.74033,0 -7.46503,-3.59077 -4.7247,-3.59078 -4.8192,-3.02381 -4.8192,-3.02381 0,0 9.26042,7.9375 11.90625,9.07143 2.64584,1.13392 -1.98437,0.47247 -5.29166,-1.13393 -3.3073,-1.6064 -5.76414,-2.64584 -5.76414,-2.64584 0,0 5.95312,4.8192 7.37053,4.8192 1.41741,0 -2.36235,0.0945 -4.6302,-0.47247 -2.26786,-0.56696 -3.3073,-0.66146 -3.3073,-0.66146 0,0 4.91369,2.74033 6.80357,3.59077 1.88989,0.85045 9.35491,1.88989 9.35491,1.88989 0,0 -2.45684,0.75595 -4.6302,0.85044 -2.17337,0.0945 4.81919,1.79539 6.80357,1.6064 1.98437,-0.18899 7.08705,-0.94494 7.08705,-0.94494 l -3.87425,1.51191 c 0,0 2.45684,0.56696 3.87425,0.47246 1.41741,-0.0945 24.37947,0.75596 27.68676,-2.17336 3.30729,-2.92931 5.38616,-5.10268 5.38616,-5.10268 0,0 -1.41741,3.68527 -2.45685,4.53572 -1.03943,0.85045 -3.02381,1.79539 -3.02381,1.79539 0,0 4.53572,-0.56697 7.37054,-4.63021 2.83482,-4.06325 5.48065,-13.22917 5.48065,-13.22917 l -1.22842,-20.410714 -4.25223,-8.409971 z"
id="tail" paintable title="horse tail"
inkscape:connector-curvature="0"
inkscape:label="#path1217" />
<path
d="m 65.767857,180.86161 -5.669643,9.4494 c 0,0 3.590774,2.45685 7.559524,-1.5119 3.96875,-3.96875 1.511904,-7.18155 6.236605,-10.96131 4.724704,-3.77977 5.751976,-4.8584 6.420149,-5.45975 0.668174,-0.60136 4.142677,-4.61041 4.142677,-4.61041 0,0 5.412208,-2.80633 6.548104,-3.74177 1.135895,-0.93544 2.739514,-2.73951 2.739514,-2.73951 0,0 5.278572,-4.00904 4.944486,-10.15624 -0.334087,-6.1472 -2.271792,-9.48807 -1.536801,-12.2944 0.734991,-2.80633 3.942228,-12.22758 5.345388,-13.76438 1.40317,-1.5368 3.14042,-2.47225 5.41221,-5.87993 2.27179,-3.40769 3.60814,-7.88445 4.14268,-8.48581 0.53454,-0.60136 15.83572,-17.506154 17.43933,-15.033911 1.60362,2.472246 -1.9377,6.214021 -4.61039,12.361221 -2.6727,6.1472 -3.60814,8.95352 -4.67722,10.95805 -1.06908,2.00452 -7.48355,8.75307 -7.48355,8.75307 0,0 -2.80633,3.27406 -4.47676,6.28084 -1.67044,3.00678 -4.6104,11.5594 -4.6104,11.5594 0,0 -0.86863,1.87089 -1.33635,3.20724 -0.46772,1.33635 -0.80181,6.48128 -1.5368,8.21854 -0.73499,1.73725 -3.073598,5.67947 -3.207233,6.21401 -0.133636,0.53454 -0.267269,2.20498 -0.467723,2.6727 -0.200451,0.46772 -2.939965,3.34087 -3.207234,5.54584 -0.267269,2.20497 0.06682,5.14494 -0.133633,5.67948 -0.200454,0.53454 -3.674957,9.6217 -3.674957,9.6217 l 0.133633,10.3567 c 0,0 4.744035,1.46998 9.087165,-2.47225 4.343132,-3.94222 4.009042,-7.08264 4.009042,-7.08264 l -0.33409,-3.67496 c 0,0 -2.20497,-1.73725 -1.9377,-3.87541 0.26727,-2.13815 4.00904,-4.81085 4.2095,-5.94674 0.20045,-1.1359 -1.1359,-6.41447 -0.33409,-9.82216 0.80181,-3.40768 3.67495,-14.56619 6.08038,-17.7066 2.40543,-3.14042 5.47902,-8.08491 10.42351,-11.96031 4.94449,-3.87541 7.21628,-5.27858 8.41899,-6.41447 1.20272,-1.1359 7.684,-8.08491 11.22532,-10.08943 3.54132,-2.00452 8.55263,-5.54584 9.02035,-6.34765 0.46772,-0.80181 3.34087,-4.87767 5.74629,-4.54358 2.40543,0.33409 7.2831,3.40769 7.55037,7.01583 0.26727,3.60813 2.87314,18.37478 2.93996,19.51067 0.0668,1.13589 0.73499,8.81989 0.46772,9.88897 -0.26727,1.06908 -1.73725,4.81085 -1.33634,6.74856 0.4009,1.9377 2.67269,5.14494 2.80633,6.81537 0.13363,1.67043 1.06907,17.10525 0.73499,20.98066 -0.33409,3.87541 -1.33635,4.81085 -1.46999,5.94675 -0.13363,1.13589 0.33409,2.67269 0.13364,4.07586 -0.20045,1.40316 -5.27857,9.42125 -5.27857,9.42125 l -3.94223,6.61492 c 0,0 2.00452,1.00226 8.01809,0.53454 6.01356,-0.46772 7.14946,-0.46772 7.14946,-0.46772 0,0 1.73725,-1.67044 1.5368,-3.94223 -0.20046,-2.27179 -3.14042,-4.47677 -2.00453,-7.61718 1.1359,-3.14042 1.60362,-1.60362 3.40769,-3.60814 1.80407,-2.00452 0.93544,-11.62623 0.26727,-14.49937 -0.66817,-2.87315 -3.80859,-14.43256 -2.73951,-17.17207 1.06908,-2.73951 3.14042,-6.01356 3.40768,-8.88671 0.26727,-2.87315 -1.20271,-9.42125 -0.73499,-12.02713 0.46773,-2.60588 2.00453,-12.96257 2.73951,-17.17207 0.735,-4.20949 0.53454,-11.49259 1.5368,-12.49485 1.00227,-1.00226 6.74856,0.93545 11.49259,0.46772 4.74404,-0.46772 6.94901,-2.47224 7.88446,-1.73725 0.93544,0.73499 0.33408,9.48807 1.5368,11.82668 1.20271,2.33861 6.48128,7.21628 7.48354,10.82442 1.00226,3.60813 -0.20045,6.68173 0.60136,9.48806 0.80181,2.80633 2.53906,6.01357 2.87315,19.77795 0.33408,13.76438 0.53454,14.83346 0.20045,15.56845 -0.33409,0.73499 -1.67044,2.47224 -1.73725,4.00904 -0.0668,1.5368 0.66817,4.14268 0.26727,5.34539 -0.40091,1.20271 0.33408,2.47224 -2.07134,5.54584 -2.40543,3.0736 -8.21854,9.95579 -7.2831,11.35896 0.93545,1.40316 6.34765,0.86862 9.08717,0.80181 2.73951,-0.0668 6.81537,-0.26727 6.81537,-0.26727 0,0 1.87089,-1.67044 1.60362,-3.80859 -0.26727,-2.13816 -3.0736,-6.74856 -2.33861,-9.02035 0.73499,-2.27179 4.40994,-4.34313 4.34313,-6.94901 -0.0668,-2.60588 -2.07134,-6.1472 -1.93771,-7.95127 0.13364,-1.80407 1.46999,-26.19241 1.46999,-26.19241 l 0.73499,-8.35217 c 0,0 1.46998,-5.67948 1.46998,-6.48129 0,-0.80181 -2.93996,-4.81085 -3.27405,-7.21627 -0.33409,-2.40543 -0.20045,-5.01131 -0.53454,-7.34992 -0.33409,-2.3386 -1.20271,-5.74629 -1.20271,-5.74629 0,0 -0.60136,-9.42125 0.60135,-11.225321 1.20272,-1.804069 7.48355,-5.612661 9.15398,-7.216277 1.67044,-1.603619 10.69079,-11.358957 10.69079,-11.358957 l -4.14268,4.810853 c 0,0 -1.40317,7.283095 0.46772,11.358954 1.87089,4.075858 4.94448,7.216278 4.94448,8.886718 0,1.67043 1.40317,8.61944 1.87089,10.35669 0.46772,1.73725 2.33861,8.0849 2.00452,9.95579 -0.33408,1.87089 -2.3386,6.34765 -1.5368,7.95127 0.80181,1.60361 7.55037,21.51519 7.75082,28.0633 0.20045,6.5481 -1.46998,11.69304 -1.46998,11.69304 0,0 -1.20272,1.60361 -1.00226,3.20723 0.20045,1.60362 3.00678,4.81086 2.73951,7.684 -0.26727,2.87315 -2.20498,5.87993 -2.20498,5.87993 l -1.26952,5.54584 c 0,0 0.66817,0.46772 5.67947,0.46772 5.01131,0 4.2095,-0.73499 4.2095,-0.73499 l 0.0668,-5.34539 c 0,0 -1.33634,-6.88219 -0.93544,-8.41899 0.40091,-1.5368 1.40317,-3.20723 1.1359,-5.34539 -0.26727,-2.13815 -1.80407,-3.4745 -2.27179,-5.67947 -0.46773,-2.20498 -3.0736,-19.37704 -2.87315,-22.6511 0.20045,-3.27405 2.80633,-7.55036 2.20497,-11.1585 -0.60136,-3.60814 -3.34087,-7.21628 -3.00678,-10.69078 0.33409,-3.4745 3.60814,-7.55036 3.94223,-15.83572 0.33408,-8.28535 -1.20272,-6.21402 -1.53681,-9.82215 -0.33408,-3.608144 4.47677,-27.662401 3.94223,-35.413216 -0.53454,-7.750816 0.53454,-26.459683 -12.56167,-40.624968 -13.0962,-14.165285 -25.3906,-16.83798 -35.27957,-15.5016323 -9.88898,1.3363473 -20.57976,10.1562413 -23.51972,10.1562413 -2.93997,0 -7.21628,-8.285355 -18.70887,-6.949007 -11.49259,1.336348 -20.84702,10.423512 -20.84702,10.423512 0,0 -17.10525,15.234362 -35.54685,39.28862 C 92.742524,86.584527 84.1899,104.75885 84.1899,104.75885 l -6.1472,7.75082 3.411167,4.56845 -10.110861,-12.28422 c 0,0 0.283482,5.76413 0.661458,6.70907 0.377976,0.94495 5.197171,8.97694 5.197171,8.97694 l -3.96875,-6.52009 c 0,0 -3.96875,-4.44122 -4.535712,-4.8192 -0.566966,-0.37797 -2.74033,-1.03943 -3.685268,-2.64583 -0.944941,-1.6064 -2.173364,-3.40178 -2.55134,-3.40178 -0.377976,0 -0.755952,3.77976 0.755952,6.61458 1.511906,2.83482 4.724701,7.27604 4.724701,7.27604 l 0.377979,2.92932 c 0,0 -6.331104,13.22916 -6.614584,13.98511 -0.283482,0.75596 -3.779763,19.1823 -3.779763,19.1823 0,0 -1.700892,9.26041 -2.173361,10.01636 -0.472472,0.75596 -3.685271,8.31548 -4.063246,9.44941 -0.377976,1.13393 -2.173362,9.35491 -1.984375,10.77232 0.188989,1.41741 3.023809,6.61458 5.008184,7.37054 1.984375,0.75595 4.063246,0.85044 4.630208,0.56696 0.566965,-0.28348 6.425597,-10.39434 6.425597,-10.39434 z"
id="body" paintable title="horse body"
inkscape:connector-curvature="0"
inkscape:label="#path1199" />
<g
inkscape:groupmode="layer"
id="layer3"
inkscape:label="Horse"
transform="translate(0,-85.333317)">
<path paintable
d="m 90.042155,272.53 c 0,0 5.011304,-1.00226 7.750815,-2.87315 2.73952,-1.87088 3.55754,-2.61398 3.55754,-2.61398 0,0 0.20045,0.66817 0.66817,1.13589 0.46772,0.46773 1.13589,1.33635 1.13589,1.33635 0,0 0.80181,3.00678 0.40091,4.40995 -0.40091,1.40316 -2.40543,6.1472 -6.347655,8.15172 -3.942225,2.00452 -7.299306,0.94355 -7.299306,0.94355 z"
id="foot_fr" title="horseshoe"
inkscape:connector-curvature="0"
sodipodi:nodetypes="ccccccscc"
inkscape:label="#path1219" />
<path paintable
d="m 164.20773,279.82401 -5.87959,9.71668 c 0,0 2.12275,1.0337 7.60341,0.65572 5.48065,-0.37798 7.9375,-0.75595 7.9375,-0.75595 0,0 2.26785,-2.83482 1.32291,-4.7247 -0.94494,-1.88989 -1.88988,-3.40179 -1.88988,-3.40179 z"
id="foot_fl" title="horseshoe"
inkscape:connector-curvature="0"
sodipodi:nodetypes="ccscccc"
inkscape:label="#path1221" />
<path paintable
d="m 207.53479,275.75205 c 0,0 -6.21402,7.2831 -5.41221,8.61945 -0.73499,2.13815 16.03617,0.8018 16.03617,0.8018 0,0 1.9377,-1.60361 1.60362,-3.80859 -0.33409,-2.20497 -1.46999,-4.00904 -1.46999,-4.00904 z"
id="foot_br" title="horseshoe"
inkscape:connector-curvature="0"
sodipodi:nodetypes="cccccc"
inkscape:label="#path1223" />
</g>
<path
d="m 146.19643,22.97438 c 0,0 -12.56167,-1.069078 -17.63979,1.603617 -5.07812,2.672694 -8.28535,5.078122 -9.6217,5.345391 -1.33635,0.267269 3.20723,2.672694 4.81085,2.672694 1.60362,0 1.33635,0.53454 -3.74177,2.405427 -5.07813,1.870887 -6.68174,5.078122 -6.68174,5.078122 0,0 3.74177,-2.672697 6.68174,-2.672697 2.93996,0 -7.75082,4.009043 -10.15624,6.681737 -2.40543,2.672697 -3.74178,6.1472 -3.74178,6.1472 0,0 4.27631,-4.81085 5.34539,-4.81085 1.06908,0 -4.27631,5.612659 -6.949,7.216277 l -2.6727,1.603616 c 0,0 -3.474504,2.405425 -4.543582,3.474503 -1.069078,1.069078 3.741772,-0.801807 6.681732,-1.336347 2.93997,-0.534538 -5.612654,2.672697 -7.216273,4.276312 -1.603615,1.603619 -7.483546,8.819896 -7.483546,8.819896 0,0 5.078121,-4.009043 7.216278,-4.276312 2.138156,-0.267272 -5.345391,4.81085 -7.216278,6.681737 -1.870887,1.870887 -4.810852,6.949006 -4.810852,6.949006 0,0 3.741774,-3.741772 6.41447,-4.276312 2.672694,-0.534538 -6.681739,5.345393 -7.750817,7.216277 -1.069078,1.870888 -2.405425,3.474506 -2.405425,3.474506 0,0 3.741772,-3.207234 5.879928,-3.741774 2.138158,-0.534538 -5.078119,6.147199 -7.483547,7.216277 -2.405425,1.069078 -5.34539,5.612659 -5.34539,5.612659 0,0 6.147199,-3.207234 7.750818,-3.474503 1.603616,-0.267269 -3.741775,5.078122 -3.741775,5.078122 0,0 -5.612659,2.939965 -7.216277,4.543579 -1.603616,1.60362 -3.207234,4.27631 -3.207234,4.27631 0,0 6.147199,-4.54358 8.819896,-3.74177 2.672693,0.80181 -2.405428,3.4745 -2.405428,3.4745 l -0.200452,3.0736 4.409947,5.07812 6.481286,-7.88445 c 0,0 11.542798,-22.068076 25.123331,-40.090424 15.57539,-20.669662 37.41774,-41.694046 37.41774,-41.694046 z"
id="neck_hair" paintable title="horse hair"
inkscape:connector-curvature="0"
sodipodi:nodetypes="csssscsccsccsccccscssccscscccsccccscc"
inkscape:label="#path1201" />
<path
d="m 71.895501,114.64783 c 0,0 -4.009041,0.53454 -7.750815,3.4745 -3.741772,2.93997 -1.603616,5.34539 -4.276313,7.21628 -2.672696,1.87089 -8.018086,4.54358 -8.018086,4.54358 0,0 1.870887,1.60362 4.276312,0.53454 2.405427,-1.06908 6.949009,-4.27631 6.949009,-4.27631 0,0 -8.018087,4.81085 -8.552625,6.41447 -0.53454,1.60361 0.267269,5.07811 -1.336347,5.87992 -1.603618,0.80181 -2.939965,3.20724 -2.939965,3.20724 0,0 7.216277,-2.40543 8.018084,-4.54358 0.801809,-2.13816 2.405428,-3.47451 2.405428,-3.47451 0,0 -1.336347,9.08717 -3.207235,10.15624 -1.870887,1.06908 -4.276312,5.34539 -4.276312,5.34539 0,0 6.414469,-2.13815 7.750815,-3.74177 1.336347,-1.60362 3.741775,-9.35443 3.741775,-9.35443 l 0.801806,3.20723 c 0,0 1.870888,-6.1472 1.33635,-7.75081 -0.53454,-1.60362 1.870885,-9.08717 1.870885,-9.08717 0,0 1.603618,2.40543 1.336349,3.47451 -0.267271,1.06907 -0.267271,3.4745 -0.267271,3.4745 0,0 3.474505,-5.34539 3.207234,-7.21628 -0.267269,-1.87088 -1.069078,-7.48354 -1.069078,-7.48354 z"
id="front_hair" paintable title="horse hair"
inkscape:connector-curvature="0"
inkscape:label="#path1203" />
<path
d="m 53.483631,178.31027 c 0,0 3.212796,2.74032 3.118302,4.91369 -0.09449,2.17336 -1.039434,3.59077 -1.700892,2.83482 -0.661458,-0.75596 -1.41741,-2.36235 -0.944941,-2.92932 0.472472,-0.56696 0.661458,-2.26785 0.661458,-2.26785 z"
id="nose"
inkscape:connector-curvature="0"
inkscape:label="#path1205" />
<path
d="m 75.704093,138.368 c 0,0 -0.668173,4.54358 -3.006783,6.01356 -2.338607,1.46998 -5.34539,1.40317 -5.34539,1.40317 0,0 -0.133633,-4.07586 1.403165,-4.81086 1.5368,-0.73499 5.479026,0.20046 5.479026,0.20046 0,0 0.400904,-0.26727 0.668173,-0.86863 0.267269,-0.60135 0.801809,-1.9377 0.801809,-1.9377 z"
id="outer_eye"
inkscape:connector-curvature="0"
inkscape:label="#path1207" />
<path
d="m 68.554634,144.78247 c 0,0 0.334086,-2.13816 1.469982,-2.20498 1.135896,-0.0668 2.672694,0.80181 2.672694,0.80181 0,0 -1.670434,1.06908 -2.405425,1.26953 -0.734991,0.20045 -1.737251,0.13364 -1.737251,0.13364 z"
id="inner_eye"
inkscape:connector-curvature="0"
inkscape:label="#path1209" />
<path
id="eye_irris"
sodipodi:type="arc"
sodipodi:cx="71.026871"
sodipodi:cy="143.4127"
sodipodi:rx="0.8018086"
sodipodi:ry="0.70158249"
sodipodi:start="1.4900557"
sodipodi:end="1.4889002"
d="m 71.091539,144.112 a 0.8018086,0.70158249 0 0 1 -0.863846,-0.64251 0.8018086,0.70158249 0 0 1 0.734048,-0.75605 0.8018086,0.70158249 0 0 1 0.86427,0.64207 0.8018086,0.70158249 0 0 1 -0.733549,0.75643 l -0.06559,-0.69924 z"
inkscape:label="#path1211" />
<path
d="m 72.949405,160.82887 c 0,0 7.181546,4.91369 10.961309,4.7247 3.779761,-0.18899 8.126486,-2.45685 8.126486,-2.45685 v 0"
id="cheek_shadow"
inkscape:connector-curvature="0"
inkscape:label="#path1213" />
<path
d="m 91.09226,123.7872 c 0,0 7.370537,-0.56696 9.26042,-1.88988 1.88988,-1.32292 9.26041,-16.63095 13.98512,-21.73363 4.7247,-5.10268 16.63095,-17.00893 17.57589,-18.520834 0.94494,-1.511905 -3.59077,7.748511 -9.07143,13.607143 -5.48065,5.858631 -13.04018,12.851191 -13.98512,14.552081 -0.94494,1.70089 -6.42559,11.33929 -8.50446,12.47322 -2.078872,1.13392 -4.34673,1.70089 -6.236609,2.07887 -1.889881,0.37797 -3.023811,-0.56697 -3.023811,-0.56697 z"
id="neck_shadow"
inkscape:connector-curvature="0"
inkscape:label="#path1215" />
<path
d="m 247.00744,196.31138 1.32291,-5.48065 8.59896,-0.23624 0.18899,5.57515 c 0,0 0.75595,0.8032 -5.14992,0.61421 -5.90588,-0.18899 -4.96094,-0.47247 -4.96094,-0.47247 z"
id="foot_bl" paintable title="horseshoe"
inkscape:connector-curvature="0"
inkscape:label="#path1225" />
    </svg>
