<?xml version="1.0" encoding="UTF-8" standalone="no"?>
<!-- Created with Inkscape (http://www.inkscape.org/) -->

<svg
   xmlns:dc="http://purl.org/dc/elements/1.1/"
   xmlns:cc="http://creativecommons.org/ns#"
   xmlns:rdf="http://www.w3.org/1999/02/22-rdf-syntax-ns#"
   xmlns:svg="http://www.w3.org/2000/svg"
   xmlns="http://www.w3.org/2000/svg"
   xmlns:sodipodi="http://sodipodi.sourceforge.net/DTD/sodipodi-0.dtd"
   xmlns:inkscape="http://www.inkscape.org/namespaces/inkscape"
   width="550"
   height="500"
   viewBox="0 0 145.52083 132.29167"
   version="1.1"
   id="svg8"
   inkscape:version="0.92.3 (2405546, 2018-03-11)"
   sodipodi:docname="Horsey.svg">
  <defs
     id="defs2" />
  <sodipodi:namedview
     id="base"
     pagecolor="#ffffff"
     bordercolor="#666666"
     borderopacity="1.0"
     inkscape:pageopacity="0.0"
     inkscape:pageshadow="2"
     inkscape:zoom="0.69999999"
     inkscape:cx="191.46472"
     inkscape:cy="262.85715"
     inkscape:document-units="mm"
     inkscape:current-layer="g2102"
     showgrid="false"
     inkscape:pagecheckerboard="false"
     showguides="false"
     inkscape:snap-global="false"
     inkscape:window-width="1366"
     inkscape:window-height="713"
     inkscape:window-x="0"
     inkscape:window-y="27"
     inkscape:window-maximized="1"
     units="px" />
  <metadata
     id="metadata5">
    <rdf:RDF>
      <cc:Work
         rdf:about="">
        <dc:format>image/svg+xml</dc:format>
        <dc:type
           rdf:resource="http://purl.org/dc/dcmitype/StillImage" />
        <dc:title></dc:title>
      </cc:Work>
    </rdf:RDF>
  </metadata>
  <g
     inkscape:label="Layer 1"
     inkscape:groupmode="layer"
     id="layer1"
     transform="translate(0,-164.70832)">
    <g
       id="g979"
       transform="translate(-13.779441,-3.7607682)">
      <g
         id="g2080"
         transform="matrix(0.8203827,0,0,0.8203827,-1.2447116,35.212194)">
        <g
           id="g2102">
          <g
             id="g2108"
             transform="matrix(1.5668641,0,0,1.5668641,-10.80767,-138.52359)">
            <path
               style="fill:#f9f9f9;fill-rule:evenodd;stroke:none;stroke-width:0.32251209px;stroke-linecap:butt;stroke-linejoin:miter;stroke-opacity:1"
               d="m 54.28504,259.2987 c 0,0 -18.397816,-4.18171 -18.081145,-7.98177 0.325786,-3.90944 4.561009,-11.8912 18.732717,-19.54719 11.23461,-6.06927 42.026445,-19.71007 42.026445,-19.71007 0,0 5.538373,-6.18994 7.167303,-6.51573 1.62893,-0.32578 7.40501,0.73518 9.28491,3.42076 2.28051,3.25786 1.14025,5.53837 1.14025,5.53837 0,0 -3.42075,8.14466 -10.09938,6.35283 -6.678614,-1.79182 -13.357236,-2.60629 -16.777993,-0.81446 -3.420759,1.79182 -23.293728,27.20316 -25.248448,31.27549 -1.954717,4.07233 -8.144659,7.98177 -8.144659,7.98177 z"
               id="path2096"
               inkscape:connector-curvature="0"
               sodipodi:nodetypes="cssccscscsc" />
            <path
               style="fill:#b58c6d;stroke-width:0.26458332"
               d="m 119.30059,214.16753 c 0.82532,1.3074 3.03663,1.56619 4.70272,0.55038 1.14741,-0.69957 1.58762,-0.66826 2.60176,0.18509 1.55573,1.30906 4.33554,-0.25595 3.28158,1.11877 -0.35644,0.46493 -0.26254,1.77515 -0.15449,2.71596 0.49483,4.30845 -6.66851,5.2905 -12.10579,1.65962 -1.86557,-1.24578 -2.21145,-1.13267 -1.95178,0.63824 0.40207,2.74194 3.42252,5.42396 6.10838,5.42396 1.7545,0 -1.14242,1.54926 -3.14934,1.7421 -2.21135,0.21248 -5.35431,-3.60354 -8.03273,-7.05636 1.65297,-2.97755 -0.36307,-2.82818 8.69969,-6.97776 z"
               id="path2092"
               inkscape:connector-curvature="0"
               sodipodi:nodetypes="cccccscsccc" />
            <path
               style="fill:#a36739;stroke-width:0.26458332"
               d="m 31.541468,256.17483 c 1.941136,0.38169 1.780271,0.56131 1.969104,-2.19859 0.399979,-5.8459 3.741557,-10.57068 11.109698,-15.70842 2.096045,-1.46156 1.987211,-1.45072 3.097212,-0.30825 4.009713,4.12704 13.859643,-1.5229 14.136897,-8.10894 l 0.05922,-1.40668 c 17.178353,-13.14881 31.623121,-23.91025 32.53292,-27.23615 0,0.83645 1.952123,-1.38784 2.82609,-2.12324 1.518515,-1.27774 4.079361,-2.24808 5.951701,-2.25517 l 0.82948,-0.003 -0.54086,1.85407 c -0.70381,2.41268 -0.56641,2.47161 1.72198,0.73858 1.17878,4.56191 4.83039,4.97246 3.68282,9.93393 0.12561,1.48272 0.0414,2.10703 1.8203,3.80932 1.48294,0.81831 2.32479,0.78404 3.6471,-0.32861 0.43235,-0.3638 1.01367,-0.66146 1.29181,-0.66146 0.27815,0 0.90917,-0.29765 1.40227,-0.66146 1.65666,-1.22224 3.50554,-0.85555 4.62463,0.9172 0.87042,1.37884 3.02028,1.75815 4.75565,0.83906 2.36097,-1.25042 5.2328,1.53952 3.34411,3.24876 -0.45088,0.40804 -0.55355,0.81232 -0.55355,2.17974 0,4.03074 -6.34277,4.64606 -11.61318,1.12662 -2.35074,-1.56976 -2.4977,-1.49762 -2.80557,1.3773 -0.39871,3.72312 1.49969,6.5832 4.36965,6.5832 0.47923,0 0.75197,0.10993 0.65639,0.26458 -0.99696,1.61312 -5.87827,-1.01836 -7.42514,-4.00283 -0.63314,-1.22156 -1.06033,-1.12638 -3.02119,0.67309 -4.55904,4.18383 -8.83059,4.18651 -12.659472,0.008 -0.859432,-0.93793 -1.671412,-1.70531 -1.8044,-1.70531 -1.493263,0 -7.827256,9.50139 -8.467265,12.70144 0.01677,4.2993 0.137184,4.24366 -2.566035,10.58122 -1.065485,5.32741 2.782525,23.44382 5.291278,24.29193 0.305657,0.10333 5.982127,9.53435 5.982127,9.95002 -1.710049,-0.14014 -13.162138,-0.8488 -13.0929,-3.50609 0.882592,-1.59159 0.485535,-1.35527 -0.46542,-2.42041 -1.508168,-1.68926 -1.178211,-3.84638 0.888841,-5.81092 2.645093,-2.5139 -0.246563,-13.19251 -3.670827,-13.55602 l -0.79375,-0.0843 -0.147402,2.51354 c -0.217606,3.71071 -1.281292,5.55905 -4.187248,7.27604 -4.873862,3.9733 -3.333196,2.97154 -0.163266,6.90022 l 1.113598,1.39702 c 2.561441,1.74076 6.92953,7.01148 6.124916,7.81296 -1.006787,1.00287 -12.121638,0.98123 -14.396935,0.11006 -2.621759,-1.00383 -3.934077,-3.51844 -3.042378,-5.86379 0.413374,-1.08726 -0.101997,-1.26758 -2.655957,-0.92932 -2.672538,0.35397 -10.753857,0.44572 -13.336995,0.15143 -15.507932,0.41302 -19.247509,-11.54188 -15.820052,-18.36037 z m 21.695919,-2.73955 c 3.623434,-1.77403 4.692774,-4.52644 2.698522,-6.94582 -1.982266,-2.40482 -6.445353,-1.28004 -9.546982,2.40604 -3.501705,4.16154 1.223434,7.2938 6.84846,4.53978 z m 53.122583,-38.13263 c 1.43179,-1.12625 1.89862,-3.70879 0.9954,-5.50655 -1.40947,-2.80537 -5.36729,-2.84364 -6.14057,-0.0594 -1.937711,4.77971 3.13818,7.10076 5.14515,5.56594 z"
               id="path2088"
               inkscape:connector-curvature="0"
               sodipodi:nodetypes="cscccccccccccccsccsssscsccccscccccscccscccccscccccscccccc" />
            <path
               style="fill:#704526;stroke-width:0.26458332"
               d="m 34.866735,290.02571 c -2.698469,-5.35487 -3.057575,-6.00349 -3.515465,-6.34965 -0.335128,-0.25335 -0.407088,-0.57625 -0.289672,-1.2998 0.110257,-0.67943 0.04269,-1.04835 -0.229616,-1.25376 -0.212212,-0.16008 -0.658795,-1.42215 -0.992405,-2.8046 -0.6499,-2.69311 -2.105759,-6.38757 -2.540326,-6.44644 -0.147084,-0.0199 -0.294638,0.7279 -0.33226,1.68394 -0.170958,4.34432 -0.579419,10.128 -0.725594,10.27417 -0.431499,0.4315 -0.597828,-1.0027 -0.756445,-6.52258 -0.259425,-9.028 -0.666342,-10.95358 -1.431541,-6.77423 -0.404554,2.20959 -1.523145,5.6957 -2.264559,7.05754 -2.442107,4.48569 -0.40502,-9.34675 2.172291,-14.75052 3.068466,-6.43357 8.820233,-8.75799 9.537258,-3.85422 0.332522,2.27413 0.965299,4.68006 1.282441,4.87606 0.10549,0.0652 1.144193,-0.47812 2.308229,-1.20738 4.941784,-3.09599 10.969632,-5.45012 12.196788,-4.76337 0.368565,0.20626 0.15357,0.3434 -1.107329,0.70634 -3.644487,1.04904 -11.580819,6.16693 -12.733324,8.21132 -1.831884,3.24951 0.644678,5.51031 7.861337,7.17644 0.945886,0.21838 2.136511,0.67976 2.645834,1.02528 0.509322,0.34552 1.553503,0.87311 2.320401,1.17242 1.545336,0.60311 4.029599,1.8236 4.029599,1.9797 0,0.0551 -1.275602,-0.3135 -2.834672,-0.81905 -2.812399,-0.91197 -6.841149,-1.44542 -7.886547,-1.04426 -0.557744,0.21403 -0.05976,0.96051 0.640768,0.96051 1.621586,0 11.706919,6.38284 11.086145,7.01624 -0.101714,0.10378 -0.548198,0.062 -0.992187,-0.0927 -1.178198,-0.41072 -1.035831,0.0846 0.383368,1.33384 2.159656,1.901 1.529376,2.00408 -2.139921,0.34996 -4.003461,-1.80475 -3.766392,-1.08163 0.684712,2.08857 4.189318,2.98374 4.37872,3.83557 0.710602,3.1959 -3.82084,-0.6663 -7.713123,-2.35085 -9.430978,-4.08167 -2.048484,-2.06395 -5.033433,-4.64353 -5.228503,-4.51846 -0.271632,0.17417 -0.285823,0.13911 1.548243,3.82398 3.060659,6.14923 1.354532,7.55521 -1.806634,1.4888 -1.378469,-2.64533 -1.795736,-2.0618 -0.741688,1.03722 0.667809,1.96344 0.882219,4.23334 0.399872,4.23334 -0.143872,0 -0.966572,-1.39899 -1.828222,-3.10886 z m 32.517879,-8.14653 c -1.25753,-0.35349 -3.175987,-1.69988 -3.175987,-2.22893 0,-0.0832 1.309688,-1.7329 2.910417,-3.66592 1.600729,-1.93301 2.910417,-3.60129 2.910417,-3.70727 0,-0.10598 -1.23905,-0.40233 -2.753445,-0.65855 -5.278967,-0.89314 -9.946556,-2.1992 -9.946556,-2.78319 0,-0.13704 1.339453,-0.33005 2.976563,-0.42891 4.005085,-0.24185 7.547861,-0.81474 9.880346,-1.59773 l 1.928855,-0.6475 2.336512,1.56547 c 3.90372,2.6155 4.304397,3.39094 1.795433,3.47475 -3.052509,0.10198 -3.29057,0.58189 -1.017437,2.05109 2.293136,1.48212 6.629779,7.74552 5.605018,8.0953 -2.417635,0.82522 -11.174142,1.17117 -13.450136,0.53139 z m 21.311725,-1.47193 c -6.062335,-0.63856 -7.914765,-1.53729 -6.760628,-3.27997 0.289123,-0.43657 0.526465,-0.99236 0.527423,-1.23511 0.0019,-0.48737 6.14898,-5.37948 6.759451,-5.37948 0.288679,0 6.206876,9.61974 6.206876,10.08897 0,0.16817 -4.53372,0.0373 -6.733122,-0.19441 z m -10.685246,-25.8357 c -0.13149,-0.25466 -0.388255,-0.93927 -0.57059,-1.52136 -1.247769,-3.98336 -4.226139,-7.48371 -7.940209,-9.33177 -2.359113,-1.17386 -2.329302,-1.50823 0.05083,-0.57007 4.073097,1.60547 8.21631,6.54894 9.352241,11.15862 0.209555,0.85038 -0.483669,1.05594 -0.892268,0.26458 z m 6.575044,-9.92188 c 0.0085,-0.6153 0.784157,-4.02373 1.35023,-5.93362 l 0.562766,-1.89872 1.885477,-0.13899 c 1.03701,-0.0764 3.909539,-0.27069 6.383393,-0.43166 5.391287,-0.35082 9.951637,-0.91058 13.361457,-1.64008 3.68114,-0.78754 3.88236,-0.8138 4.8482,-0.6326 1.13055,0.21209 4.15944,2.74932 6.25734,5.24162 1.79553,2.13309 1.9005,2.45768 0.86686,2.68044 -0.40019,0.0863 -2.10596,0.45385 -3.7906,0.81691 -6.69995,1.44388 -8.22562,1.38202 -7.99676,-0.32425 l 0.13881,-1.03486 -1.15141,-0.15443 c -1.26437,-0.16959 -2.01914,-0.86138 -2.26141,-2.07272 -0.08,-0.39988 -0.28886,-0.78211 -0.46419,-0.84939 -0.99028,-0.38001 -12.777092,3.35414 -16.967957,5.37558 -3.046473,1.46945 -3.028688,1.46359 -3.022206,0.99677 z M 55.080502,227.9147 c -0.145521,-0.0498 -0.83013,-0.16678 -1.521354,-0.25991 -1.743716,-0.23491 -1.570242,-0.54699 0.523681,-0.94208 2.042401,-0.38538 1.722753,-0.72699 -0.722119,-0.77175 -2.777008,-0.0508 1.287494,-1.14308 5.967008,-1.60348 4.320765,-0.42511 4.434642,-1.05291 0.190989,-1.05291 -1.543634,0 -2.721657,-0.0849 -2.617827,-0.18878 0.357153,-0.35715 4.797203,-1.15885 6.910872,-1.24782 2.632414,-0.11082 4.630208,-0.40814 4.630208,-0.68909 0,-0.33562 -1.383273,-0.55479 -3.215677,-0.50949 -2.298091,0.0568 -6.91964,-0.30847 -6.656078,-0.5261 0.237771,-0.19633 4.229233,-0.96256 6.312533,-1.2118 2.340234,-0.27997 2.331905,-0.68764 -0.01265,-0.61943 -6.241725,0.1816 -5.02557,-1.16703 1.698101,-1.88308 4.432959,-0.47209 5.250114,-0.9688 1.741482,-1.05856 -4.541732,-0.11619 -4.026818,-0.63483 1.058333,-1.06599 5.853581,-0.49631 6.054487,-0.96924 0.669759,-1.5766 -8.055118,-0.90856 -4.595001,-2.22053 3.932666,-1.49114 1.935501,0.16554 2.698689,0.15167 2.576002,-0.0468 -0.172884,-0.27974 -0.406442,-0.36526 -3.47426,-1.27226 -1.713285,-0.50654 -2.756556,-1.11247 -2.769812,-1.60872 -0.02058,-0.77061 2.086362,-0.514 6.856982,0.83515 5.560296,1.57247 5.83783,1.07025 0.807617,-1.46145 -3.672552,-1.84838 -6.752762,-3.95716 -5.780069,-3.95716 0.443436,0 7.558209,2.35863 8.926851,2.95935 1.534737,0.67363 2.037734,0.22446 0.59232,-0.52893 -0.581813,-0.30326 -1.780191,-1.11234 -2.663058,-1.79794 -3.564662,-2.76821 -1.054536,-2.04691 5.075518,1.45848 2.198103,1.25696 1.930101,0.60026 -1.015296,-2.48784 -5.843831,-6.12695 -3.974849,-5.86608 2.369474,0.33073 2.392907,2.33727 2.49447,2.34835 2.426112,0.26458 -0.07005,-2.13543 -0.639651,-3.80481 -2.266021,-6.64123 -1.349624,-2.35376 -1.520709,-2.81762 -1.039222,-2.81762 1.061365,0 2.440249,2.62753 3.748929,7.14375 1.00412,3.46519 1.395126,3.73963 1.405921,0.98677 0.01341,-3.42023 0.823863,-8.31339 1.29835,-7.83891 0.206497,0.2065 0.668523,4.83796 0.673939,6.75575 0.0026,0.91664 0.176657,1.95333 0.399831,2.38125 0.352964,0.67678 0.395419,0.69584 0.396875,0.17815 7.93e-4,-0.31883 0.107196,-0.64494 0.23622,-0.72468 0.129024,-0.0797 0.310769,-0.55106 0.403876,-1.04736 0.09311,-0.49631 0.345807,-1.04888 0.561556,-1.22794 0.21575,-0.17905 0.651241,-0.78633 0.967762,-1.3495 1.073076,-1.90928 1.722046,-0.5336 0.722413,1.53136 -0.370811,0.766 -0.663948,1.98791 -0.760717,3.17097 -0.18782,2.29625 -0.392904,2.55763 -4.378439,5.58041 -3.918437,2.9719 -19.431392,13.0812 -23.812501,15.51786 -0.436562,0.24281 -1.508125,0.9062 -2.38125,1.4742 l -1.5875,1.03274 -3.571875,-0.002 c -1.964531,-0.001 -3.690937,-0.043 -3.836458,-0.0928 z m 6.283854,-2.15952 c -0.181901,-0.0734 -0.479557,-0.0734 -0.661458,0 -0.181901,0.0734 -0.03307,0.13345 0.330729,0.13345 0.363802,0 0.51263,-0.0601 0.330729,-0.13345 z m 2.516627,-0.27115 c -0.252966,-0.0662 -0.729216,-0.0686 -1.058333,-0.005 -0.329118,0.0633 -0.122148,0.11747 0.459935,0.1204 0.582084,0.003 0.851363,-0.0488 0.598398,-0.11506 z m 29.124731,-2.3979 c -0.39125,-0.96833 -0.420989,-4.82536 -0.04225,-5.4795 0.261546,-0.45173 0.322323,-0.34942 0.471522,0.79375 0.0942,0.72177 0.412247,2.06276 0.706774,2.97997 0.692335,2.15608 -0.332418,3.69475 -1.136047,1.70578 z m 9.606986,-7.39417 c -1.79323,-0.88353 -3.052275,-4.18939 -2.086,-5.47717 0.33752,-0.44981 0.36416,-0.35048 0.25596,0.95424 -0.12833,1.54751 0.2235,2.59054 0.87382,2.59054 0.21316,0 0.38756,-0.22207 0.38756,-0.49348 0,-0.82709 1.02012,-1.88777 1.81557,-1.88777 0.61032,0 0.71726,0.10984 0.7084,0.72761 -0.009,0.6002 0.11697,0.74226 0.71718,0.81132 1.03226,0.11877 0.92367,0.76363 -0.35348,2.09909 -1.22571,1.28168 -1.13976,1.25664 -2.31901,0.67562 z m 16.95882,-1.45583 c -0.39495,-0.39495 -0.88114,-0.5733 -1.514,-0.55536 -1.08879,0.0309 -1.24473,-0.46606 -0.34419,-1.09682 1.12452,-0.78764 3.11613,0.28893 3.11613,1.68444 0,0.71311 -0.52606,0.69962 -1.25794,-0.0323 z m -8.7325,-1.0043 c -0.97182,-0.59252 -1.92179,-1.98368 -1.89805,-2.77955 0.0145,-0.48513 0.0357,-0.47962 0.25507,0.0661 0.31255,0.77758 0.73739,0.75631 1.04483,-0.0523 0.28702,-0.75495 1.44285,-1.59293 1.85002,-1.34128 0.15429,0.0954 0.20881,0.28943 0.12115,0.43127 -0.28138,0.45528 0.46788,1.07264 1.10709,0.91221 1.05755,-0.26543 1.00675,1.66606 -0.0545,2.07331 -0.20496,0.0787 -0.37265,0.31259 -0.37265,0.51987 0,0.33539 -0.52998,0.69979 -1.01383,0.69708 -0.0972,-5.3e-4 -0.56484,-0.23758 -1.03911,-0.52675 z m -6.41373,-6.07215 c -4.579877,-0.18846 -4.886926,-0.37456 -3.54094,-2.1461 0.38081,-0.50121 1.03684,-1.65544 1.45784,-2.56495 0.421,-0.9095 0.92223,-1.65364 1.11384,-1.65364 0.19161,0 1.46122,-0.83344 2.82135,-1.85208 1.36013,-1.01865 2.65437,-1.85209 2.8761,-1.85209 0.22173,0 -0.12196,0.38617 -0.76375,0.85815 -1.37437,1.01072 -0.98109,1.26265 1.00005,0.64063 3.80705,-1.19532 3.61523,-0.37156 -0.38115,1.63679 -2.36476,1.18839 -2.41114,1.48304 -0.18869,1.19871 2.28954,-0.29292 8.364,-0.30192 9.73285,-0.0144 l 1.03061,0.21646 -0.89832,0.55549 c -0.49408,0.30551 -1.30527,0.62473 -1.80264,0.70936 -1.30885,0.2227 -1.27187,0.66827 0.0989,1.19177 1.97341,0.75366 1.78262,1.01819 -0.65617,0.90977 -2.79097,-0.12408 -2.98171,0.24012 -0.73902,1.41107 l 1.67143,0.87268 -1.14465,0.0823 c -0.77192,0.0555 -1.48536,-0.0952 -2.19096,-0.46303 -1.31233,-0.68402 -2.26349,-0.68872 -3.27897,-0.0162 -0.47417,0.31402 -1.16659,0.50566 -1.71979,0.47596 -0.50932,-0.0273 -2.53339,-0.11586 -4.49792,-0.19669 z m -7.038261,-2.15564 c 0.35315,-2.20848 1.671754,-3.94447 2.996091,-3.94447 0.82512,0 0.80523,0.0583 -0.918763,2.69342 -1.698302,2.59582 -2.355673,2.99172 -2.077328,1.25105 z m -11.328014,-2.96578 c -0.758148,-1.18517 -1.742054,-3.17582 -1.742054,-3.52454 0,-0.73501 0.963771,0.31173 1.674125,1.81825 1.576339,3.34311 1.606957,4.11218 0.06793,1.70629 z"
               id="path2084"
               inkscape:connector-curvature="0" />
          </g>
        </g>
      </g>
    </g>
    <g
       id="g961"
       transform="translate(81.264881,-14.174107)" />
    <rect
       style="opacity:1;fill:#ffffff;fill-opacity:1;stroke:none;stroke-width:1;stroke-miterlimit:4;stroke-dasharray:none;stroke-opacity:1"
       id="rect995"
       width="95.682487"
       height="137.37653"
       x="294.51065"
       y="60.008327"
       ry="3.9196432" />
  </g>
</svg>
