<?xml version="1.0" encoding="UTF-8" standalone="no"?>
<svg
   xmlns:dc="http://purl.org/dc/elements/1.1/"
   xmlns:cc="http://creativecommons.org/ns#"
   xmlns:rdf="http://www.w3.org/1999/02/22-rdf-syntax-ns#"
   xmlns:svg="http://www.w3.org/2000/svg"
   xmlns="http://www.w3.org/2000/svg"
   xmlns:sodipodi="http://sodipodi.sourceforge.net/DTD/sodipodi-0.dtd"
   xmlns:inkscape="http://www.inkscape.org/namespaces/inkscape"
   width="350pt"
   height="500pt"
   viewBox="0 0 123.47223 176.3889"
   version="1.1"
   class="art jack"
   id="svg8"
   sodipodi:docname="Jack_paint.svg"
   inkscape:version="0.92.3 (2405546, 2018-03-11)">
  <sodipodi:namedview
     pagecolor="#ffffff"
     bordercolor="#666666"
     borderopacity="1"
     objecttolerance="10"
     gridtolerance="10"
     guidetolerance="10"
     inkscape:pageopacity="0"
     inkscape:pageshadow="2"
     inkscape:window-width="1366"
     inkscape:window-height="713"
     id="namedview829"
     showgrid="false"
     inkscape:zoom="0.48818743"
     inkscape:cx="818.81947"
     inkscape:cy="534.63073"
     inkscape:window-x="0"
     inkscape:window-y="27"
     inkscape:window-maximized="1"
     inkscape:current-layer="layer1"
     units="pt" />
  <defs
     id="defs2" />
  <metadata
     id="metadata5">
    <rdf:RDF>
      <cc:Work
         rdf:about="">
        <dc:format>image/svg+xml</dc:format>
        <dc:type
           rdf:resource="http://purl.org/dc/dcmitype/StillImage" />
        <dc:title></dc:title>
      </cc:Work>
    </rdf:RDF>
  </metadata>
  <g
     id="layer1"
     transform="translate(0,-120.6111)">
    <g
       id="g961"
       transform="matrix(0.63512603,0,0,0.63512603,49.805184,-2.2631403)" />
    <g
       id="g979"
       transform="matrix(0.70067226,0,0,0.70067226,-21.237098,105.19035)">
      <path
         inkscape:connector-curvature="0"
         style="fill:#e6e6e6;stroke:#060606;stroke-width:0.44174427;stroke-miterlimit:4;stroke-dasharray:none;stroke-opacity:1"
         d="m 155.97739,204.52862 c 3.33945,-49.42948 6.72001,-32.26697 26.07587,-40.50657 -6.43638,-27.66136 -21.35747,-32.36402 -34.18282,-35.3693 -6.50797,-1.52497 -9.942,-4.42118 -2.23676,-6.37292 108.17416,-85.337529 -144.96333654,-70.405206 -37.36655,-5.56528 12.3657,0.0502 -1.43979,11.96487 -5.68015,13.42847 -13.902699,4.24987 -28.139837,11.08264 -28.67576,13.76222 -1.093196,7.75747 -2.155646,13.86516 0.524426,21.12528 0.834696,0.71708 1.210873,0.71153 6.999279,-0.10339 7.361609,-1.03641 6.741688,-1.61354 5.865378,5.46036 -1.464556,11.8224 -2.993244,29.56919 -2.582456,29.97998 34.532763,13.13805 37.530693,9.16592 71.259543,4.16111 z"
         id="path991" />
      <path
         inkscape:connector-curvature="0"
         style="fill:#e6e6e6;stroke:#060606;stroke-width:0.44104975;stroke-opacity:1"
         d="m 164.27211,219.99983 c -0.6266,-0.75499 -1.60466,-4.50835 -2.30323,-8.83882 -0.7911,-4.90397 -1.04422,-5.14207 -4.24393,-3.99214 -3.05813,1.09906 -4.56181,0.8007 -4.56181,-0.90513 0,-0.6022 -0.32,-1.27399 -0.71108,-1.49285 -0.58054,-0.32489 -0.47934,-0.44649 0.55132,-0.66248 0.6943,-0.14553 2.40188,-1.31599 3.79459,-2.60107 1.39272,-1.28508 2.78134,-2.40244 3.08583,-2.48302 5.27658,-1.39642 7.32396,-19.64422 3.21182,-28.62628 -0.6183,-1.35056 -1.07171,-2.49463 -1.00759,-2.5424 0.0642,-0.0476 2.18126,-0.33028 4.70468,-0.62782 2.52345,-0.29752 6.33657,-0.98176 8.47363,-1.52052 l 3.88553,-0.97958 0.48745,2.00534 c 2.37992,9.79097 0.32149,21.63414 -4.91063,28.25325 l -1.79177,2.26675 2.41924,4.92833 c 4.81449,9.80786 4.89202,14.09039 0.13202,7.29458 -1.23717,-1.76631 -1.29218,-0.49069 -0.10653,2.47094 2.29056,5.7217 0.87307,6.34978 -2.31433,1.02545 -2.24543,-3.75085 -2.80656,-3.89329 -2.24581,-0.57004 1.40353,8.31793 -0.867,10.37726 -3.11587,2.82601 -1.12938,-3.79224 -1.97238,-4.06121 -1.60004,-0.5105 0.42904,4.09158 -0.52955,6.85315 -1.83348,5.282 z M 71.277016,163.61068 c -6.028694,-1.85137 -11.101015,-7.36615 -15.694034,-17.06306 -1.227865,-2.59229 -2.271497,-4.7662 -2.319181,-4.83089 -0.04768,-0.0646 -2.547745,-0.51893 -5.555692,-1.00938 -12.655212,-2.0635 -17.601402,-4.18647 -10.430802,-4.47706 3.836125,-0.15552 3.952039,-0.5132 0.768944,-2.37316 -5.074964,-2.96542 -4.942126,-4.46375 0.270646,-3.05272 3.726888,1.00883 3.78031,0.81487 0.495752,-1.7999 -4.364655,-3.47459 -3.239731,-4.60873 2.106187,-2.1234 4.07932,1.89647 4.187104,1.9367 4.187104,1.56251 0,-0.19323 -1.091599,-1.75622 -2.425773,-3.47329 -4.614537,-5.9389 -2.576601,-5.83352 5.457323,0.28219 4.405178,3.35337 4.117211,3.47601 3.783887,-1.61147 -0.654988,-9.99704 3.085181,-6.98151 6.154149,4.96182 1.26241,4.91284 1.180864,4.80722 7.563039,9.79652 1.927522,1.50685 4.655613,3.78928 6.062425,5.07208 l 2.557837,2.33234 -0.132053,9.32072 -0.132065,9.32072 z m 41.770244,-35.64615 c -1.02621,-1.22567 -2.2284,-2.2285 -2.67156,-2.2285 -2.79961,0 -19.081346,-5.77082 -25.791769,-9.14152 C 70.10203,109.32015 66.450748,90.993574 75.728753,72.148493 108.2746,19.312854 188.78523,40.056033 188.19064,84.063596 c 2.09225,3.193171 -0.24603,8.019336 -5.91804,12.214769 -1.18034,0.873073 -1.83519,1.931161 -2.78221,4.495405 -4.29767,11.63695 -14.81963,19.77304 -30.29651,23.42673 -2.78965,0.65856 -5.36978,1.30497 -5.73365,1.43649 -0.36388,0.13152 -0.84174,0.19715 -1.0619,0.14585 -2.21566,-0.51582 -6.70149,0.98944 -8.8788,2.97938 -4.51228,4.90761 -14.28542,6.39449 -20.47227,-0.79769 z m 10.26394,-9.04218 c 2.94909,-1.05178 4.65432,-3.36247 5.86882,-7.95259 0.73965,-2.79551 0.37682,-3.11427 -2.23152,-1.96047 -2.62077,1.15928 -7.51554,1.24806 -10.40767,0.18875 -3.62586,-1.32805 -3.51321,-1.33087 -3.51321,0.0877 0,4.14558 2.98035,8.92481 6.07935,9.74871 2.18755,0.58159 2.26504,0.57952 4.20423,-0.11201 z M 100.01665,102.2024 c 8.79684,-5.861473 9.05527,-12.410204 7.98422,-19.284632 C 106.4216,73.041587 95.614848,69.052429 88.827215,75.840074 77.992181,86.675098 87.139268,108.22567 100.01665,102.2024 Z m 53.05497,-0.0995 c 5.78865,-3.472529 8.44049,-13.685729 7.82021,-18.903788 -1.84366,-10.584518 -13.18532,-14.366016 -19.96993,-6.658306 -9.97325,11.330219 -0.26772,31.749964 12.14972,25.562094 z M 116.35923,89.972578 c 0.45452,-0.735413 -0.56773,-1.578745 -1.17615,-0.970304 -0.50895,0.508939 -0.19042,1.449788 0.49083,1.449788 0.21394,0 0.52233,-0.215772 0.68532,-0.479484 z m 15.35786,-0.754467 c 0.34872,-0.564232 -0.4602,-1.554789 -0.99818,-1.222297 -0.70808,0.437609 -0.60324,1.574143 0.14519,1.574143 0.34954,0 0.73339,-0.158361 0.85299,-0.351846 z m -10.75058,-5.087765 c 0,-0.323439 -0.13069,-0.71866 -0.29021,-0.878274 -0.39886,-0.398856 -1.52274,0.589603 -1.22259,1.075266 0.37583,0.608087 1.5128,0.460045 1.5128,-0.196992 z m 6.61575,-2.278757 c 0,-0.367541 -0.39205,-0.661575 -0.88211,-0.661575 -0.49005,0 -0.88211,0.294034 -0.88211,0.661575 0,0.367539 0.39206,0.661573 0.88211,0.661573 0.49006,0 0.88211,-0.294034 0.88211,-0.661573 z"
         id="path993" />
      <path
         inkscape:connector-curvature="0"
         style="fill:#e6e6e6;stroke:#060606;stroke-width:0.44104975;stroke-opacity:1"
         d="m 123.03717,157.60189 c -0.10263,-0.18193 -0.0277,-5.49106 0.1667,-11.79808 0.33613,-10.91043 0.1841,-13.03416 -0.8509,-11.8863 -0.20779,0.23046 -3.40386,4.53731 -7.10241,9.57077 -8.20388,11.16494 -7.47744,10.91395 -8.6059,2.9735 -1.55168,-10.91847 -0.57425,-18.33442 2.64226,-20.04743 l 1.62487,-0.86535 2.27083,2.49164 c 2.76062,3.02905 5.03889,4.20682 8.97943,4.64201 l 2.9945,0.33071 -0.1562,12.12887 c -0.16286,12.64102 -0.17649,12.79045 -1.16688,12.79045 -0.33525,0 -0.69351,-0.14886 -0.79616,-0.33079 z m -5.18869,-3.89615 c -0.7736,-0.93213 -0.002,-2.16828 1.35382,-2.16828 1.3556,0 2.12742,1.23615 1.35384,2.16828 -0.31885,0.38419 -0.92808,0.69853 -1.35384,0.69853 -0.42574,0 -1.03496,-0.31434 -1.35382,-0.69853 z m 14.42016,-11.15688 c -6.9393,-10.95196 -6.60387,-9.92803 -3.56529,-10.88378 1.69867,-0.5343 3.24282,-1.46505 4.81599,-2.90283 2.33572,-2.13471 7.56356,-3.72967 9.10408,-2.77757 0.94976,0.58698 -0.86192,14.2785 -2.68086,20.26017 -0.22128,0.72773 -0.61964,2.16665 -0.8852,3.19762 -0.69848,2.71148 -0.71064,2.69912 -6.78872,-6.89361 z m -13.71843,2.76037 c -1.36499,-1.36499 0.24647,-3.5625 1.86499,-2.54326 1.35163,0.85121 0.78142,3.25836 -0.77184,3.25836 -0.20793,0 -0.69984,-0.3218 -1.09315,-0.7151 z m -3.56164,-55.336652 c -0.45451,-0.735413 0.56774,-1.578745 1.17617,-0.970304 0.50893,0.508939 0.19041,1.449788 -0.49083,1.449788 -0.21395,0 -0.52233,-0.215772 -0.68534,-0.479484 z m 15.23998,-1.038166 c 0,-0.905959 0.91308,-1.351105 1.34336,-0.654899 0.19945,0.322707 0.26478,0.745082 0.14519,0.938598 -0.37067,0.599757 -1.48853,0.386702 -1.48853,-0.283699 z m -10.77484,-4.607074 c -0.30015,-0.485663 0.82373,-1.474122 1.22259,-1.075266 0.15952,0.159611 0.29021,0.554835 0.29021,0.878274 0,0.657037 -1.13697,0.805079 -1.5128,0.196992 z m 6.36433,-2.475749 c 0,-0.367541 0.39206,-0.661575 0.88211,-0.661575 0.49006,0 0.88211,0.294034 0.88211,0.661575 0,0.367539 -0.39205,0.661573 -0.88211,0.661573 -0.49005,0 -0.88211,-0.294034 -0.88211,-0.661573 z"
         id="path989" />
      <path
         inkscape:connector-curvature="0"
         style="fill:#e6e6e6;stroke:#060606;stroke-width:0.44104975;stroke-opacity:1"
         d="m 88.647885,254.4859 0.325728,-25.89334 c 0.383052,-30.45104 -0.548546,-26.67558 6.216363,-25.19271 18.093014,3.96605 37.220934,4.76687 52.320964,2.19054 5.45801,-0.93123 5.6522,-0.90702 5.6522,0.70456 0,0.69325 0.29318,1.195 0.77184,1.32095 0.71943,0.18928 0.78328,1.72163 0.9405,22.57029 0.1792,23.76526 0.23103,23.1051 -1.8459,23.51707 -5.89202,2.83023 -5.17858,2.80943 -17.72897,4.32591 l -2.2755,0.27724 -2.27548,0.27724 -0.28055,-3.0229 c -4.11222,-44.31099 -13.3094,-44.57805 -20.56478,-0.59713 -0.58715,3.55924 -1.08074,4.58408 -2.03196,4.21907 -9.993012,-0.79728 -18.83545,-4.51954 -19.224455,-4.69679 z"
         id="path987" />
      <path
         inkscape:connector-curvature="0"
         style="fill:#e6e6e6;stroke:#060606;stroke-width:0.44104975;stroke-opacity:1"
         d="m 78.42173,271.89756 c -1.754018,-1.75402 1.92381,-6.28572 11.511964,-14.18468 2.717952,-2.23912 1.695655,-2.18663 9.311114,-0.47803 7.182082,1.61138 7.311032,1.74836 4.332532,4.60227 -7.217972,6.91602 -22.277349,12.9387 -25.15561,10.06044 z m 76.06455,-3.664 c -8.65298,-1.89741 -16.88387,-6.21712 -17.8907,-9.38931 -0.39083,-1.23137 -0.15903,-1.32964 7.06039,-2.99286 l 6.32354,-1.45685 4.34836,2.33864 c 16.89039,9.08397 16.97447,15.18781 0.15836,11.50038 z"
         id="path985" />
      <path
         inkscape:connector-curvature="0"
         style="fill:#e6e6e6;stroke:#060606;stroke-width:0.44104975;stroke-opacity:1"
         d="m 187.78037,91.077889 c 4.20304,-6.80074 -3.88951,-10.691425 -10.82878,-5.206198 -2.6141,2.066313 -2.75693,1.926004 -3.0134,-2.960366 -0.22396,-4.266933 0.81724,-8.342567 3.01426,-11.798891 1.67033,-2.627744 1.40013,-2.949584 -2.00306,-2.385902 -6.97237,1.154836 -9.29066,-2.180533 -7.04526,-10.136115 1.01124,-3.58293 0.91815,-3.62382 -3.4032,-1.495196 -7.68384,3.784915 -13.69398,3.647708 -15.84426,-0.36173 -1.31249,-2.447264 -1.39806,-2.445263 -5.07767,0.118854 -10.36431,7.22247 -16.91722,7.175744 -19.34643,-0.137858 -0.89213,-2.685888 -0.47752,-2.747366 -4.47502,0.663484 -5.74682,4.903461 -12.68755,6.060365 -14.89831,2.483286 -0.52944,-0.85665 -1.55282,-0.53006 -3.9065,1.246669 -5.779154,4.362551 -10.057417,5.09898 -14.042526,2.417209 C 84.649005,62.00345 84.489789,61.96331 82.786199,62.485451 69.085803,66.684556 61.809557,50.187791 74.82305,44.431312 c 1.100633,-0.486869 2.001518,-1.045233 2.001908,-1.240801 4.44e-4,-0.195568 1.819806,-0.402354 4.043081,-0.459498 4.985289,-0.128189 5.501997,-0.286033 5.846216,-1.786364 0.895202,-3.901902 1.471192,-5.104347 3.427653,-7.155591 9.29674,-9.74708 29.530722,-11.837397 37.494672,-3.873448 2.01421,2.014222 2.08316,2.019623 4.39538,0.344661 6.73928,-4.881924 20.43739,-4.160914 26.1851,1.378276 l 1.78336,1.718669 3.72976,-1.380726 c 8.45187,-3.128818 17.75952,-1.855527 21.40864,2.928731 1.72145,2.25693 3.2452,6.816665 2.69157,8.054349 -0.58437,1.306346 -0.0755,1.792166 2.13708,2.040142 0.9626,0.107858 3.03258,0.334343 4.59996,0.503222 8.00172,0.862168 10.0492,8.629233 4.26801,16.190679 -1.94871,2.548797 -2.00563,3.428318 -0.2876,4.443197 5.48197,3.238269 4.54302,11.676085 -2.09743,18.848392 -3.32727,3.593798 -10.04183,8.312277 -8.67004,6.092703 z"
         id="path983" />
      <path
         inkscape:connector-curvature="0"
         style="fill:#e6e6e6;stroke:#060606;stroke-width:0.44104975;stroke-opacity:1"
         d="m 95.153006,97.179076 c -5.258242,-1.395172 -8.291129,-7.831575 -6.032778,-12.802744 3.996086,-8.796319 17.024052,-6.333801 17.993692,3.40111 0.6229,6.253711 -5.54704,11.103471 -11.960914,9.401634 z m 53.048314,0.03767 c -9.89759,-2.665046 -9.07572,-17.164259 1.03207,-18.207468 11.7199,-1.209601 14.89999,15.707333 3.44871,18.345899 -2.33514,0.538056 -1.92095,0.550841 -4.48078,-0.138366 z"
         id="path981" />
    </g>
  </g>
</svg>
