<?xml version="1.0" encoding="UTF-8" standalone="no"?>
<svg
   xmlns:dc="http://purl.org/dc/elements/1.1/"
   xmlns:cc="http://creativecommons.org/ns#"
   xmlns:rdf="http://www.w3.org/1999/02/22-rdf-syntax-ns#"
   xmlns:svg="http://www.w3.org/2000/svg"
   xmlns="http://www.w3.org/2000/svg"
   xmlns:sodipodi="http://sodipodi.sourceforge.net/DTD/sodipodi-0.dtd"
   xmlns:inkscape="http://www.inkscape.org/namespaces/inkscape"
   width="350"
   height="500"
   viewBox="0 0 92.604165 132.29167"
   version="1.1"
   id="svgLilly"
   inkscape:version="0.92.3 (2405546, 2018-03-11)"
   sodipodi:docname="Lilly.svg">
  <defs
     id="defs2" />
  <sodipodi:namedview
     id="base"
     pagecolor="#ffffff"
     bordercolor="#666666"
     borderopacity="1.0"
     inkscape:pageopacity="0.0"
     inkscape:pageshadow="2"
     inkscape:zoom="0.69999999"
     inkscape:cx="142.96928"
     inkscape:cy="210.43197"
     inkscape:document-units="mm"
     inkscape:current-layer="g979"
     showgrid="false"
     inkscape:pagecheckerboard="false"
     showguides="false"
     inkscape:snap-global="false"
     inkscape:window-width="1366"
     inkscape:window-height="713"
     inkscape:window-x="0"
     inkscape:window-y="27"
     inkscape:window-maximized="1"
     units="px" />
  <metadata
     id="metadata5">
    <rdf:RDF>
      <cc:Work
         rdf:about="">
        <dc:format>image/svg+xml</dc:format>
        <dc:type
           rdf:resource="http://purl.org/dc/dcmitype/StillImage" />
        <dc:title></dc:title>
      </cc:Work>
    </rdf:RDF>
  </metadata>
  <g
     inkscape:label="Layer 1"
     inkscape:groupmode="layer"
     id="layer1"
     transform="translate(0,-164.70832)">
    <g
       id="g979"
       transform="translate(-13.779441,-3.7607682)">
      <g
         id="g2034"
         transform="matrix(0.81990925,0,0,0.81990925,2.6452279,46.554022)">
        <path
           style="fill:#50b8e8;stroke-width:0.26458332"
           d="m 31.632412,295.99139 c -5.048873,-1.46172 -1.316837,-6.67498 5.865042,-8.19284 2.167286,-0.45804 2.147974,-0.42938 2.350693,-3.48928 0.09882,-1.49156 0.288951,-3.18743 0.422524,-3.76861 0.367874,-1.60063 -0.2412,-2.43561 -2.431415,-3.33325 -2.910133,-1.19267 -2.743023,-1.19627 -3.561253,0.0767 -0.402389,0.62602 -1.063017,1.52932 -1.468062,2.00733 -0.405045,0.478 -0.736445,1.109 -0.736445,1.4022 0,4.4812 -12.973647,9.08915 -14.931385,5.3033 -1.385366,-2.679 1.326579,-5.15131 7.39076,-6.73768 l 2.38125,-0.62293 0.183607,-2.62054 c 0.100984,-1.44129 0.243495,-2.93126 0.316692,-3.31103 0.118079,-0.61264 -0.08083,-0.83639 -1.76411,-1.98438 -1.043458,-0.71163 -3.13871,-2.49881 -4.656116,-3.9715 -3.242644,-3.14709 -3.232754,-3.09095 -1.152334,-6.54207 5.160349,-8.56029 16.011483,-14.41466 29.561843,-15.9491 2.92108,-0.33079 6.199632,-3.64462 7.764341,-7.8479 0.85848,-2.30613 0.960101,-2.20525 -2.406528,-2.38905 -9.732145,-0.53132 -17.760939,-6.56681 -25.198013,-18.94212 l -1.019099,-1.69578 0.738433,-0.58881 c 0.94583,-0.75418 0.99942,-0.66544 -2.068865,-3.42576 -5.6408,-5.07464 -7.165194,-8.4231 -2.477884,-5.44289 2.11704,1.34602 2.12481,1.31186 0.446986,-1.96521 -1.921709,-3.75341 -1.157122,-4.67125 1.207682,-1.44974 1.250325,1.70329 1.342599,1.57555 0.624662,-0.86471 -1.145384,-3.89315 0.209888,-3.84137 2.274127,0.0869 1.247152,2.37334 1.547651,2.53605 1.354529,0.73346 -0.645016,-6.02057 0.287327,-5.62274 2.844208,1.21361 0.975457,2.60809 1.337383,2.9877 1.599331,1.67746 0.219858,-1.0997 1.894292,-3.64835 2.396929,-3.64835 0.618154,0 0.632791,0.23324 0.257352,4.10104 -0.542282,5.58666 -0.59954,5.22521 0.79466,5.01614 1.167578,-0.17509 1.17324,-0.17204 1.738249,0.93547 0.726631,1.42431 0.943822,1.19759 0.52504,-0.54809 -1.360284,-5.67029 1.556083,-11.58832 6.066038,-12.30949 1.047096,-0.16744 1.419198,-0.65999 0.791617,-1.04785 -0.639148,-0.39502 -2.393158,-3.48388 -2.887908,-5.0857 -2.086285,-6.7546 1.260147,-12.47231 12.009426,-20.51929 13.83534,-10.35723 39.101582,-8.34876 55.690554,4.42695 10.0062,7.7061 11.87682,22.64019 4.10219,32.74978 -1.38131,1.79617 -1.37665,1.75187 -0.29462,2.79892 1.27035,1.22928 3.04641,1.90888 5.47888,2.09646 2.47174,0.1906 2.59669,0.3943 1.08148,1.7632 -1.25137,1.13054 -2.72212,1.91545 -4.05913,2.16627 -1.1552,0.21672 -1.14192,0.15821 -0.38456,1.69505 2.81224,5.70664 -2.70252,12.73926 -11.70782,14.93019 -1.38244,0.33635 -2.50838,0.7202 -2.50207,0.85301 0.006,0.13281 0.30272,1.13445 0.65871,2.22585 1.41808,4.34768 0.68913,9.92299 -2.05027,15.68144 -1.4411,3.0293 -1.59937,2.75428 2.30613,4.00745 10.00912,3.21166 15.40866,8.02486 17.31627,15.43589 3.2895,12.7796 -3.11254,18.90855 -21.04779,20.14995 -21.683578,1.50085 -41.84161,-0.3841 -51.959377,-4.85866 -1.554237,-0.68736 -2.517431,-0.85738 -2.517431,-0.44438 0,0.12651 -0.47625,0.82817 -1.058334,1.55923 -0.582083,0.73107 -1.058333,1.61646 -1.058333,1.96753 0,3.10937 -9.189683,7.68021 -13.141083,6.53622 z m 45.894086,-80.29277 c 1.953334,-1.36817 2.70192,-6.49691 0.805114,-5.51604 -1.442818,0.74611 -5.662142,-0.22204 -6.437884,-1.47722 -0.694137,-1.12314 -0.892315,1.79836 -0.261422,3.85386 0.87589,2.85373 3.958178,4.49543 5.894192,3.1394 z m 13.284496,-7.58048 0.926042,-0.58453 -1.240428,-0.15244 c -2.425824,-0.29811 -3.52026,-2.10706 -3.521342,-5.82028 -0.0019,-6.45747 5.036531,-8.20659 6.674003,-2.31693 0.58832,2.11606 1.000218,0.97754 0.585512,-1.61841 -0.979529,-6.13161 -6.248682,-8.22319 -8.642251,-3.43053 -3.724172,7.45693 -0.05339,17.25076 5.218464,13.92312 z m -23.860826,-4.27886 c 0.392015,-0.39202 0.339725,-0.42631 -0.650091,-0.42631 -2.050683,0 -3.299077,-1.86307 -3.480705,-5.19454 -0.394351,-7.23324 5.210376,-8.99161 6.823503,-2.14074 l 0.450049,1.91133 0.206007,-1.01343 c 0.847002,-4.16671 -1.406753,-9.2508 -4.258765,-9.60705 -5.899158,-0.73689 -8.232611,13.84693 -2.669866,16.68635 1.024803,0.52309 2.957574,0.40668 3.579868,-0.21561 z"
           id="path2048"
           inkscape:connector-curvature="0" />
        <path
           style="fill:#d0967b;stroke-width:0.26458332"
           d="m 32.338079,295.98628 c 0,-0.16518 -0.233313,-0.23443 -0.529167,-0.15706 -0.291041,0.0761 -0.529166,0.0234 -0.529166,-0.11705 0,-0.14049 -0.0893,-0.21096 -0.198438,-0.1566 -0.258877,0.12893 -1.381168,-1.04563 -1.185786,-1.24102 0.08223,-0.0822 0.03143,-0.1495 -0.112884,-0.1495 -0.144312,0 -0.253452,-0.41637 -0.242535,-0.92526 0.01092,-0.50889 0.116175,-0.92561 0.233903,-0.92604 0.117729,-5.3e-4 0.148179,-0.10737 0.06767,-0.23764 -0.08051,-0.13027 0.03263,-0.30555 0.251422,-0.38951 0.218795,-0.084 0.36694,-0.29939 0.32921,-0.47872 -0.03773,-0.17933 0.0751,-0.33148 0.25074,-0.33809 0.175636,-0.007 0.511888,-0.25015 0.747224,-0.54119 0.235337,-0.29105 0.350696,-0.35058 0.256353,-0.1323 -0.114458,0.26482 -0.04625,0.24418 0.204977,-0.062 0.207081,-0.2524 0.454036,-0.38138 0.548788,-0.28663 0.09475,0.0947 0.172276,0.0263 0.172276,-0.15202 0,-0.17836 0.119063,-0.25071 0.264583,-0.16077 0.145521,0.0899 0.264584,0.0304 0.264584,-0.1323 0,-0.16269 0.119062,-0.22222 0.264583,-0.13229 0.145521,0.0899 0.264583,0.0412 0.264583,-0.10837 0,-0.14954 0.178594,-0.20336 0.396875,-0.1196 0.218282,0.0838 0.396875,0.0242 0.396875,-0.13229 0,-0.15673 0.197801,-0.20868 0.440279,-0.11564 0.31304,0.12013 0.37993,0.0713 0.231451,-0.16894 -0.156471,-0.25317 -0.05954,-0.29051 0.386604,-0.14891 0.43249,0.13727 0.541096,0.10107 0.396875,-0.13229 -0.142576,-0.23069 -0.04002,-0.27096 0.363741,-0.14281 0.347848,0.1104 0.5623,0.064 0.5623,-0.12177 0,-0.17984 0.212209,-0.23289 0.529167,-0.13229 0.307515,0.0976 0.529167,0.0475 0.529167,-0.11951 0,-0.16783 0.253232,-0.22389 0.60851,-0.13472 0.869526,0.21823 1.173702,-0.57777 1.368882,-3.58223 0.08981,-1.38245 0.269145,-2.98103 0.398526,-3.5524 0.172726,-0.76278 0.135425,-1.23187 -0.140369,-1.7652 -0.279138,-0.53979 -0.295106,-0.75317 -0.06218,-0.83082 0.172384,-0.0575 -0.692587,-0.52559 -1.922161,-1.04028 -2.878439,-1.20489 -3.542266,-1.41522 -3.317166,-1.051 0.187444,0.30329 -0.811321,1.99571 -2.018433,3.42026 -0.405045,0.478 -0.736445,1.16261 -0.736445,1.52135 0,0.35874 -0.09042,0.65225 -0.200939,0.65225 -0.110516,0 -0.357431,0.25059 -0.5487,0.55686 -0.288026,0.4612 -0.287597,0.52255 0.0025,0.35714 0.192644,-0.10984 -0.06005,0.23489 -0.561536,0.76606 -0.954549,1.01106 -1.217501,1.18951 -0.935742,0.63505 0.09243,-0.1819 -0.06435,-0.0679 -0.348414,0.25333 -0.284064,0.32123 -0.587989,0.51255 -0.675389,0.42515 -0.0874,-0.0874 -0.233719,0.036 -0.325153,0.27432 -0.09143,0.23827 -0.272831,0.36735 -0.403103,0.28683 -0.130285,-0.0805 -0.236872,-0.0133 -0.236872,0.14943 0,0.1627 -0.119062,0.22223 -0.264583,0.13229 -0.145521,-0.0899 -0.264583,-0.0304 -0.264583,0.13229 0,0.1627 -0.119063,0.22223 -0.264584,0.1323 -0.145521,-0.0899 -0.264583,-0.0304 -0.264583,0.13229 0,0.16269 -0.119063,0.22223 -0.264583,0.13229 -0.145521,-0.0899 -0.264584,-0.0304 -0.264584,0.13229 0,0.1627 -0.119062,0.22223 -0.264583,0.13229 -0.145521,-0.0899 -0.264583,-0.0412 -0.264583,0.10838 0,0.14954 -0.178594,0.20336 -0.396875,0.1196 -0.218282,-0.0838 -0.396875,-0.0135 -0.396875,0.15621 0,0.16967 -0.119063,0.23492 -0.264584,0.14498 -0.14552,-0.0899 -0.264583,-0.0294 -0.264583,0.13451 0,0.17762 -0.213787,0.23017 -0.529167,0.13007 -0.291041,-0.0924 -0.529166,-0.052 -0.529166,0.0897 0,0.14171 -0.238125,0.19538 -0.529167,0.11927 -0.291042,-0.0761 -0.529167,-0.031 -0.529167,0.10019 0,0.13122 -0.714238,0.2344 -1.587196,0.2293 -0.872958,-0.005 -1.587333,-0.11131 -1.5875,-0.23603 -1.67e-4,-0.12471 -0.149132,-0.1795 -0.331033,-0.12176 -0.362653,0.11512 -1.814264,-1.25476 -1.578964,-1.49006 0.08019,-0.0802 0.03666,-0.14616 -0.09673,-0.14658 -0.133394,-5.3e-4 -0.251217,-0.41115 -0.261829,-0.91271 -0.01061,-0.50155 0.06621,-0.85907 0.170713,-0.79449 0.104504,0.0646 0.260651,-0.0667 0.346993,-0.29166 0.105682,-0.2754 0.04989,-0.34723 -0.170713,-0.21979 -0.180234,0.10412 0.02949,-0.15464 0.466051,-0.57503 0.436563,-0.42039 0.88636,-0.73642 0.99955,-0.70228 0.11319,0.0341 0.274494,-0.11696 0.358453,-0.33575 0.08396,-0.21879 0.259241,-0.33194 0.389513,-0.25142 0.130273,0.0805 0.236859,0.0133 0.236859,-0.14943 0,-0.1627 0.119063,-0.22223 0.264584,-0.13229 0.14552,0.0899 0.264583,0.0304 0.264583,-0.13229 0,-0.1627 0.119062,-0.22223 0.264583,-0.13229 0.145521,0.0899 0.264583,0.0304 0.264583,-0.1323 0,-0.16269 0.119063,-0.22222 0.264584,-0.13229 0.145521,0.0899 0.264583,0.0412 0.264583,-0.10837 0,-0.14954 0.178594,-0.20336 0.396875,-0.1196 0.218281,0.0838 0.396875,0.0242 0.396875,-0.13229 0,-0.15652 0.178594,-0.21606 0.396875,-0.13229 0.218281,0.0838 0.396875,0.0242 0.396875,-0.1323 0,-0.15652 0.178594,-0.21605 0.396875,-0.13229 0.218281,0.0838 0.396875,0.0125 0.396875,-0.15842 0,-0.19032 0.205054,-0.24564 0.529167,-0.14277 0.316957,0.1006 0.529166,0.0475 0.529166,-0.13229 0,-0.17984 0.21221,-0.23289 0.529167,-0.13229 0.291042,0.0924 0.529167,0.0491 0.529167,-0.0961 0,-0.14521 0.26789,-0.30206 0.595312,-0.34856 0.563306,-0.08 0.606768,-0.24814 0.80837,-3.12726 0.257278,-3.67422 0.296736,-3.72501 2.10228,-2.70602 l 1.424658,0.80402 6.123208,-5.66358 c 5.570622,-5.15248 6.680486,-6.0619 6.669651,-5.46515 -0.0019,0.10914 -0.654209,3.58442 -1.449395,7.72283 -0.795187,4.13841 -1.418643,7.54194 -1.385459,7.5634 1.428961,0.92403 12.497133,2.89003 18.420032,3.2719 4.047683,0.26096 3.846089,0.32957 4.242985,-1.44396 1.443011,-6.44804 6.427642,-10.40699 14.122423,-11.21644 6.517119,-0.68558 16.853016,-5.2768 16.853016,-7.48615 0,-0.51499 -0.09496,-0.47841 -0.992187,0.3822 -2.322076,2.22728 -4.772573,2.72789 -3.638021,0.7432 0.863782,-1.51103 0.720463,-1.58748 -2.976563,-1.58772 -17.296039,-10e-4 -30.444568,-5.58315 -35.184568,-14.93708 l -0.668417,-1.31906 1.158523,-0.93189 c 2.60609,-2.09628 4.203697,-4.22789 5.220092,-6.9649 0.856496,-2.30643 0.958469,-2.20526 -2.40792,-2.38905 -9.732145,-0.53132 -17.760939,-6.56681 -25.198013,-18.94212 l -1.019099,-1.69578 0.738433,-0.58881 c 0.94583,-0.75418 0.99942,-0.66544 -2.068865,-3.42576 -5.6408,-5.07464 -7.165194,-8.4231 -2.477884,-5.44289 2.11704,1.34602 2.12481,1.31186 0.446986,-1.96521 -1.921709,-3.75341 -1.157122,-4.67125 1.207682,-1.44974 1.250325,1.70329 1.342599,1.57555 0.624662,-0.86471 -1.145384,-3.89315 0.209888,-3.84137 2.274127,0.0869 1.247152,2.37334 1.547651,2.53605 1.354529,0.73346 -0.645016,-6.02057 0.287327,-5.62274 2.844208,1.21361 0.975457,2.60809 1.337383,2.9877 1.599331,1.67746 0.219858,-1.0997 1.894292,-3.64835 2.396929,-3.64835 0.618154,0 0.632791,0.23324 0.257352,4.10104 -0.542282,5.58666 -0.59954,5.22521 0.79466,5.01614 1.167578,-0.17509 1.17324,-0.17204 1.738249,0.93547 0.726631,1.42431 0.943822,1.19759 0.52504,-0.54809 -1.360284,-5.67029 1.556083,-11.58832 6.066038,-12.30949 1.047096,-0.16744 1.419198,-0.65999 0.791617,-1.04785 -0.639148,-0.39502 -2.393158,-3.48388 -2.887908,-5.0857 -2.086285,-6.7546 1.260147,-12.47231 12.009426,-20.51929 13.83534,-10.35723 39.101582,-8.34876 55.690557,4.42695 10.0062,7.7061 11.87682,22.64019 4.10219,32.74978 -1.38131,1.79617 -1.37665,1.75187 -0.29462,2.79892 1.27035,1.22928 3.04641,1.90888 5.47888,2.09646 2.47174,0.1906 2.59669,0.3943 1.08148,1.7632 -1.25137,1.13054 -2.72212,1.91545 -4.05913,2.16627 -1.1552,0.21672 -1.14192,0.15821 -0.38456,1.69505 2.81224,5.70664 -2.70252,12.73926 -11.70782,14.93019 -1.38244,0.33635 -2.50838,0.7202 -2.50207,0.85301 0.006,0.13281 0.30272,1.13445 0.65871,2.22585 1.41808,4.34768 0.68913,9.92299 -2.05027,15.68144 -1.4411,3.0293 -1.59937,2.75428 2.30613,4.00745 10.00912,3.21166 15.40866,8.02486 17.31627,15.43589 3.2895,12.7796 -3.11254,18.90855 -21.04779,20.14995 -21.683581,1.50085 -41.841613,-0.3841 -51.95938,-4.85866 -1.554237,-0.68736 -2.517431,-0.85738 -2.517431,-0.44438 0,0.12651 -0.47625,0.82817 -1.058334,1.55923 -0.624138,0.78388 -1.058333,1.61218 -1.058333,2.01894 0,0.37935 -0.138906,0.68972 -0.308681,0.68972 -0.169773,0 -0.231156,0.0775 -0.136404,0.17228 0.09475,0.0947 -0.03423,0.32328 -0.286631,0.50784 -0.252399,0.18456 -0.458909,0.49399 -0.458909,0.68762 0,0.19363 -0.15563,0.35206 -0.345842,0.35206 -0.190214,0 -0.587499,0.29765 -0.882856,0.66145 -0.295357,0.36381 -0.456817,0.48287 -0.358802,0.26459 0.09801,-0.21828 -0.08058,-0.0992 -0.396875,0.26458 -0.316296,0.3638 -0.496392,0.48286 -0.400214,0.26458 0.115594,-0.26234 0.04724,-0.24131 -0.201639,0.062 -0.207081,0.2524 -0.454035,0.38138 -0.548788,0.28663 -0.09475,-0.0947 -0.172275,-0.0263 -0.172275,0.15202 0,0.17836 -0.119063,0.25071 -0.264584,0.16077 -0.145521,-0.0899 -0.264583,-0.0304 -0.264583,0.13229 0,0.1627 -0.119063,0.22223 -0.264583,0.1323 -0.145521,-0.0899 -0.264584,-0.0304 -0.264584,0.13229 0,0.16269 -0.119062,0.22223 -0.264583,0.13229 -0.145521,-0.0899 -0.264583,-0.0304 -0.264583,0.13229 0,0.1627 -0.119063,0.22223 -0.264584,0.13229 -0.14552,-0.0899 -0.264583,-0.0412 -0.264583,0.10838 0,0.14954 -0.178594,0.20336 -0.396875,0.11959 -0.218281,-0.0838 -0.396875,-0.0242 -0.396875,0.1323 0,0.15652 -0.178594,0.21605 -0.396875,0.13229 -0.218281,-0.0838 -0.396875,-0.0316 -0.396875,0.11582 0,0.14747 -0.238125,0.20585 -0.529167,0.12974 -0.291041,-0.0761 -0.529166,-0.008 -0.529166,0.15045 0,0.18297 -0.305991,0.22763 -0.834891,0.12185 -0.596834,-0.11937 -0.780986,-0.0798 -0.645843,0.13891 0.129522,0.20957 -0.10745,0.30588 -0.75261,0.30588 -0.517911,0 -0.941656,-0.13295 -0.941656,-0.29544 z m 45.188419,-80.28766 c 1.953334,-1.36817 2.70192,-6.49691 0.805114,-5.51604 -1.442818,0.74611 -5.662142,-0.22204 -6.437884,-1.47722 -0.694137,-1.12314 -0.892315,1.79836 -0.261422,3.85386 0.87589,2.85373 3.958178,4.49543 5.894192,3.1394 z m 13.284496,-7.58048 0.926042,-0.58453 -1.240428,-0.15244 c -2.425824,-0.29811 -3.52026,-2.10706 -3.521342,-5.82028 -0.0019,-6.45747 5.036531,-8.20659 6.674003,-2.31693 0.58832,2.11606 1.000218,0.97754 0.585512,-1.61841 -0.979529,-6.13161 -6.248682,-8.22319 -8.642251,-3.43053 -3.724172,7.45693 -0.05339,17.25076 5.218464,13.92312 z m -23.860826,-4.27886 c 0.392015,-0.39202 0.339725,-0.42631 -0.650091,-0.42631 -2.050683,0 -3.299077,-1.86307 -3.480705,-5.19454 -0.394351,-7.23324 5.210376,-8.99161 6.823503,-2.14074 l 0.450049,1.91133 0.206007,-1.01343 c 0.847002,-4.16671 -1.406753,-9.2508 -4.258765,-9.60705 -5.899158,-0.73689 -8.232611,13.84693 -2.669866,16.68635 1.024803,0.52309 2.957574,0.40668 3.579868,-0.21561 z m -49.462504,82.719 c -0.329108,-0.41964 -0.31975,-0.429 0.09989,-0.0999 0.254662,0.19972 0.463021,0.40808 0.463021,0.46302 0,0.21776 -0.217272,0.0776 -0.562915,-0.36313 z"
           id="path2046"
           inkscape:connector-curvature="0" />
        <path
           style="fill:#ef4a9c;stroke-width:0.26458332"
           d="m 31.62712,295.72544 c -1.789055,-0.51762 -2.493562,-2.63085 -1.358243,-4.07417 1.297915,-1.65004 6.429368,-3.83622 9.004449,-3.83622 0.861844,0 1.03753,-0.0705 0.790586,-0.3175 -0.375452,-0.37545 -0.418243,-1.32398 -0.07579,-1.6801 0.325668,-0.33867 0.412539,-1.20954 0.174909,-1.75347 -0.283123,-0.64805 -0.06332,-1.68479 0.339108,-1.59946 0.272042,0.0577 0.306631,-0.29686 0.161332,-1.65365 -0.13885,-1.29656 -0.103243,-1.72707 0.142852,-1.72707 0.249843,0 0.255217,-0.0875 0.0226,-0.36775 -0.20933,-0.25222 0.009,-0.21618 0.695206,0.11473 1.291325,0.62277 6.801683,1.84052 8.328403,1.84052 0.648372,0 2.467068,0.18084 4.041547,0.40185 1.57448,0.22102 4.300175,0.42938 6.057098,0.46302 l 3.19441,0.0612 0.467966,-1.7198 c 1.619152,-5.95046 5.83475,-9.85279 11.454738,-10.60352 8.422291,-1.12507 12.513514,-2.4916 17.356309,-5.79726 0.855478,-0.58394 1.627889,-1.06171 1.716469,-1.06171 0.08858,0 0.135334,1.16085 0.103902,2.57968 -0.08386,3.78528 -0.0408,4.29948 0.360016,4.29948 0.437438,0 0.747077,-0.67631 1.36277,-2.97656 0.603814,-2.25587 0.809818,-2.24702 1.022739,0.0439 0.199012,2.14127 0.364707,2.66804 0.839245,2.66804 0.335672,0 0.440132,-0.31686 0.806863,-2.4474 0.240607,-1.39781 0.484741,-1.23642 0.85715,0.5666 0.632976,3.06457 1.779026,2.86432 1.563966,-0.27326 -0.16539,-2.41298 -0.15439,-2.42744 0.75268,-0.99054 0.97158,1.53907 1.32211,1.03332 0.77532,-1.11861 -2.15766,-8.49147 -2.636171,-9.47373 -5.268543,-10.81505 -2.663661,-1.35727 -3.45468,-1.18108 -4.438456,0.98859 -0.445231,0.98194 -1.033077,2.06956 -1.306325,2.41693 -0.273246,0.34738 -0.496811,0.88671 -0.496811,1.19851 0,1.56493 -0.485156,1.74298 -4.749469,1.74298 -17.009951,0 -29.554794,-5.22038 -34.402889,-14.31635 l -0.838623,-1.57341 2.232107,-2.17543 c 2.467314,-2.40467 4.198964,-5.35644 4.257971,-7.25814 l 0.03111,-1.00271 -2.549871,-0.0463 c -9.110472,-0.16549 -17.358772,-6.00437 -24.416103,-17.28389 -2.446886,-3.91078 -2.73558,-3.46808 4.045785,-6.2041 5.162949,-2.08305 4.836634,-2.06469 5.690142,-0.32018 1.051825,2.14986 1.8889,2.81684 1.34888,1.07479 -2.239626,-7.2248 0.154935,-13.29723 5.534295,-14.03455 1.478661,-0.20268 1.486686,-0.2881 0.190199,-2.02471 -4.602888,-6.16543 -3.684842,-12.68098 2.660806,-18.88421 6.97553,-6.81897 13.62307,-10.49782 21.386492,-11.8356 17.388131,-2.99629 41.212693,6.15225 47.251913,18.14455 3.80215,7.55005 2.22776,20.69382 -3.05098,25.47101 -1.76945,1.60134 1.53946,4.25793 5.6949,4.57221 1.16749,0.0883 1.9625,0.26693 1.9625,0.44096 -3e-5,0.76294 -3.24001,2.6833 -5.0028,2.96518 -1.28438,0.20538 -1.26122,0.0846 -0.36668,1.91293 2.99448,6.1205 -3.49751,13.63237 -12.96878,15.00614 -1.02915,0.14927 -1.24079,0.26697 -1.10619,0.61519 2.31045,5.97699 1.87759,11.86068 -1.35306,18.39202 -1.49111,3.01453 -1.53266,2.86771 1.01991,3.60324 12.7749,3.68113 18.63143,9.86601 19.16502,20.2395 0.64452,12.5303 -8.61223,15.9451 -41.720753,15.39073 -13.291277,-0.22255 -22.915541,-1.74514 -30.938334,-4.89454 -2.569385,-1.00863 -2.654144,-1.02347 -3.090675,-0.54111 -0.246861,0.27278 -0.582517,0.49596 -0.745905,0.49596 -0.449329,0 -1.213493,1.00184 -1.063101,1.39375 0.07273,0.18954 -0.115962,0.61105 -0.419328,0.93667 -0.371594,0.39886 -0.49471,0.77121 -0.377306,1.14112 0.7592,2.39203 -9.148136,7.07124 -12.759642,6.02635 z m 54.669736,-64.94491 c 1.872631,-1.69181 2.854039,-6.33318 1.339138,-6.33318 -0.613717,0 -0.673375,0.11458 -0.826558,1.5875 -0.280165,2.69392 -1.273141,4.10104 -2.894026,4.10104 -0.737206,0 -2.364833,-1.56707 -2.364833,-2.27685 0,-0.1673 -0.171526,-0.44654 -0.381169,-0.62053 -0.209642,-0.17399 -0.418002,-0.63505 -0.463021,-1.02459 -0.05629,-0.48708 -0.257228,-0.73326 -0.643487,-0.78837 -0.728499,-0.10395 -1.037754,0.67289 -0.503077,1.26371 0.22179,0.24507 0.403255,0.70647 0.403255,1.02532 0,3.02121 4.156336,5.03313 6.333778,3.06595 z m -3.865512,0.1647 c -1.295308,-0.78981 -2.820752,-3.71976 -1.936655,-3.71976 0.146867,0 0.635336,0.59858 1.085487,1.33017 2.062303,3.35166 5.113137,2.07807 5.463008,-2.28058 0.191913,-2.39082 1.019421,-2.3998 0.936334,-0.0102 -0.135294,3.89103 -2.949387,6.26495 -5.548174,4.68033 z M 79.61274,226.3253 c -0.166047,-0.43271 0.02908,-0.68733 0.526727,-0.68733 0.194027,0 0.352777,0.23813 0.352777,0.52917 0,0.60162 -0.663543,0.72094 -0.879504,0.15816 z m -7.670532,4.85209 c 1.412681,-0.53375 2.86432,-2.23361 2.567656,-3.00671 -0.260813,-0.67967 -0.856202,-0.48098 -1.924751,0.64229 -1.810102,1.90282 -4.528685,0.92044 -4.528076,-1.63625 2.64e-4,-1.12921 1.925182,-5.08944 2.992628,-6.15688 0.501769,-0.50177 0.580726,-1.08867 0.179795,-1.33645 -0.361363,-0.22334 -1.320549,0.10162 -1.320549,0.44738 0,0.15288 -0.374732,0.70477 -0.832739,1.22641 -1.166212,1.32824 -2.351407,3.99021 -2.517299,5.65389 -0.285136,2.85958 2.70894,5.17678 5.383335,4.16632 z m -3.004857,-0.49597 c -1.84008,-0.83546 -2.513746,-2.45754 -1.95571,-4.70904 0.387553,-1.56366 2.286113,-4.83232 2.806795,-4.83232 0.57595,0 0.471112,0.48103 -0.401077,1.84021 -2.301346,3.58634 -2.024467,6.53833 0.660495,7.04203 1.208477,0.22672 1.965309,-0.0709 2.970316,-1.16814 1.169829,-1.27716 1.826921,-0.79802 0.782847,0.57083 -1.291075,1.69269 -2.955698,2.12271 -4.863666,1.25643 z m 1.281885,-10.24494 c 0.111508,-0.57902 0.8803,-0.66093 0.8803,-0.0938 0,0.21629 -0.219173,0.43546 -0.487048,0.48705 -0.353589,0.0681 -0.461346,-0.0397 -0.393252,-0.39325 z m 5.197353,5.13309 c 0.06773,-0.58684 -0.02227,-0.72535 -0.471324,-0.72535 -0.615651,0 -0.945409,0.57023 -0.699836,1.21018 0.256567,0.6686 1.077243,0.32886 1.17116,-0.48483 z m -1.009761,0.0684 c 0,-0.29398 0.176389,-0.52916 0.396875,-0.52916 0.220485,0 0.396875,0.23518 0.396875,0.52916 0,0.29398 -0.17639,0.52917 -0.396875,0.52917 -0.220486,0 -0.396875,-0.23519 -0.396875,-0.52917 z m 6.962827,-1.70624 c 1.341081,-0.47829 2.00609,-1.10461 2.612964,-2.46094 l 0.503137,-1.12448 h 1.95638 c 1.076007,0 2.02307,-0.10791 2.10458,-0.2398 0.08151,-0.13189 0.773147,-0.32469 1.53697,-0.42845 11.539804,-1.56755 17.829984,-12.44076 15.788674,-27.29229 -0.36683,-2.66885 0.52207,-2.25294 -9.279191,-4.34172 -4.708165,-1.00337 -8.841219,-1.89044 -9.184561,-1.97125 -0.590825,-0.13907 -0.614605,-0.22422 -0.443984,-1.58984 0.222473,-1.7806 0.195948,-1.78032 -1.157496,0.0123 -0.886304,1.17391 -1.246293,1.45521 -1.862233,1.45521 -1.58142,1e-5 -1.600568,-0.0415 -1.600568,-3.46789 0,-3.78214 0.03224,-3.77232 -2.19026,-0.66711 -0.976093,1.36377 -1.953099,2.62762 -2.171123,2.80857 -0.320141,0.26569 -2.165837,0.0681 -9.593035,-1.02701 -5.058142,-0.74579 -9.278334,-1.35481 -9.378206,-1.35336 -0.333724,0.005 -2.774246,4.60266 -3.778073,7.11769 -5.233085,13.11118 -0.383876,22.82391 13.881531,27.80402 2.881617,1.00598 3.222091,1.28697 3.552801,2.93206 0.617596,3.07216 5.189733,5.08681 8.701693,3.83429 z m 7.48374,-17.66094 c -3.60281,-3.60281 -0.766371,-12.74669 2.976962,-9.59688 1.536366,1.29277 2.322136,6.24679 1.299715,8.19427 -1.158417,2.20652 -2.901191,2.7781 -4.276677,1.40261 z m 4.897149,-1.10292 c -0.471715,-0.56838 0.141885,-0.8734 2.183823,-1.08559 2.049497,-0.21297 2.278631,0.10716 0.687488,0.9605 -1.071208,0.57449 -2.448539,0.6345 -2.871311,0.12509 z m -18.918542,-1.51532 c -1.902158,-1.49624 -2.507067,-5.66975 -0.631351,-4.35594 0.49344,0.34561 0.513543,0.4122 0.124452,0.4122 -1.08191,0 -0.705141,2.03257 0.666308,3.59457 0.907339,1.0334 0.855316,1.14735 -0.159409,0.34917 z m 19.330318,-0.35252 c -0.223782,-0.58317 0.337476,-0.86037 2.138778,-1.05634 1.887738,-0.20538 2.142114,0.0855 0.79375,0.9076 -1.012275,0.6172 -2.719536,0.70379 -2.932528,0.14874 z m -29.473998,-0.87924 c -3.285434,-3.07011 -1.199552,-11.77806 2.409084,-10.05723 2.592615,1.23634 3.126603,7.61223 0.829882,9.90895 -1.113914,1.11392 -2.154616,1.16156 -3.238966,0.14828 z m 11.835172,-2.91083 c 0.839446,-0.41935 0.933583,-0.58013 1.006684,-1.71938 0.12759,-1.9884 1.109983,-1.31516 1.109983,0.76068 0,0.7101 -1.026972,1.42214 -2.050521,1.42172 l -0.992187,-5.3e-4 0.926041,-0.46261 z M 58.66412,199.07314 c -0.866802,-0.38261 -1.893557,-1.39543 -1.655734,-1.63325 0.208976,-0.20898 2.372665,0.43364 2.816392,0.83646 0.868593,0.78853 0.06711,1.33875 -1.160658,0.79679 z m -0.346731,-2.0462 c -1.144045,-0.56603 -1.985542,-1.55535 -1.316223,-1.54745 0.94792,0.0112 2.729555,0.7571 2.812246,1.17738 0.161631,0.82152 -0.335172,0.94441 -1.496023,0.37007 z m 29.42751,25.09452 c 0.413353,-0.6553 -0.434967,-1.47934 -1.021667,-0.99242 -0.492766,0.40895 -0.523462,0.85021 -0.08935,1.28432 0.389226,0.38923 0.739402,0.29723 1.111014,-0.2919 z m -0.877276,0.0926 c -0.399857,-0.24712 -0.215694,-1.07401 0.239204,-1.07401 0.387393,0 0.652442,0.77631 0.363649,1.0651 -0.132689,0.13269 -0.396277,0.13659 -0.602853,0.009 z m -68.185188,64.81251 c -4.461602,-1.80269 0.750535,-7.27297 7.437936,-7.80631 0.973563,-0.0777 1.051371,-0.14059 0.971416,-0.7859 -0.0478,-0.38582 0.02551,-0.84402 0.162932,-1.01822 0.361216,-0.4579 0.554142,-1.76004 0.285377,-1.92615 -0.422963,-0.2614 -0.234323,-1.31121 0.321063,-1.78674 0.530972,-0.45463 0.579426,-0.4492 1.389062,0.15568 1.139332,0.85119 3.2115,1.78528 3.960446,1.78528 1.107005,0 1.593464,0.55494 1.101797,1.25689 -0.22929,0.32736 -0.584544,0.59519 -0.789454,0.59519 -0.433041,0 -1.065468,1.02438 -0.957479,1.55089 0.04064,0.19814 -0.18498,0.63581 -0.501376,0.9726 -0.316396,0.33679 -0.494892,0.74239 -0.396657,0.90134 1.442442,2.33392 -9.539604,7.49757 -12.985063,6.10545 z m 20.137935,-9.8048 c -0.873125,-0.39849 -2.515269,-1.04445 -3.649207,-1.43546 -2.602695,-0.89746 -4.420584,-1.69813 -4.420584,-1.94699 0,-0.29009 12.111119,-11.42427 12.426664,-11.42427 0.319841,0 -2.325632,15.19163 -2.69466,15.47407 -0.04109,0.0314 -0.789088,-0.26886 -1.662213,-0.66735 z"
           id="path2044"
           inkscape:connector-curvature="0" />
        <path
           style="fill:#f48612;stroke-width:0.26458332"
           d="m 31.62712,295.72544 c -1.08812,-0.31482 -1.934874,-1.40295 -1.934874,-2.48643 0,-3.11854 8.033604,-6.42124 11.906249,-4.89479 0.738378,0.29104 1.572035,0.52917 1.85257,0.52917 0.690939,0 1.15896,0.90419 0.807726,1.56048 -1.575247,2.94337 -9.407495,6.2244 -12.631671,5.29157 z m 9.881838,-5.95731 c -0.772139,-0.41845 -1.155415,-0.35242 -0.847384,0.14599 0.09592,0.1552 0.494797,0.27742 0.886391,0.27159 l 0.711989,-0.0106 -0.750996,-0.40699 z m 32.89787,1.31264 c -0.509323,-0.049 -2.295261,-0.21554 -3.96875,-0.37 -9.011536,-0.83171 -22.54395,-4.28365 -22.955001,-5.85552 -0.08078,-0.30891 -0.373607,-0.4809 -0.822211,-0.48292 -2.402972,-0.0108 -5.856121,-1.55807 -5.856121,-2.62393 v -0.80473 l 0.859896,0.52968 c 2.397297,1.47669 6.208453,2.02176 6.930311,0.99117 0.685217,-0.97829 0.496495,-1.14397 -1.661335,-1.45848 -2.302454,-0.33559 -5.313421,-1.43194 -5.992061,-2.18183 -0.428085,-0.47302 -0.411226,-0.473 0.570936,8e-4 1.300475,0.62737 6.806547,1.84628 8.340035,1.84628 0.648372,0 2.467067,0.18083 4.041547,0.40185 1.57448,0.22102 4.300175,0.42938 6.057098,0.46302 l 3.19441,0.0612 0.467966,-1.71979 c 1.619152,-5.95046 5.83475,-9.8528 11.454738,-10.60352 8.422291,-1.12507 12.513513,-2.4916 17.356309,-5.79726 0.855477,-0.58395 1.627889,-1.06172 1.716468,-1.06172 0.08858,0 0.135335,1.16086 0.103902,2.57969 -0.08386,3.78528 -0.0408,4.29948 0.360016,4.29948 0.437438,0 0.747078,-0.67631 1.362771,-2.97656 0.603814,-2.25587 0.809818,-2.24702 1.022739,0.0439 0.199012,2.14127 0.364707,2.66803 0.839245,2.66803 0.335672,0 0.440132,-0.31685 0.806863,-2.44739 0.240607,-1.39781 0.48474,-1.23643 0.857149,0.5666 0.632972,3.06456 1.779022,2.86431 1.563972,-0.27327 -0.16539,-2.41297 -0.1544,-2.42744 0.75267,-0.99053 1.60274,2.53889 1.39446,0.71385 -0.73487,-6.43924 l -1.080791,-3.63071 0.613251,-0.49658 c 0.60339,-0.4886 0.65184,-0.48491 3.0149,0.22945 13.01789,3.93534 18.58412,9.82452 19.11928,20.22855 0.53312,10.36446 -6.1735,14.46336 -24.901113,15.21889 -5.68547,0.22937 -21.346424,0.28642 -23.434219,0.0854 z m -30.507707,-3.84233 c -2.057955,-0.43929 -3.623542,-1.29024 -3.623542,-1.96951 0,-0.7466 0.268703,-0.78102 1.402201,-0.1796 0.465717,0.2471 1.598502,0.63684 2.517302,0.86607 2.062667,0.51463 1.783048,1.72682 -0.295961,1.28304 z m -25.216686,-0.21186 c -1.53608,-0.62065 -2.074958,-2.4137 -1.170979,-3.89628 1.456678,-2.38904 8.634029,-4.68942 11.025813,-3.53384 0.567631,0.27425 1.468185,0.58046 2.001231,0.68046 4.344063,0.81495 -4.547071,7.04498 -9.974379,6.98905 -0.727604,-0.007 -1.574363,-0.11522 -1.881686,-0.23939 z m 10.480644,-5.5437 c 0,-0.28443 -1.029292,-0.66423 -1.237058,-0.45646 -0.07637,0.0764 -0.06037,0.26583 0.03555,0.42103 0.214473,0.34703 1.201504,0.37613 1.201504,0.0354 z m 0.916765,-3.1576 c -2.1254,-0.77362 -2.504265,-1.04482 -2.504265,-1.79263 0,-0.44528 0.114306,-0.63036 0.330729,-0.53552 2.501688,1.09636 3.654416,1.48766 4.397897,1.49289 0.86501,0.006 0.880195,0.0244 0.498845,0.6016 -0.512024,0.77497 -1.097912,0.82524 -2.723206,0.23366 z m 8.740526,-1.1035 c -0.873125,-0.39849 -2.515269,-1.04445 -3.649207,-1.43546 -2.602695,-0.89746 -4.420584,-1.69813 -4.420584,-1.94699 0,-0.29009 12.111119,-11.42427 12.426664,-11.42427 0.319841,0 -2.325632,15.19163 -2.69466,15.47407 -0.04109,0.0314 -0.789088,-0.26886 -1.662213,-0.66735 z m -9.458854,-2.67825 c -0.691224,-0.30485 -1.25677,-0.71768 -1.25677,-0.91742 0,-0.51195 0.22397,-0.45692 1.214143,0.29832 0.476969,0.3638 0.987196,0.66146 1.133838,0.66146 0.146642,0 0.340207,0.11906 0.430144,0.26458 0.238457,0.38583 -0.109884,0.31555 -1.521355,-0.30694 z m 52.718228,-16.3762 c -0.654844,-0.0971 -1.333751,-0.12306 -1.508683,-0.0576 -0.174935,0.0654 -0.472591,0.0209 -0.661458,-0.0989 -0.188871,-0.11981 -0.641057,-0.23939 -1.004859,-0.26574 -0.722034,-0.0523 -1.874909,-0.24377 -2.910416,-0.48338 -0.363802,-0.0842 -1.109046,-0.22242 -1.656099,-0.30719 -0.547052,-0.0848 -1.060093,-0.26004 -1.140095,-0.38948 -0.08,-0.12944 -0.429056,-0.23535 -0.775681,-0.23535 -0.346626,0 -0.703813,-0.11906 -0.79375,-0.26458 -0.08994,-0.14553 -0.447125,-0.26459 -0.79375,-0.26459 -0.346626,0 -0.703813,-0.11906 -0.79375,-0.26458 -0.08994,-0.14552 -0.447125,-0.26458 -0.79375,-0.26458 -0.346626,0 -0.703813,-0.11907 -0.79375,-0.26459 -0.08994,-0.14552 -0.380042,-0.26458 -0.644676,-0.26458 -0.264636,0 -0.629375,-0.17859 -0.810532,-0.39688 -0.181158,-0.21828 -0.538346,-0.39687 -0.79375,-0.39687 -0.255405,0 -0.612593,-0.17859 -0.79375,-0.39688 -0.181158,-0.21828 -0.538345,-0.39687 -0.79375,-0.39687 -0.255405,0 -0.612593,-0.17859 -0.79375,-0.39688 -0.181158,-0.21828 -0.55666,-0.39687 -0.834451,-0.39687 -0.277792,0 -0.573606,-0.17859 -0.657368,-0.39688 -0.08376,-0.21828 -0.351221,-0.39687 -0.594355,-0.39687 -0.243131,0 -0.645946,-0.23813 -0.895143,-0.52917 -0.249198,-0.29104 -0.632847,-0.52916 -0.852551,-0.52916 -0.219708,0 -0.399466,-0.12201 -0.399466,-0.27114 0,-0.14912 -0.300706,-0.38546 -0.668239,-0.52519 -0.36753,-0.13974 -0.737455,-0.43445 -0.822055,-0.65491 -0.0846,-0.22047 -0.276257,-0.40085 -0.425903,-0.40085 -0.149645,0 -0.539295,-0.26789 -0.865888,-0.59531 -0.326594,-0.32742 -1.258748,-1.19063 -2.07145,-1.91823 -1.442923,-1.29183 -1.906428,-2.24896 -1.089096,-2.24896 0.224052,0 1.173559,0.74414 2.110015,1.65365 0.936456,0.9095 2.017437,1.89177 2.402181,2.18281 0.384744,0.29104 0.923518,0.73753 1.197277,0.99219 0.273759,0.25466 0.602226,0.46302 0.729929,0.46302 0.127702,0 0.3907,0.191 0.584439,0.42444 0.193738,0.23344 0.59527,0.53286 0.892291,0.66538 0.297024,0.13252 0.897229,0.476 1.333791,0.76328 0.436562,0.28727 0.972344,0.59175 1.190625,0.67662 0.218281,0.0849 0.575469,0.26552 0.79375,0.40147 0.218281,0.13595 0.575469,0.31454 0.79375,0.39688 0.218281,0.0823 0.575469,0.26092 0.79375,0.39687 0.218281,0.13595 0.575469,0.31675 0.79375,0.40178 0.925102,0.36036 1.749716,0.71274 2.179222,0.93123 0.252688,0.12854 0.692145,0.23372 0.976572,0.23372 0.284429,0 0.590727,0.11906 0.680664,0.26458 0.08994,0.14552 0.447125,0.26458 0.79375,0.26458 0.346625,0 0.69533,0.10534 0.774896,0.23408 0.07957,0.12874 0.53308,0.30911 1.007803,0.40083 0.474723,0.0917 1.101259,0.22583 1.392301,0.29805 3.11798,0.77372 6.884313,1.21033 11.196857,1.29799 5.14604,0.10461 5.175715,0.10919 4.92588,0.76025 -0.172553,0.44967 -6.43636,0.56613 -9.111279,0.16941 z m 20.434196,-26.61231 c -2.22811,-3.26844 -5.983316,-6.21061 -10.799209,-8.46109 -3.654454,-1.70774 -4.304638,-3.05259 -1.650166,-3.41324 11.560175,-1.57059 17.850645,-12.43218 15.807795,-27.29492 -0.36683,-2.66885 0.52207,-2.25294 -9.279191,-4.34172 -4.708165,-1.00337 -8.841219,-1.89044 -9.184561,-1.97125 -0.590825,-0.13907 -0.614605,-0.22422 -0.443984,-1.58984 0.222473,-1.7806 0.195948,-1.78032 -1.157496,0.0123 -0.886304,1.17391 -1.246293,1.45521 -1.862233,1.45521 -1.58142,1e-5 -1.600568,-0.0415 -1.600568,-3.46789 0,-3.78214 0.03224,-3.77232 -2.19026,-0.66711 -0.976093,1.36377 -1.953099,2.62762 -2.171123,2.80857 -0.320141,0.26569 -2.165837,0.0681 -9.593035,-1.02701 -5.058142,-0.74579 -9.278334,-1.35481 -9.378206,-1.35336 -0.333724,0.005 -2.774246,4.60266 -3.778073,7.11769 -5.221578,13.08235 -0.280537,22.98036 13.881531,27.8078 1.382448,0.47123 2.612522,0.91563 2.733498,0.98755 0.254534,0.15131 -1.3969,1.6336 -1.83792,1.64968 -0.162277,0.006 -0.616059,0.26326 -1.008404,0.57188 -1.496481,1.17713 -11.782697,0.40558 -16.952798,-1.2716 -8.155924,-2.64578 -11.141848,-6.12518 -11.083785,-12.91557 0.04508,-5.27236 2.282042,-8.48322 6.293162,-9.033 1.478661,-0.20268 1.486686,-0.2881 0.190199,-2.02471 -4.602888,-6.16543 -3.684842,-12.68098 2.660806,-18.88421 6.97553,-6.81897 13.62307,-10.49782 21.386492,-11.8356 17.388131,-2.99629 41.212689,6.15225 47.251909,18.14455 3.80215,7.55005 2.22776,20.69382 -3.05098,25.47101 -1.76945,1.60134 1.53946,4.25793 5.6949,4.57221 1.16749,0.0883 1.9625,0.26693 1.9625,0.44096 -3e-5,0.76294 -3.24001,2.6833 -5.0028,2.96518 -1.28438,0.20538 -1.26122,0.0846 -0.36668,1.91293 3.00371,6.13935 -3.63808,13.77482 -13.05493,15.00808 l -1.35878,0.17795 z m -20.082596,-0.60979 c -1.295308,-0.78981 -2.820752,-3.71976 -1.936655,-3.71976 0.146867,0 0.635336,0.59858 1.085487,1.33017 2.062303,3.35166 5.113137,2.07807 5.463008,-2.28058 0.191913,-2.39082 1.019421,-2.3998 0.936334,-0.0102 -0.135294,3.89103 -2.949387,6.26495 -5.548174,4.68033 z m -13.493993,-0.26381 c -1.84008,-0.83546 -2.513746,-2.45754 -1.95571,-4.70904 0.387553,-1.56366 2.286113,-4.83232 2.806795,-4.83232 0.57595,0 0.471112,0.48103 -0.401077,1.84021 -2.301346,3.58634 -2.024467,6.53833 0.660495,7.04203 1.208477,0.22672 1.965309,-0.0709 2.970316,-1.16814 1.169829,-1.27716 1.826921,-0.79802 0.782847,0.57083 -1.291075,1.69269 -2.955698,2.12271 -4.863666,1.25643 z M 79.61274,226.3253 c -0.166047,-0.43271 0.02908,-0.68733 0.526727,-0.68733 0.194027,0 0.352777,0.23813 0.352777,0.52917 0,0.60162 -0.663543,0.72094 -0.879504,0.15816 z m -5.205912,-0.68733 c 0,-0.29398 0.176389,-0.52916 0.396875,-0.52916 0.220485,0 0.396875,0.23518 0.396875,0.52916 0,0.29398 -0.17639,0.52917 -0.396875,0.52917 -0.220486,0 -0.396875,-0.23519 -0.396875,-0.52917 z m 12.460795,-3.4239 c -0.399857,-0.24712 -0.215694,-1.07401 0.239204,-1.07401 0.387393,0 0.652442,0.77631 0.363649,1.0651 -0.132689,0.13269 -0.396277,0.13659 -0.602853,0.009 z m -16.648387,-1.77759 c 0.111508,-0.57902 0.8803,-0.66093 0.8803,-0.0938 0,0.21629 -0.219173,0.43546 -0.487048,0.48705 -0.353589,0.0681 -0.461346,-0.0397 -0.393252,-0.39325 z m 18.634159,-14.16569 c -3.60281,-3.60281 -0.766371,-12.74669 2.976962,-9.59688 1.536366,1.29277 2.322136,6.24679 1.299715,8.19427 -1.158417,2.20652 -2.901191,2.7781 -4.276677,1.40261 z m 4.897149,-1.10292 c -0.471715,-0.56838 0.141885,-0.8734 2.183823,-1.08559 2.049497,-0.21297 2.278631,0.10716 0.687488,0.9605 -1.071208,0.57449 -2.448539,0.6345 -2.871311,0.12509 z m -18.918542,-1.51532 c -1.902158,-1.49624 -2.507067,-5.66975 -0.631351,-4.35594 0.49344,0.34561 0.513543,0.4122 0.124452,0.4122 -1.08191,0 -0.705141,2.03257 0.666308,3.59457 0.907339,1.0334 0.855316,1.14735 -0.159409,0.34917 z m 19.330318,-0.35252 c -0.223782,-0.58317 0.337476,-0.86037 2.138778,-1.05634 1.887738,-0.20538 2.142114,0.0855 0.79375,0.9076 -1.012275,0.6172 -2.719536,0.70379 -2.932528,0.14874 z m -29.473998,-0.87924 c -3.285434,-3.07011 -1.199552,-11.77806 2.409084,-10.05723 2.592615,1.23634 3.126603,7.61223 0.829882,9.90895 -1.113914,1.11392 -2.154616,1.16156 -3.238966,0.14828 z m 11.835172,-2.91083 c 0.839446,-0.41935 0.933583,-0.58013 1.006684,-1.71938 0.12759,-1.9884 1.109983,-1.31516 1.109983,0.76068 0,0.7101 -1.026972,1.42214 -2.050521,1.42172 l -0.992187,-5.3e-4 0.926041,-0.46261 z M 58.66412,199.07314 c -0.866802,-0.38261 -1.893557,-1.39543 -1.655734,-1.63325 0.208976,-0.20898 2.372665,0.43364 2.816392,0.83646 0.868593,0.78853 0.06711,1.33875 -1.160658,0.79679 z m -0.346731,-2.0462 c -1.144045,-0.56603 -1.985542,-1.55535 -1.316223,-1.54745 0.94792,0.0112 2.729555,0.7571 2.812246,1.17738 0.161631,0.82152 -0.335172,0.94441 -1.496023,0.37007 z"
           id="path2042"
           inkscape:connector-curvature="0" />
        <path
           style="fill:#d35f48;stroke-width:0.26458332"
           d="m 31.62712,295.72544 c -1.08812,-0.31482 -1.934874,-1.40295 -1.934874,-2.48643 0,-3.11854 8.033604,-6.42124 11.906249,-4.89479 0.738378,0.29104 1.572035,0.52917 1.85257,0.52917 0.690939,0 1.15896,0.90419 0.807726,1.56048 -1.575247,2.94337 -9.407495,6.2244 -12.631671,5.29157 z m 9.881838,-5.95731 c -0.772139,-0.41845 -1.155415,-0.35242 -0.847384,0.14599 0.09592,0.1552 0.494797,0.27742 0.886391,0.27159 l 0.711989,-0.0106 -0.750996,-0.40699 z m 1.312097,-0.28955 c -0.248478,-0.24847 -2.545476,-1.11798 -2.545476,-0.96356 0,0.14684 2.154814,1.13824 2.491493,1.14631 0.133393,0.003 0.157687,-0.079 0.05398,-0.18275 z m 31.585773,1.60219 c -0.509323,-0.049 -2.295261,-0.21554 -3.96875,-0.37 -9.011536,-0.83171 -22.54395,-4.28365 -22.955001,-5.85552 -0.08078,-0.30891 -0.373607,-0.4809 -0.822211,-0.48292 -1.593943,-0.007 -5.856121,-1.53853 -5.856121,-2.10402 0,-0.16125 0.455711,-0.0524 1.050264,0.25096 1.301699,0.66408 3.791468,1.32703 4.983752,1.32703 0.492665,0 1.217073,0.2288 1.609794,0.50845 4.34866,3.09652 18.20097,5.97994 32.308272,6.72513 0.800365,0.0423 -0.0926,0.0798 -1.984374,0.0835 -1.891771,0.004 -3.856302,-0.0335 -4.365625,-0.0826 z m 18.322395,-0.009 c 0.254661,-0.0665 0.67138,-0.0665 0.926042,0 0.254661,0.0666 0.0463,0.12101 -0.463021,0.12101 -0.509323,0 -0.717682,-0.0545 -0.463021,-0.12101 z m 7.276037,-0.26892 c 0.32743,-0.0631 0.86321,-0.0631 1.19063,0 0.32742,0.0631 0.0595,0.11466 -0.59531,0.11466 -0.654847,0 -0.922737,-0.0516 -0.59532,-0.11466 z m 3.57188,-0.26024 c 0.25466,-0.0666 0.67138,-0.0666 0.92604,0 0.25466,0.0666 0.0463,0.121 -0.46302,0.121 -0.50932,0 -0.71768,-0.0544 -0.46302,-0.121 z m 2.38628,-0.26555 c 0.25744,-0.0671 0.61462,-0.0627 0.79375,0.01 0.17914,0.0725 -0.0315,0.12736 -0.46805,0.12197 -0.43656,-0.005 -0.58313,-0.0647 -0.3257,-0.13177 z m 1.99588,-0.26197 c 0.191,-0.0764 0.4192,-0.067 0.50712,0.0209 0.0879,0.0879 -0.0683,0.15046 -0.34727,0.13897 -0.30822,-0.0127 -0.37092,-0.0754 -0.15985,-0.15985 z m 1.32292,-0.26459 c 0.19099,-0.0764 0.4192,-0.067 0.50712,0.0209 0.0879,0.0879 -0.0684,0.15045 -0.34727,0.13896 -0.30823,-0.0127 -0.37092,-0.0754 -0.15985,-0.15985 z m 6.94312,-2.4187 c 6.42643,-4.0831 6.24745,-16.54036 -0.34095,-23.73044 -4.16418,-4.54446 -14.74498,-9.42259 -15.63674,-7.20908 -0.0783,0.19436 -0.14319,0.13046 -0.15535,-0.153 -0.0712,-1.66026 1.94315,-1.47945 7.65203,0.68682 9.8257,3.72842 14.52374,9.63312 14.99783,18.84994 0.28779,5.59511 -1.27503,8.77133 -5.58956,11.35998 -1.8585,1.11507 -2.63079,1.27813 -0.92726,0.19578 z M 43.899121,287.26 c -2.189101,-0.51512 -3.61637,-1.31252 -3.560368,-1.98916 0.06433,-0.77729 0.07674,-0.77724 1.823082,0.007 0.781569,0.35081 1.938468,0.7204 2.570888,0.82129 0.724207,0.11554 1.057039,0.27626 0.899125,0.43417 -0.310544,0.31055 -2.436502,-0.18093 -3.860556,-0.89249 -0.559803,-0.27971 -1.076883,-0.44951 -1.149067,-0.37733 -0.202364,0.20237 1.216033,0.8651 2.897992,1.35405 0.834824,0.2427 1.517861,0.55188 1.517861,0.68707 0,0.13519 -0.02976,0.23385 -0.06614,0.21923 -0.03638,-0.0146 -0.519145,-0.13317 -1.072812,-0.26346 z m -25.216686,-0.23386 c -1.53608,-0.62065 -2.074958,-2.41369 -1.170979,-3.89628 1.456678,-2.38903 8.634029,-4.68942 11.025813,-3.53383 0.567631,0.27425 1.468185,0.58045 2.001231,0.68045 4.344063,0.81495 -4.547071,7.04498 -9.974379,6.98905 -0.727604,-0.007 -1.574363,-0.11522 -1.881686,-0.23939 z m 10.480644,-5.5437 c 0,-0.28443 -1.029292,-0.66423 -1.237058,-0.45646 -0.07637,0.0764 -0.06037,0.26583 0.03555,0.42103 0.214473,0.34703 1.201504,0.37613 1.201504,0.0354 z m 1.058333,-0.65441 c 0,-0.0591 -0.535781,-0.28998 -1.190625,-0.51311 -1.378244,-0.46961 -1.593226,-0.32266 -0.330729,0.22607 0.849209,0.3691 1.521354,0.49591 1.521354,0.28704 z m 14.706113,2.457 c -1.606865,-0.37684 -4.12278,-1.58815 -4.12278,-1.98495 0,-0.26396 0.223832,-0.21898 0.859896,0.17283 2.397297,1.47669 6.208453,2.02176 6.930311,0.99117 0.685217,-0.97829 0.496495,-1.14397 -1.661335,-1.45848 -2.386026,-0.34777 -5.328142,-1.44218 -6.03835,-2.24615 -0.485452,-0.54955 -0.484759,-0.55012 0.174062,-0.14135 1.136732,0.70529 4.659558,1.78572 6.401874,1.96342 1.866,0.19031 2.133981,0.40209 1.758492,1.38969 -0.609849,1.60403 -1.676151,1.92966 -4.30217,1.31382 z m 13.273574,-1.73106 c 0.181901,-0.0734 0.479557,-0.0734 0.661458,0 0.181901,0.0734 0.03307,0.13345 -0.330729,0.13345 -0.363802,0 -0.51263,-0.06 -0.330729,-0.13345 z m -28.121255,-3.23416 c -1.707512,-0.61507 -2.504265,-1.04466 -2.504265,-1.35025 0,-0.13371 0.624262,0.0461 1.387248,0.39962 0.762987,0.3535 1.892865,0.71854 2.51084,0.81121 0.617976,0.0927 1.05825,0.27422 0.978387,0.40344 -0.214668,0.34735 -0.880829,0.2732 -2.37221,-0.26402 z m 1.06761,-0.48189 c -1.027568,-0.24415 -3.571875,-1.47604 -3.571875,-1.72941 0,-0.14122 0.148828,-0.19154 0.330729,-0.11182 2.495278,1.09355 3.651889,1.48766 4.38124,1.49289 0.515004,0.004 0.808178,0.11523 0.711989,0.27087 -0.167235,0.27059 -0.908729,0.30161 -1.852083,0.0775 z m 7.672916,-0.61658 c -0.873125,-0.39849 -2.515269,-1.04445 -3.649207,-1.43546 -2.602695,-0.89746 -4.420584,-1.69813 -4.420584,-1.94699 0,-0.29009 12.111119,-11.42427 12.426664,-11.42427 0.319841,0 -2.325632,15.19163 -2.69466,15.47407 -0.04109,0.0314 -0.789088,-0.26886 -1.662213,-0.66735 z m -9.458854,-2.67825 c -0.691224,-0.30485 -1.25677,-0.71918 -1.25677,-0.92073 0,-0.26227 0.299436,-0.17744 1.053075,0.29831 0.579192,0.36563 1.167477,0.66478 1.307302,0.66478 0.139824,0 0.327811,0.11906 0.417748,0.26458 0.238457,0.38583 -0.109884,0.31555 -1.521355,-0.30694 z m 64.666253,-8.15973 c 0,-0.3638 0.06005,-0.51263 0.133453,-0.33072 0.0734,0.1819 0.0734,0.47955 0,0.66145 -0.0734,0.18191 -0.133453,0.0331 -0.133453,-0.33073 z m -11.948025,-8.21647 c -0.654844,-0.0971 -1.333751,-0.12306 -1.508683,-0.0576 -0.174935,0.0654 -0.472591,0.0209 -0.661458,-0.0989 -0.188871,-0.11981 -0.641057,-0.23939 -1.004859,-0.26574 -0.722034,-0.0523 -1.874909,-0.24377 -2.910416,-0.48338 -0.363802,-0.0842 -1.109046,-0.22242 -1.656099,-0.30719 -0.547052,-0.0848 -1.060093,-0.26004 -1.140095,-0.38948 -0.08,-0.12944 -0.429056,-0.23535 -0.775681,-0.23535 -0.346626,0 -0.703813,-0.11906 -0.79375,-0.26458 -0.08994,-0.14553 -0.447125,-0.26459 -0.79375,-0.26459 -0.346626,0 -0.703813,-0.11906 -0.79375,-0.26458 -0.08994,-0.14552 -0.447125,-0.26458 -0.79375,-0.26458 -0.346626,0 -0.703813,-0.11907 -0.79375,-0.26459 -0.08994,-0.14552 -0.380042,-0.26458 -0.644676,-0.26458 -0.264636,0 -0.629375,-0.17859 -0.810532,-0.39688 -0.181158,-0.21828 -0.538346,-0.39687 -0.79375,-0.39687 -0.255405,0 -0.612593,-0.17859 -0.79375,-0.39688 -0.181158,-0.21828 -0.538345,-0.39687 -0.79375,-0.39687 -0.255405,0 -0.612593,-0.17859 -0.79375,-0.39688 -0.181158,-0.21828 -0.55666,-0.39687 -0.834451,-0.39687 -0.277792,0 -0.573606,-0.17859 -0.657368,-0.39688 -0.08376,-0.21828 -0.351221,-0.39687 -0.594355,-0.39687 -0.243131,0 -0.645946,-0.23813 -0.895143,-0.52917 -0.249198,-0.29104 -0.632847,-0.52916 -0.852551,-0.52916 -0.219708,0 -0.399466,-0.12201 -0.399466,-0.27114 0,-0.14912 -0.300706,-0.38546 -0.668239,-0.52519 -0.36753,-0.13974 -0.737455,-0.43445 -0.822055,-0.65491 -0.0846,-0.22047 -0.276257,-0.40085 -0.425903,-0.40085 -0.149645,0 -0.539295,-0.26789 -0.865888,-0.59531 -0.326594,-0.32742 -1.258748,-1.19063 -2.07145,-1.91823 -1.442923,-1.29183 -1.906428,-2.24896 -1.089096,-2.24896 0.224052,0 1.173559,0.74414 2.110015,1.65365 0.936456,0.9095 2.017437,1.89177 2.402181,2.18281 0.384744,0.29104 0.923518,0.73753 1.197277,0.99219 0.273759,0.25466 0.602226,0.46302 0.729929,0.46302 0.127702,0 0.3907,0.191 0.584439,0.42444 0.193738,0.23344 0.59527,0.53286 0.892291,0.66538 0.297024,0.13252 0.897229,0.476 1.333791,0.76328 0.436562,0.28727 0.972344,0.59175 1.190625,0.67662 0.218281,0.0849 0.575469,0.26552 0.79375,0.40147 0.218281,0.13595 0.575469,0.31454 0.79375,0.39688 0.218281,0.0823 0.575469,0.26092 0.79375,0.39687 0.218281,0.13595 0.575469,0.31675 0.79375,0.40178 0.925102,0.36036 1.749716,0.71274 2.179222,0.93123 0.252688,0.12854 0.692145,0.23372 0.976572,0.23372 0.284429,0 0.590727,0.11906 0.680664,0.26458 0.08994,0.14552 0.447125,0.26458 0.79375,0.26458 0.346625,0 0.69533,0.10534 0.774896,0.23408 0.07957,0.12874 0.53308,0.30911 1.007803,0.40083 0.474723,0.0917 1.101259,0.22583 1.392301,0.29805 3.11798,0.77372 6.884313,1.21033 11.196857,1.29799 5.14604,0.10461 5.175715,0.10919 4.92588,0.76025 -0.172553,0.44967 -6.43636,0.56613 -9.111279,0.16941 z m 1.973075,-0.23191 c 0.195672,-0.3166 -0.302054,-0.6303 -0.654474,-0.41249 -0.295899,0.18288 -0.101645,0.65879 0.268899,0.65879 0.128344,0 0.301853,-0.11083 0.385575,-0.2463 z m 1.680379,-0.0381 c -0.05214,-0.15643 -0.207918,-0.28442 -0.346162,-0.28442 -0.138245,0 -0.294019,0.12799 -0.346163,0.28442 -0.05215,0.15644 0.103627,0.28443 0.346163,0.28443 0.242535,0 0.398309,-0.12799 0.346162,-0.28443 z m 1.902796,0.0199 c 0,-0.14552 -0.238125,-0.26458 -0.529167,-0.26458 -0.291041,0 -0.529166,0.11906 -0.529166,0.26458 0,0.14552 0.238125,0.26458 0.529166,0.26458 0.291042,0 0.529167,-0.11906 0.529167,-0.26458 z m 1.5875,0.0441 c 0,-0.37234 -0.297849,-0.54389 -0.685805,-0.39502 -0.203219,0.078 -0.303615,0.24837 -0.223102,0.37864 0.184671,0.29881 0.908907,0.31185 0.908907,0.0164 z m 1.536787,-0.0639 c -0.05214,-0.15643 -0.207917,-0.28442 -0.346162,-0.28442 -0.138245,0 -0.294018,0.12799 -0.346162,0.28442 -0.05215,0.15644 0.103626,0.28443 0.346162,0.28443 0.242535,0 0.398309,-0.12799 0.346162,-0.28443 z m -10.003454,-0.37703 c 0,-0.21828 -0.178593,-0.39687 -0.396874,-0.39687 -0.413166,0 -0.524926,0.31292 -0.220486,0.61736 0.304438,0.30444 0.61736,0.19268 0.61736,-0.22049 z m 1.852084,0.1323 c 0,-0.14553 -0.238125,-0.26459 -0.529167,-0.26459 -0.291042,0 -0.529167,0.11906 -0.529167,0.26459 0,0.14552 0.238125,0.26458 0.529167,0.26458 0.291042,0 0.529167,-0.11906 0.529167,-0.26458 z m -3.439583,-0.39688 c 0,-0.21828 -0.178594,-0.39687 -0.396875,-0.39687 -0.218282,0 -0.396875,0.17859 -0.396875,0.39687 0,0.21828 0.178593,0.39688 0.396875,0.39688 0.218281,0 0.396875,-0.1786 0.396875,-0.39688 z m -1.731092,-0.11401 c 0.195672,-0.3166 -0.302054,-0.6303 -0.654474,-0.41249 -0.295899,0.18288 -0.101645,0.65879 0.268899,0.65879 0.128344,0 0.301852,-0.11083 0.385575,-0.2463 z m -1.443908,-0.54745 c 0,-0.14552 -0.238125,-0.26458 -0.529167,-0.26458 -0.291042,0 -0.529167,0.11906 -0.529167,0.26458 0,0.14552 0.238125,0.26459 0.529167,0.26459 0.291042,0 0.529167,-0.11907 0.529167,-0.26459 z m -1.718636,-0.26645 c 0.09057,-0.14655 -0.0266,-0.33985 -0.260382,-0.42956 -0.506581,-0.1944 -0.78891,0.0198 -0.545404,0.41383 0.219705,0.35548 0.59132,0.36274 0.805786,0.0157 z m -1.77166,-0.54714 c -0.05214,-0.15644 -0.207918,-0.28443 -0.346163,-0.28443 -0.138244,0 -0.294018,0.12799 -0.346162,0.28443 -0.05215,0.15643 0.103627,0.28443 0.346162,0.28443 0.242536,0 0.398309,-0.128 0.346163,-0.28443 z m -1.5875,-0.52917 c -0.05214,-0.15643 -0.207918,-0.28443 -0.346163,-0.28443 -0.138244,0 -0.294018,0.128 -0.346162,0.28443 -0.05215,0.15644 0.103627,0.28443 0.346162,0.28443 0.242536,0 0.398309,-0.12799 0.346163,-0.28443 z m -1.536788,-0.64161 c 0,-0.21828 -0.178593,-0.39688 -0.396875,-0.39688 -0.413165,0 -0.524925,0.31292 -0.220485,0.61736 0.304438,0.30444 0.61736,0.19268 0.61736,-0.22048 z m -1.454052,-0.39875 c 0.09057,-0.14655 -0.0266,-0.33985 -0.260381,-0.42956 -0.506582,-0.19439 -0.788911,0.0198 -0.545404,0.41383 0.219704,0.35549 0.591319,0.36275 0.805785,0.0157 z m -1.456364,-0.77626 c 0,-0.35729 -0.48232,-0.60497 -0.798065,-0.40983 -0.147895,0.0914 -0.200401,0.27703 -0.116676,0.41249 0.198614,0.32137 0.914741,0.31928 0.914741,-0.003 z m -1.648135,-0.85898 c -0.163531,-0.49059 -0.733115,-0.57196 -0.733115,-0.10473 0,0.23041 0.188516,0.41893 0.418923,0.41893 0.230409,0 0.371795,-0.14139 0.314192,-0.3142 z m -1.262282,-0.75244 c 0,-0.31675 -0.746289,-0.65652 -0.963946,-0.43886 -0.231698,0.2317 0.161304,0.71175 0.582687,0.71175 0.209693,0 0.381259,-0.1228 0.381259,-0.27289 z m -1.5875,-0.91774 c 0,-0.21828 -0.178593,-0.39687 -0.396875,-0.39687 -0.413165,0 -0.524925,0.31292 -0.220485,0.61736 0.304438,0.30444 0.61736,0.19268 0.61736,-0.22049 z m -1.383551,-0.97565 c -0.163531,-0.4906 -0.733115,-0.57197 -0.733115,-0.10473 0,0.23041 0.188515,0.41892 0.418922,0.41892 0.23041,0 0.371796,-0.14139 0.314193,-0.31419 z m -1.516443,-1.26687 c -0.537861,-0.33241 -0.893662,-0.0362 -0.510733,0.42521 0.229245,0.27622 0.399917,0.30375 0.605948,0.0977 0.206031,-0.20603 0.179211,-0.35331 -0.09522,-0.52292 z m -1.068756,-0.6679 c 0,-0.22811 -0.238783,-0.39687 -0.561562,-0.39687 -0.46917,0 -0.507373,0.0653 -0.232188,0.39687 0.181158,0.21829 0.433862,0.39688 0.561563,0.39688 0.127704,0 0.232187,-0.17859 0.232187,-0.39688 z m -1.322916,-1.04271 c 0,-0.42139 -0.48005,-0.81439 -0.711748,-0.58269 -0.217657,0.21766 0.122111,0.96395 0.438862,0.96395 0.150087,0 0.272886,-0.17157 0.272886,-0.38126 z m -1.322917,-1.33854 c 0,-0.21828 -0.178594,-0.39687 -0.396875,-0.39687 -0.413165,0 -0.524925,0.31292 -0.220485,0.61736 0.304438,0.30444 0.61736,0.19268 0.61736,-0.22049 z m -1.058333,-1.05833 c 0,-0.21828 -0.178594,-0.39687 -0.396875,-0.39687 -0.413165,0 -0.524925,0.31292 -0.220485,0.61736 0.304437,0.30444 0.61736,0.19268 0.61736,-0.22049 z m 48.215445,-13.00066 c -2.22811,-3.26844 -5.983316,-6.21061 -10.799209,-8.46109 -3.654454,-1.70774 -4.304638,-3.05259 -1.650166,-3.41324 11.560175,-1.57059 17.850645,-12.43218 15.807795,-27.29492 -0.36683,-2.66885 0.52207,-2.25294 -9.279191,-4.34172 -4.708165,-1.00337 -8.841219,-1.89044 -9.184561,-1.97125 -0.590825,-0.13907 -0.614605,-0.22422 -0.443984,-1.58984 0.222473,-1.7806 0.195948,-1.78032 -1.157496,0.0123 -0.886304,1.17391 -1.246293,1.45521 -1.862233,1.45521 -1.58142,1e-5 -1.600568,-0.0415 -1.600568,-3.46789 0,-3.78214 0.03224,-3.77232 -2.19026,-0.66711 -0.976093,1.36377 -1.953099,2.62762 -2.171123,2.80857 -0.320141,0.26569 -2.165837,0.0681 -9.593035,-1.02701 -5.058142,-0.74579 -9.278334,-1.35481 -9.378206,-1.35336 -0.333724,0.005 -2.774246,4.60266 -3.778073,7.11769 -5.221578,13.08235 -0.280537,22.98036 13.881531,27.8078 1.382448,0.47123 2.612522,0.91563 2.733498,0.98755 0.254534,0.15131 -1.3969,1.6336 -1.83792,1.64968 -0.162277,0.006 -0.616059,0.26326 -1.008404,0.57188 -1.496481,1.17713 -11.782697,0.40558 -16.952798,-1.2716 -8.155924,-2.64578 -11.141848,-6.12518 -11.083785,-12.91557 0.04508,-5.27236 2.282042,-8.48322 6.293162,-9.033 1.478661,-0.20268 1.486686,-0.2881 0.190199,-2.02471 -4.602888,-6.16543 -3.684842,-12.68098 2.660806,-18.88421 6.97553,-6.81897 13.62307,-10.49782 21.386492,-11.8356 17.388131,-2.99629 41.212689,6.15225 47.251909,18.14455 3.80215,7.55005 2.22776,20.69382 -3.05098,25.47101 -1.76945,1.60134 1.53946,4.25793 5.6949,4.57221 1.16749,0.0883 1.9625,0.26693 1.9625,0.44096 -3e-5,0.76294 -3.24001,2.6833 -5.0028,2.96518 -1.28438,0.20538 -1.26122,0.0846 -0.36668,1.91293 3.00371,6.13935 -3.63808,13.77482 -13.05493,15.00808 l -1.35878,0.17795 z M 88.853395,206.27079 c -3.60281,-3.60281 -0.766371,-12.74669 2.976962,-9.59688 1.536366,1.29277 2.322136,6.24679 1.299715,8.19427 -1.158417,2.20652 -2.901191,2.7781 -4.276677,1.40261 z m 4.897149,-1.10292 c -0.471715,-0.56838 0.141885,-0.8734 2.183823,-1.08559 2.049497,-0.21297 2.278631,0.10716 0.687488,0.9605 -1.071208,0.57449 -2.448539,0.6345 -2.871311,0.12509 z m -18.918542,-1.51532 c -1.902158,-1.49624 -2.507067,-5.66975 -0.631351,-4.35594 0.49344,0.34561 0.513543,0.4122 0.124452,0.4122 -1.08191,0 -0.705141,2.03257 0.666308,3.59457 0.907339,1.0334 0.855316,1.14735 -0.159409,0.34917 z m 19.330318,-0.35252 c -0.223782,-0.58317 0.337476,-0.86037 2.138778,-1.05634 1.887738,-0.20538 2.142114,0.0855 0.79375,0.9076 -1.012275,0.6172 -2.719536,0.70379 -2.932528,0.14874 z m -29.473998,-0.87924 c -3.285434,-3.07011 -1.199552,-11.77806 2.409084,-10.05723 2.592615,1.23634 3.126603,7.61223 0.829882,9.90895 -1.113914,1.11392 -2.154616,1.16156 -3.238966,0.14828 z m 11.835172,-2.91083 c 0.839446,-0.41935 0.933583,-0.58013 1.006684,-1.71938 0.12759,-1.9884 1.109983,-1.31516 1.109983,0.76068 0,0.7101 -1.026972,1.42214 -2.050521,1.42172 l -0.992187,-5.3e-4 0.926041,-0.46261 z M 58.66412,199.07314 c -0.866802,-0.38261 -1.893557,-1.39543 -1.655734,-1.63325 0.208976,-0.20898 2.372665,0.43364 2.816392,0.83646 0.868593,0.78853 0.06711,1.33875 -1.160658,0.79679 z m -0.346731,-2.0462 c -1.144045,-0.56603 -1.985542,-1.55535 -1.316223,-1.54745 0.94792,0.0112 2.729555,0.7571 2.812246,1.17738 0.161631,0.82152 -0.335172,0.94441 -1.496023,0.37007 z"
           id="path2040"
           inkscape:connector-curvature="0" />
        <path
           style="fill:#087ba3;stroke-width:0.26458332"
           d="m 31.62712,295.72544 c -4.266045,-1.23427 -1.753468,-5.32354 4.452408,-7.24638 2.887239,-0.89459 3.351601,-0.8336 3.807939,0.50017 0.524256,1.53228 1.788435,1.94803 3.298528,1.08478 1.780569,-1.01786 1.730555,-0.16019 -0.09369,1.60673 -2.916378,2.82474 -8.67605,4.86166 -11.465181,4.0547 z m -12.944685,-8.69886 c -3.918023,-1.58306 -1.171008,-5.49029 5.127786,-7.29352 2.708202,-0.77531 3.236191,-0.72955 3.236191,0.28051 0,1.65215 1.52666,2.29674 3.412833,1.44097 1.430492,-0.64902 1.57025,-0.54115 0.836674,0.6458 -1.898684,3.07214 -9.680432,6.11132 -12.613484,4.92624 z m 20.137935,-9.8048 c -0.873125,-0.39849 -2.515269,-1.04445 -3.649207,-1.43546 -2.602695,-0.89746 -4.420584,-1.69813 -4.420584,-1.94699 0,-0.29009 12.111119,-11.42427 12.426664,-11.42427 0.319841,0 -2.325632,15.19163 -2.69466,15.47407 -0.04109,0.0314 -0.789088,-0.26886 -1.662213,-0.66735 z m 64.09272,-45.59685 c -2.01189,-3.18468 -5.447132,-5.96119 -10.52156,-8.50399 -4.212561,-2.11092 -4.665858,-2.80838 -2.049494,-3.15346 11.387934,-1.50197 18.096154,-13.34372 15.830654,-27.94519 -0.39902,-2.57178 0.45439,-2.19185 -9.813632,-4.36903 -10.379721,-2.20087 -9.386986,-1.79938 -8.97717,-3.63063 0.502716,-2.24638 0.218496,-2.29756 -1.348457,-0.24284 -1.426331,1.87033 -1.925444,2.16015 -3.006005,1.7455 -0.350329,-0.13443 -0.418515,-0.69227 -0.418515,-3.42397 0,-4.13132 -0.05743,-4.14612 -2.554052,-0.65827 -1.141886,1.59525 -2.212927,2.956 -2.380091,3.02389 -0.167167,0.0679 -4.423241,-0.48233 -9.457944,-1.22272 -10.812867,-1.59011 -9.451408,-1.94178 -11.933396,3.08245 -7.247845,14.67163 -2.521212,26.25783 12.699441,31.12961 1.978827,0.63337 2.615756,1.01845 2.03522,1.23046 -0.190317,0.0695 -0.896233,0.54634 -1.568704,1.05965 l -1.222673,0.93329 -4.649005,-0.14051 c -11.260753,-0.34034 -19.318006,-3.76368 -21.642932,-9.19556 -2.548178,-5.95349 0.473144,-13.99593 5.264476,-14.01347 1.772221,-0.006 1.901624,-0.42615 0.599712,-1.9449 -2.103511,-2.45386 -2.893176,-4.66961 -2.893176,-8.11807 v -3.07638 l 1.106662,-2.23334 c 3.053971,-6.16317 12.577632,-13.66204 20.589171,-16.21178 17.806087,-5.66695 45.83666,3.62694 52.24529,17.32258 3.51344,7.50844 2.30554,17.929 -2.81416,24.27772 -1.39902,1.73486 -1.4048,1.8923 -0.11671,3.18038 1.23176,1.23176 3.18524,2.00863 5.71891,2.27433 l 1.85208,0.19422 -0.92604,0.79372 c -1.24463,1.0668 -3.37537,2.05402 -4.44007,2.05719 -1.14991,0.003 -1.29388,0.51097 -0.48362,1.70495 3.40113,5.01185 -1.87017,12.5484 -10.28138,14.69963 -3.15626,0.80724 -3.57498,0.74829 -4.44283,-0.62546 z M 89.620369,206.86701 c -3.503681,-1.43402 -2.8482,-10.86237 0.755179,-10.86237 3.545644,0 4.239098,9.30924 0.800478,10.74598 -0.482462,0.20159 -0.910793,0.35898 -0.951846,0.34975 -0.04106,-0.009 -0.312769,-0.11423 -0.603811,-0.23336 z m 4.365625,-1.93076 c 0,-0.28588 0.390332,-0.43611 1.389062,-0.53459 1.510708,-0.14896 1.773018,-0.0762 1.328288,0.36855 -0.498703,0.4987 -2.71735,0.63427 -2.71735,0.16604 z m 0.264583,-1.79616 c 0,-0.33394 0.305186,-0.43348 1.918229,-0.62562 1.373865,-0.16365 1.642301,0.10874 0.582864,0.59145 -0.835147,0.38052 -2.501093,0.40328 -2.501093,0.0342 z m -29.632631,-0.98708 c -2.236028,-2.23603 -1.995292,-7.65955 0.424473,-9.56294 2.931766,-2.30613 5.642875,4.23737 3.548312,8.56416 -1.037265,2.1427 -2.468936,2.50263 -3.972785,0.99878 z m -5.988209,-3.35447 c -1.320858,-0.57482 -1.438608,-1.05354 -0.202303,-0.82247 1.136195,0.21236 1.76452,0.60742 1.541074,0.96897 -0.1879,0.30403 -0.342355,0.28712 -1.338771,-0.1465 z m -0.104084,-1.94571 c -0.488596,-0.24822 -0.931572,-0.58946 -0.98439,-0.7583 -0.126138,-0.40321 2.112377,0.23284 2.247643,0.63864 0.174037,0.52211 -0.369689,0.57361 -1.263253,0.11966 z"
           id="path2038"
           inkscape:connector-curvature="0" />
        <path
           style="fill:#46190c;stroke-width:0.26458332"
           d="m 31.814353,295.19268 c -3.455603,-1.37874 -1.410824,-4.43772 4.095601,-6.127 3.504935,-1.07525 3.749831,-1.08845 3.925228,-0.21146 0.308835,1.54417 1.724912,2.05058 3.363952,1.203 1.207209,-0.62427 0.928026,-0.0487 -0.696642,1.43611 -2.923691,2.67209 -8.460066,4.58833 -10.688139,3.69935 z M 18.712038,286.4512 c -3.149636,-1.72272 -0.374769,-4.73392 5.913028,-6.41665 l 2.421346,-0.64799 v 0.6544 c 0,1.61552 1.539583,2.26359 3.386364,1.42543 l 1.137405,-0.5162 -0.547105,0.76833 c -2.236907,3.14145 -9.86143,6.07251 -12.311038,4.73268 z m 84.201052,-54.82627 c -2.01189,-3.18468 -5.447132,-5.96119 -10.52156,-8.50399 -4.212561,-2.11092 -4.665858,-2.80838 -2.049494,-3.15346 11.387934,-1.50197 18.096154,-13.34372 15.830654,-27.94519 -0.39902,-2.57178 0.45439,-2.19185 -9.813632,-4.36903 -10.379721,-2.20087 -9.386986,-1.79938 -8.97717,-3.63063 0.502716,-2.24638 0.218496,-2.29756 -1.348457,-0.24284 -1.426331,1.87033 -1.925444,2.16015 -3.006005,1.7455 -0.350329,-0.13443 -0.418515,-0.69227 -0.418515,-3.42397 0,-4.13132 -0.05743,-4.14612 -2.554052,-0.65827 -1.141886,1.59525 -2.212927,2.956 -2.380091,3.02389 -0.167167,0.0679 -4.423241,-0.48233 -9.457944,-1.22272 -10.812867,-1.59011 -9.451408,-1.94178 -11.933396,3.08245 -7.247845,14.67163 -2.521212,26.25783 12.699441,31.12961 1.978827,0.63337 2.615756,1.01845 2.03522,1.23046 -0.190317,0.0695 -0.896233,0.54634 -1.568704,1.05965 l -1.222673,0.93329 -4.649005,-0.14051 c -11.260753,-0.34034 -19.318006,-3.76368 -21.642932,-9.19556 -2.548178,-5.95349 0.473144,-13.99593 5.264476,-14.01347 1.772221,-0.006 1.901624,-0.42615 0.599712,-1.9449 -2.103511,-2.45386 -2.893176,-4.66961 -2.893176,-8.11807 v -3.07638 l 1.106662,-2.23334 c 3.053971,-6.16317 12.577632,-13.66204 20.589171,-16.21178 17.806087,-5.66695 45.83666,3.62694 52.24529,17.32258 3.51344,7.50844 2.30554,17.929 -2.81416,24.27772 -1.39902,1.73486 -1.4048,1.8923 -0.11671,3.18038 1.23176,1.23176 3.18524,2.00863 5.71891,2.27433 l 1.85208,0.19422 -0.92604,0.79372 c -1.24463,1.0668 -3.37537,2.05402 -4.44007,2.05719 -1.14991,0.003 -1.29388,0.51097 -0.48362,1.70495 3.40113,5.01185 -1.87017,12.5484 -10.28138,14.69963 -3.15626,0.80724 -3.57498,0.74829 -4.44283,-0.62546 z M 89.620369,206.86701 c -3.503681,-1.43402 -2.8482,-10.86237 0.755179,-10.86237 3.545644,0 4.239098,9.30924 0.800478,10.74598 -0.482462,0.20159 -0.910793,0.35898 -0.951846,0.34975 -0.04106,-0.009 -0.312769,-0.11423 -0.603811,-0.23336 z m 4.365625,-1.93076 c 0,-0.28588 0.390332,-0.43611 1.389062,-0.53459 1.510708,-0.14896 1.773018,-0.0762 1.328288,0.36855 -0.498703,0.4987 -2.71735,0.63427 -2.71735,0.16604 z m 0.264583,-1.79616 c 0,-0.33394 0.305186,-0.43348 1.918229,-0.62562 1.373865,-0.16365 1.642301,0.10874 0.582864,0.59145 -0.835147,0.38052 -2.501093,0.40328 -2.501093,0.0342 z m -29.632631,-0.98708 c -2.236028,-2.23603 -1.995292,-7.65955 0.424473,-9.56294 2.931766,-2.30613 5.642875,4.23737 3.548312,8.56416 -1.037265,2.1427 -2.468936,2.50263 -3.972785,0.99878 z m -5.988209,-3.35447 c -1.320858,-0.57482 -1.438608,-1.05354 -0.202303,-0.82247 1.136195,0.21236 1.76452,0.60742 1.541074,0.96897 -0.1879,0.30403 -0.342355,0.28712 -1.338771,-0.1465 z m -0.104084,-1.94571 c -0.488596,-0.24822 -0.931572,-0.58946 -0.98439,-0.7583 -0.126138,-0.40321 2.112377,0.23284 2.247643,0.63864 0.174037,0.52211 -0.369689,0.57361 -1.263253,0.11966 z"
           id="path2036"
           inkscape:connector-curvature="0" />
      </g>
    </g>
    <g
       id="g961"
       transform="translate(81.264881,-14.174107)" />
    <rect
       style="opacity:1;fill:#ffffff;fill-opacity:1;stroke:none;stroke-width:1;stroke-miterlimit:4;stroke-dasharray:none;stroke-opacity:1"
       id="rect995"
       width="95.682487"
       height="137.37653"
       x="294.51065"
       y="60.008327"
       ry="3.9196432" />
  </g>
</svg>
