<?xml version="1.0" encoding="UTF-8" standalone="no"?>
<!-- Created with Inkscape (http://www.inkscape.org/) -->

<svg
   xmlns:dc="http://purl.org/dc/elements/1.1/"
   xmlns:cc="http://creativecommons.org/ns#"
   xmlns:rdf="http://www.w3.org/1999/02/22-rdf-syntax-ns#"
   xmlns:svg="http://www.w3.org/2000/svg"
   xmlns="http://www.w3.org/2000/svg"
   xmlns:sodipodi="http://sodipodi.sourceforge.net/DTD/sodipodi-0.dtd"
   xmlns:inkscape="http://www.inkscape.org/namespaces/inkscape"
   width="300"
   height="500"
   viewBox="0 0 79.374999 132.29167"
   version="1.1"
   id="svg8"
   inkscape:version="0.92.3 (2405546, 2018-03-11)"
   sodipodi:docname="mom.svg">
  <defs
     id="defs2" />
  <sodipodi:namedview
     id="base"
     pagecolor="#ffffff"
     bordercolor="#666666"
     borderopacity="1.0"
     inkscape:pageopacity="0.0"
     inkscape:pageshadow="2"
     inkscape:zoom="0.98994948"
     inkscape:cx="89.412004"
     inkscape:cy="249.69997"
     inkscape:document-units="mm"
     inkscape:current-layer="g2140"
     showgrid="false"
     inkscape:pagecheckerboard="false"
     showguides="false"
     inkscape:snap-global="false"
     inkscape:window-width="1366"
     inkscape:window-height="713"
     inkscape:window-x="0"
     inkscape:window-y="27"
     inkscape:window-maximized="1"
     units="px" />
  <metadata
     id="metadata5">
    <rdf:RDF>
      <cc:Work
         rdf:about="">
        <dc:format>image/svg+xml</dc:format>
        <dc:type
           rdf:resource="http://purl.org/dc/dcmitype/StillImage" />
        <dc:title></dc:title>
      </cc:Work>
    </rdf:RDF>
  </metadata>
  <g
     inkscape:label="Layer 1"
     inkscape:groupmode="layer"
     id="layer1"
     transform="translate(0,-164.70832)">
    <g
       id="g979"
       transform="translate(-13.779441,-3.7607682)">
      <g
         id="g2080"
         transform="matrix(0.8203827,0,0,0.8203827,-1.2447116,35.212194)">
        <g
           id="g2102">
          <g
             id="g2140">
            <path
               style="fill:#ffccaa;fill-rule:evenodd;stroke:none;stroke-width:0.29801059px;stroke-linecap:butt;stroke-linejoin:miter;stroke-opacity:1"
               d="m 79.228733,206.2278 c 0,0 -3.38666,-0.22579 -4.36504,-2.48355 -0.978359,-2.25778 -0.188136,-4.06398 -0.188136,-4.06398 0,0 3.687686,0.75258 8.993452,-2.55882 5.305765,-3.3114 9.40025,-22.36977 -11.401743,-23.97 -20.613567,-1.58574 -18.588984,16.55698 -12.794039,21.52409 5.794943,4.96709 10.686783,4.81657 10.686783,4.81657 0,0 0.376301,3.61244 -0.451555,4.5908 -0.827847,0.97837 -3.762953,2.40829 -3.762953,2.40829 0,0 1.580442,4.21452 5.117616,4.06399 3.537171,-0.15051 8.165615,-4.32739 8.165615,-4.32739 z"
               id="path2378"
               inkscape:connector-curvature="0"
               sodipodi:nodetypes="cccsssccccc" />
            <g
               id="g2303"
               transform="matrix(0.92402927,0,0,0.92402927,39.452403,18.413426)"
               style="fill:#4a1605;fill-opacity:1;stroke:none">
              <path
                 style="fill:#4a1605;fill-opacity:1;fill-rule:evenodd;stroke:none;stroke-width:0.32251209px;stroke-linecap:butt;stroke-linejoin:miter;stroke-opacity:1"
                 d="m 19.859068,174.81306 c 0,0 3.685852,1.09424 13.591582,2.47644 9.905726,1.38219 17.277433,2.13088 17.277433,2.13088 0,0 0.80628,9.79054 -2.476435,12.95807 -3.282711,3.16753 -6.565423,3.57067 -6.565423,3.57067 0,0 11.730848,10.13063 21.178655,-0.86466 9.447805,-10.99529 -0.671775,-31.82127 -17.999699,-35.18493 -13.845924,-2.68774 -25.167,4.31666 -29.076438,10.34372 -2.280502,3.25786 -7.9817648,15.14906 2.850633,23.45662 7.167301,4.07233 13.031455,2.11761 13.031455,2.11761 0,0 -10.645017,-2.72935 -12.054095,-8.5519 -1.884851,-7.78853 0.242332,-12.45252 0.242332,-12.45252 z"
                 id="path2319"
                 inkscape:connector-curvature="0"
                 sodipodi:nodetypes="cscscsscccsc" />
            </g>
            <path
               style="opacity:1;fill:#f9f9f9;fill-opacity:1;stroke:none;stroke-width:0.31144702"
               d="m 60.806148,182.60804 a 1.8938297,2.7593675 18.224661 0 0 -2.392814,2.41726 1.8938297,2.7593675 18.224661 0 0 1.252574,2.94227 l 0.637931,-2.67336 -0.6356,2.67336 a 1.8938297,2.7593675 18.224661 0 0 2.526686,-2.4062 1.8938297,2.7593675 18.224661 0 0 -1.25374,-2.9411 1.8938297,2.7593675 18.224661 0 0 -0.135037,-0.0122 z m 16.328885,2.97545 a 1.8938297,2.7593677 18.224661 0 0 -2.392808,2.41667 1.8938297,2.7593677 18.224661 0 0 1.251992,2.94229 l 0.638508,-2.67337 -0.636182,2.67394 a 1.8938297,2.7593677 18.224661 0 0 2.526681,-2.40678 1.8938297,2.7593677 18.224661 0 0 -1.253739,-2.94053 1.8938297,2.7593677 18.224661 0 0 -0.134452,-0.0122 z"
               id="path2339"
               inkscape:connector-curvature="0" />
            <path
               style="fill:#1a1a1a;fill-rule:evenodd;stroke:none;stroke-width:0.29801059"
               d="m 61.080878,182.58359 c -0.170665,-0.006 -0.357795,0.0164 -0.564009,0.0762 -1.649703,0.47895 -3.059065,3.73332 -1.383538,5.0557 1.223971,0.53216 2.021966,-0.90468 2.288048,-1.86256 0.58593,-1.63523 -0.14202,-2.74845 -0.14202,-2.74845 0,0 0.921997,0.54561 1.034887,1.44873 0.112889,0.90311 -0.357348,2.18244 0.508131,2.72808 0.865479,0.54562 2.163489,-0.39522 2.163489,-0.39522 0,0 -1.241679,0.37666 -1.862567,-0.0937 -0.620887,-0.47037 -0.320129,-1.69378 -0.320129,-1.69378 0,0 0.131954,0.47033 0.959803,0.52677 0.82785,0.0564 1.437088,-0.83699 1.437088,-0.83699 0,0 -1.437255,0.95796 -2.022631,0.10647 -0.512209,-0.74502 -0.90189,-2.26404 -2.096552,-2.31134 z m 16.300951,2.98768 c -0.170671,-0.006 -0.357799,0.0169 -0.564013,0.0769 -1.649697,0.47895 -3.059075,3.73273 -1.383538,5.05512 1.223975,0.53216 2.021961,-0.90468 2.288045,-1.86257 0.585928,-1.63522 -0.142022,-2.74845 -0.142022,-2.74845 0,0 0.922005,0.54563 1.034895,1.44873 0.112891,0.90311 -0.357359,2.18303 0.508131,2.72866 0.865479,0.54563 2.163478,-0.39521 2.163478,-0.39521 0,0 -1.241677,0.37608 -1.862559,-0.0943 -0.620892,-0.47036 -0.319543,-1.69319 -0.319543,-1.69319 0,0 0.131375,0.47031 0.95922,0.52675 0.827856,0.0565 1.437083,-0.83699 1.437083,-0.83699 0,0 -1.437254,0.95798 -2.022625,0.10658 -0.512215,-0.74503 -0.901891,-2.26462 -2.096552,-2.31191 z"
               id="path2321"
               inkscape:connector-curvature="0" />
            <g
               id="g2363"
               style="fill:#d16d5d;fill-opacity:1;stroke:none"
               transform="matrix(0.92402927,0,0,0.92402927,-27.289457,19.5294)">
              <path
                 inkscape:connector-curvature="0"
                 id="path2357"
                 d="m 104.12484,185.41158 c 0,0 -1.94161,-0.32469 -2.55246,-1.22061 -0.61085,-0.89591 -1.05881,-2.23978 -1.05881,-2.23978 0,0 2.58593,0.44796 3.90944,-0.87555 1.3235,-1.32351 1.24206,-2.93208 1.24206,-2.93208 0,0 0.61085,1.97508 -0.87555,3.44112 -1.4864,1.46604 -2.93208,1.40496 -2.93208,1.40496 0,0 0,0.65157 0.67194,1.18097 0.67193,0.52941 1.59546,1.24097 1.59546,1.24097 z"
                 style="fill:#d16d5d;fill-opacity:1;fill-rule:evenodd;stroke:none;stroke-width:0.32251209px;stroke-linecap:butt;stroke-linejoin:miter;stroke-opacity:1" />
              <path
                 sodipodi:nodetypes="cscsc"
                 inkscape:connector-curvature="0"
                 id="path2359"
                 d="m 99.882362,188.36511 c 0,0 1.070398,2.03985 2.158338,2.19906 1.66965,0.24434 3.13569,-1.54748 3.13569,-1.54748 0,0 -0.61085,2.52484 -2.80991,2.2805 -2.19906,-0.24434 -2.484118,-2.93208 -2.484118,-2.93208 z"
                 style="fill:#d16d5d;fill-opacity:1;fill-rule:evenodd;stroke:none;stroke-width:0.32251209px;stroke-linecap:butt;stroke-linejoin:miter;stroke-opacity:1" />
            </g>
            <path
               style="fill:#013353;fill-opacity:1;fill-rule:evenodd;stroke:none;stroke-width:0.29801059px;stroke-linecap:butt;stroke-linejoin:miter;stroke-opacity:1"
               d="m 57.110953,313.89094 c 0,0 -3.512269,-0.74503 -6.43916,1.86256 -2.926889,2.6076 -2.301314,6.69925 4.363727,2.39474 2.554379,-1.64971 2.075433,-4.2573 2.075433,-4.2573 z"
               id="path2396"
               inkscape:connector-curvature="0"
               sodipodi:nodetypes="cssc" />
            <path
               style="fill:#013353;fill-opacity:1;fill-rule:evenodd;stroke:none;stroke-width:0.29801059px;stroke-linecap:butt;stroke-linejoin:miter;stroke-opacity:1"
               d="m 79.142454,314.79562 c 0,0 -0.138976,1.55047 0.948981,3.07072 1.08798,1.52026 5.637961,3.38282 7.246304,2.25089 1.170752,-1.27719 -1.995606,-3.9912 -4.071036,-4.68302 -2.07543,-0.6918 -4.124249,-0.63859 -4.124249,-0.63859 z"
               id="path2398"
               inkscape:connector-curvature="0"
               sodipodi:nodetypes="cscsc" />
            <path
               style="fill:#f2499c;fill-opacity:1;fill-rule:evenodd;stroke:none;stroke-width:0.29801059px;stroke-linecap:butt;stroke-linejoin:miter;stroke-opacity:1"
               d="m 50.193013,293.61582 c 0,0 2.394813,11.28183 2.714111,14.15551 0.319297,2.87366 0.106264,7.55645 1.277019,7.50323 1.170757,-0.0532 3.246105,-1.33057 3.246105,-1.33057 0,0 0.638842,-3.29907 1.437087,-8.51426 0.798243,-5.21518 0.372514,-9.31283 0.372514,-9.31283 z m 34.59019,1.11755 -9.099802,1.80901 c 0,0 0.63884,6.7054 1.437083,11.38843 0.798242,4.68303 0.904678,7.60984 3.725138,8.08877 2.820449,0.47895 1.436321,-1.91569 2.34101,-9.20631 0.904668,-7.29062 1.596571,-12.0799 1.596571,-12.0799 z"
               id="path2391"
               inkscape:connector-curvature="0" />
            <path
               style="fill:#00aaa6;fill-opacity:1;fill-rule:evenodd;stroke:none;stroke-width:0.29801059px;stroke-linecap:butt;stroke-linejoin:miter;stroke-opacity:1"
               d="m 65.785193,203.36093 c 0,0 1.01111,4.41695 6.17308,4.57659 5.161964,0.15965 7.290607,-3.67191 7.290607,-3.67191 0,0 7.769562,0.10647 4.204073,9.47247 -3.192959,8.35495 -2.341504,5.37485 -2.82045,7.98244 -0.478956,2.60758 -0.478956,9.31282 0.532158,12.08007 1.011114,2.76723 26.775399,54.72297 26.775399,54.72297 0,0 -16.858033,11.5899 -37.78005,10.8373 -20.922011,-0.75259 -45.004906,-9.78367 -45.004906,-9.78367 l 34.769677,-55.54117 c 0,0 2.257773,-5.7197 2.107255,-10.68679 -0.15052,-4.96709 -3.595868,-9.63226 -3.311399,-15.05182 0.354254,-6.74904 7.064556,-4.93648 7.064556,-4.93648 z"
               id="path2380"
               inkscape:connector-curvature="0"
               sodipodi:nodetypes="cccccccsccssc" />
            <path
               style="opacity:1;fill:#ff0000;fill-opacity:1;stroke:none;stroke-width:0.29801059"
               d="m 66.210501,202.85588 c -0.04699,-8.9e-4 -0.09401,6e-4 -0.140857,0.004 -0.775982,0.0609 -1.353868,0.71538 -1.290991,1.46212 0.06114,0.71656 0.692461,1.26287 1.439415,1.24559 -0.167696,0.29666 -0.242047,0.63285 -0.214195,0.96853 0.40232,2.00982 2.378712,1.75349 3.086677,1.15654 1.88e-4,0.003 2.98e-4,0.006 5.96e-4,0.01 0.572395,2.33452 3.293192,2.34177 3.921922,0.42722 1.591253,1.83153 3.510808,0.43521 3.520308,-0.8469 1.194576,0.45889 2.401728,0.14493 2.624507,-1.28576 0.906233,0.49079 2.305189,0.20307 2.268263,-1.31137 -0.06808,-0.76163 -0.800119,-1.32869 -1.634987,-1.26654 -0.637136,0.048 -1.17281,0.45548 -1.339299,1.01858 -1.470525,-0.89845 -2.748141,0.23086 -2.793849,1.3527 -0.714622,-0.62481 -2.150869,-0.35895 -2.753105,0.87482 -0.482794,-1.35827 -2.273284,-1.498 -3.23272,-0.55236 -0.185928,-1.22418 -1.060426,-1.6275 -2.161157,-1.44292 0.275809,-1.40275 -0.685666,-1.86817 -1.300305,-1.81368 z"
               id="path2365"
               inkscape:connector-curvature="0"
               sodipodi:nodetypes="ccccccccccccccccccc" />
            <path
               style="fill:#ffccaa;fill-opacity:1;fill-rule:evenodd;stroke:none;stroke-width:0.29801059px;stroke-linecap:butt;stroke-linejoin:miter;stroke-opacity:1"
               d="m 78.100075,232.34263 c 0,0 -3.574849,0.82795 -6.133664,1.84394 -2.558801,1.016 -5.493985,2.21994 -5.493985,2.21994 0,0 0.903115,0.48911 1.505186,0.41385 0.602067,-0.0753 1.693189,0.0378 1.693189,0.0378 0,0 -5.004915,3.98901 -4.440475,4.77923 0.564445,0.79022 5.005065,-3.01038 5.005065,-3.01038 0,0 -2.914937,3.49873 -2.897456,4.28973 -0.0092,0.36528 4.854311,-2.97313 4.854311,-2.97313 0,0 -3.575217,3.01065 -3.086035,3.27405 0.489181,0.26342 4.628481,-2.70945 4.628481,-2.70945 0,0 -2.596272,2.25786 -2.332869,2.59653 0.2634,0.33867 3.424419,-1.43027 4.214641,-2.10761 0.790212,-0.67733 4.477727,-5.41832 4.477727,-5.41832 z m -15.503534,3.029 -3.198374,3.91372 c 0,0 1.147723,1.46752 2.314237,2.0884 1.166518,0.62089 3.612192,1.1479 5.004483,0.73397 1.39229,-0.41393 2.953914,-2.8602 2.953914,-2.8602 0,0 -3.809386,3.14936 -4.528364,2.51155 -0.998359,-0.71763 3.941074,-4.7868 3.941074,-4.7868 0,0 -1.55453,0.43435 -3.064505,-0.49008 -0.658509,-0.1129 -3.422465,-1.11056 -3.422465,-1.11056 z"
               id="path2386"
               inkscape:connector-curvature="0" />
            <path
               style="fill:#00aaa6;fill-opacity:1;fill-rule:evenodd;stroke:none;stroke-width:0.29801059px;stroke-linecap:butt;stroke-linejoin:miter;stroke-opacity:1"
               d="m 60.516788,213.79131 c 0,0 -3.512269,3.88477 -2.714027,10.00464 0.798246,6.11985 5.428051,11.4947 5.428051,11.4947 l -3.246187,5.00231 c 0,0 -8.075945,-3.51761 -8.661325,-15.3316 -0.585376,-11.814 7.969514,-20.90862 9.725648,-21.28113"
               id="path2382"
               inkscape:connector-curvature="0"
               sodipodi:nodetypes="csccsc" />
            <path
               style="fill:#00aaa6;fill-opacity:1;fill-rule:evenodd;stroke:none;stroke-width:0.29801059px;stroke-linecap:butt;stroke-linejoin:miter;stroke-opacity:1"
               d="m 82.06934,214.21704 c 0,0 2.905162,3.28169 2.394727,7.45026 -0.638594,5.21518 -7.438461,10.82225 -7.438461,10.82225 0,0 2.157141,1.0955 2.050716,2.85163 -0.106468,1.75613 -0.519249,2.82314 -0.519249,2.82314 0,0 10.413777,-6.76711 11.654339,-14.68767 1.383623,-8.83389 -7.130969,-17.66777 -7.130969,-17.66777"
               id="path2384"
               inkscape:connector-curvature="0"
               sodipodi:nodetypes="cscscsc" />
          </g>
        </g>
      </g>
    </g>
    <g
       id="g961"
       transform="translate(81.264881,-14.174107)" />
    <rect
       style="opacity:1;fill:#ffffff;fill-opacity:1;stroke:none;stroke-width:1;stroke-miterlimit:4;stroke-dasharray:none;stroke-opacity:1"
       id="rect995"
       width="95.682487"
       height="137.37653"
       x="294.51065"
       y="60.008327"
       ry="3.9196432" />
  </g>
</svg>
